<?xml version="1.0" standalone="no"?>
<!DOCTYPE svg PUBLIC "-//W3C//DTD SVG 1.1//EN" "http://www.w3.org/Graphics/SVG/1.1/DTD/svg11.dtd" >
<svg xmlns="http://www.w3.org/2000/svg">
<metadata></metadata>
<defs>
<font id="majesti_bannerheavy_italic" horiz-adv-x="1382" >
<font-face units-per-em="2048" ascent="1536" descent="-512" />
<missing-glyph horiz-adv-x="456" />
<glyph unicode="&#xfb01;" horiz-adv-x="1308" d="M-332 -154q0 63 42.5 102.5t101.5 39.5t95 -41t36 -99q0 -52 -29.5 -90t-69.5 -51q13 -26 47 -26q41 0 73 29.5t44 80.5l244 1032h-168l6 29h170l29 123q38 165 197 270t366 105q177 0 282 -75.5t105 -178.5q0 -70 -48.5 -123t-119.5 -53q-70 0 -120 51t-50 123 q0 58 32.5 103.5t86.5 62.5q-46 75 -143 75q-82 0 -143 -53t-87 -166l-61 -264h444q100 0 136 -59t12 -164l-111 -494q-9 -40 3 -61t40 -21t104 35l-2 -12q-173 -101 -313 -101q-100 0 -135.5 59.5t-11.5 164.5l122 542q9 40 -3 61t-40 21h-253l-193 -821 q-37 -158 -162 -247t-295 -89q-137 0 -198.5 53.5t-61.5 126.5z" />
<glyph unicode="&#xfb02;" horiz-adv-x="1316" d="M-332 -154q0 63 42.5 102.5t101.5 39.5t95 -41t36 -99q0 -52 -29.5 -90t-69.5 -51q13 -26 47 -26q41 0 73 29.5t44 80.5l244 1032h-168l6 29h170l29 123q38 165 193 270t354 105q197 0 299 -105l202 123h11l-281 -1233q-9 -40 3 -61t40 -21t104 35l-2 -12 q-173 -101 -313 -101q-100 0 -135.5 60.5t-11.5 163.5l176 755q-68 55 -68 140q0 60 33.5 105.5t89.5 62.5q-37 73 -125 73q-80 0 -134 -60t-77 -159l-61 -264h235l-6 -29h-237l-193 -821q-37 -158 -162 -247t-295 -89q-137 0 -198.5 53.5t-61.5 126.5z" />
<glyph unicode="fj" horiz-adv-x="1280" d="M-332 -154q0 63 42.5 102.5t101.5 39.5t95 -41t36 -99q0 -52 -29.5 -90t-69.5 -51q13 -26 47 -26q41 0 73 29.5t44 80.5l244 1032h-168l6 29h170l29 123q38 165 197 270t366 105q177 0 282 -75.5t105 -178.5q0 -70 -48.5 -123t-119.5 -53q-70 0 -120 51t-50 123 q0 58 32.5 103.5t86.5 62.5q-46 75 -143 75q-82 0 -143 -53t-87 -166l-61 -264h444q100 0 136 -59t12 -164l-144 -627q-38 -158 -162.5 -247t-293.5 -89q-72 0 -125 16t-81.5 43t-41.5 57t-13 62v6q-64 -89 -165.5 -136.5t-223.5 -47.5q-137 0 -198.5 53.5t-61.5 126.5z M373 -41q40 29 88 29q59 0 95 -41t36 -99q0 -53 -28.5 -90.5t-69.5 -50.5q13 -26 47 -26q41 0 72.5 29.5t43.5 80.5l217 950q9 40 -3 61t-40 21h-253l-193 -821z" />
<glyph unicode="fy" horiz-adv-x="1679" d="M-332 -156q0 64 42.5 104t101.5 40t95 -41t36 -99q0 -52 -29.5 -90t-69.5 -51q13 -26 47 -26q41 0 73 29.5t44 80.5l244 1032h-168l6 29h170l29 123q39 168 170 271.5t317 103.5q91 0 159.5 -26t104 -67.5t52 -82.5t16.5 -80q0 -68 -46 -113t-108 -45q-63 0 -107 46 t-44 112q0 56 32.5 98.5t84.5 54.5q-30 88 -103 88q-63 0 -105 -61t-65 -158l-61 -264h434q138 0 154 -107l88 -557q254 212 276 379q-27 -10 -63 -10q-70 0 -114 45.5t-44 110.5q0 68 46.5 114.5t119.5 46.5q56 0 93.5 -30t51.5 -69t14 -81q0 -73 -48.5 -161t-134 -177.5 t-190 -175t-227.5 -168.5l-53 -37q-29 -20 -72 -64.5t-85 -87.5t-92 -85t-109 -68t-119 -26q-51 0 -81 25t-30 63q0 54 37.5 84t100.5 41.5t131.5 18.5t144.5 26.5t125 54.5l64 45l-158 784q-6 37 -45 37h-223l-193 -821q-37 -158 -162 -247t-295 -89q-72 0 -125 16t-81 43 t-41 57t-13 62z" />
<glyph horiz-adv-x="0" />
<glyph horiz-adv-x="682" />
<glyph unicode=" "  horiz-adv-x="456" />
<glyph unicode="&#x09;" horiz-adv-x="456" />
<glyph unicode="&#xa0;" horiz-adv-x="456" />
<glyph unicode="!" horiz-adv-x="571" d="M27 160q0 74 52.5 126t125.5 52t125.5 -52t52.5 -126t-52.5 -126t-125.5 -52t-125.5 52t-52.5 126zM219 1053q0 106 68 171.5t162 65.5q73 0 123.5 -41t50.5 -116q0 -44 -20.5 -88t-57 -97t-79 -116.5t-96.5 -172.5t-98 -239h-14q17 204 8 300t-28 194.5t-19 138.5z" />
<glyph unicode="&#x22;" horiz-adv-x="823" d="M205 1104q0 80 46 133t126 53q65 0 101 -34t36 -82q0 -45 -34.5 -105.5t-101 -163t-112.5 -194.5h-16q-4 94 -24.5 226t-20.5 167zM592 1104q0 80 46 133t126 53q65 0 101 -34t36 -82q0 -45 -34.5 -105.5t-101 -163t-112.5 -194.5h-16q-4 94 -24.5 226t-20.5 167z" />
<glyph unicode="#" horiz-adv-x="1101" d="M35 369l4 18h188l226 496h-203l4 18h207l166 365h22l-166 -365h432l166 365h23l-166 -365h184l-4 -18h-188l-225 -496h202l-4 -18h-207l-168 -369h-22l168 369h-432l-168 -369h-23l168 369h-184zM250 387h432l225 496h-432z" />
<glyph unicode="$" horiz-adv-x="1208" d="M31 268q0 70 45.5 119t118.5 49t120 -48t47 -120q0 -64 -38 -111.5t-97 -58.5q63 -101 242 -106l117 506q-10 4 -29 13q-38 17 -57.5 26t-55 26.5t-55.5 30t-49.5 33.5t-46 39t-36 43.5t-30 51.5t-17.5 59t-7 69q0 71 24 132t66 105.5t97 78t118.5 52.5t130 27t131.5 4 l31 137h20l-33 -137q182 -12 289 -93.5t107 -193.5q0 -72 -45.5 -122t-118.5 -50t-120.5 48t-47.5 120q0 63 38 110.5t95 59.5q-50 95 -199 105l-108 -463q19 -9 61.5 -27t64.5 -28t60 -29t60 -34.5t51.5 -38.5t46.5 -47t33.5 -54t24 -65.5t7.5 -75.5q0 -190 -159 -314.5 t-443 -120.5l-43 -190h-20l43 192q-198 10 -316 94t-118 197zM453 1049q0 -82 53 -134t153 -98l107 457q-87 1 -151 -18.5t-97.5 -54t-49 -72.5t-15.5 -80zM489 -8q79 1 141 18.5t99.5 44t62 62t33.5 68t9 65.5q0 44 -17 79.5t-52 64.5t-71 49.5t-90 45.5z" />
<glyph unicode="%" horiz-adv-x="1601" d="M164 895q0 90 41.5 166.5t106.5 124t141.5 74t150.5 26.5q92 0 172 -40.5t117 -121.5q55 -10 102 -10q76 0 182 22.5t199 59.5q14 14 29 43.5t29 47.5t34 18q27 0 27 -29q0 -54 -106 -96l-1186 -1198l-13 14l1170 1178q-201 -78 -361 -78q-57 0 -98 8q19 -49 19 -107 q0 -73 -27 -138t-72 -110.5t-102 -79t-118 -49.5t-120 -16q-57 0 -110.5 16t-101 49t-76.5 91.5t-29 134.5zM395 760q0 -144 74 -144q49 0 92.5 53.5t70.5 133t42.5 166.5t15.5 159q0 58 -12 93q-33 33 -47 51q-4 2 -15 2q-63 0 -116 -91t-79 -207.5t-26 -215.5zM735 270 q0 90 41.5 166.5t107 124.5t142 74.5t150.5 26.5q58 0 111.5 -16.5t100.5 -49t75 -90.5t28 -133q0 -91 -41 -168t-106 -124.5t-141 -74t-150 -26.5q-57 0 -110.5 16t-101.5 48.5t-77 91t-29 134.5zM967 135q0 -78 18.5 -110.5t54.5 -32.5q49 0 92.5 53.5t71 133t43 166.5 t15.5 159q0 145 -74 145q-63 0 -116 -91t-79 -207.5t-26 -215.5z" />
<glyph unicode="&#x26;" horiz-adv-x="1624" d="M16 258q0 48 18.5 90t56 75.5t79.5 60t103 51t111.5 41t119.5 36.5l-39 52q-113 141 -113 270q0 111 73.5 193t196 122.5t275.5 40.5q196 0 305 -64.5t109 -166.5q0 -36 -15.5 -69t-38 -57t-61 -47t-70.5 -37.5t-80.5 -30.5t-78.5 -24t-77 -20t-63 -16l330 -412 q68 103 94 182q9 25 11.5 43t-3.5 38.5t-25 33t-58 21t-97 8.5l4 14h488l-4 -14q-49 0 -83.5 -3t-63 -14.5t-46.5 -21.5t-39 -36t-34 -46.5t-39 -63.5q-45 -77 -97 -151l156 -195q59 -75 101.5 -101t107.5 -26l-4 -14h-529l-71 88q-176 -113 -424 -113q-215 0 -350.5 75.5 t-135.5 207.5zM348 283q0 -126 72 -199.5t207 -73.5q145 0 286 92l-403 502q-66 -46 -114 -129t-48 -192zM670 1049q0 -50 21.5 -98.5t76.5 -116.5l53 -68q103 63 171.5 156t68.5 190q0 75 -42.5 119.5t-125.5 44.5q-105 0 -164 -67t-59 -160z" />
<glyph unicode="'" horiz-adv-x="436" d="M205 1104q0 80 46 133t126 53q65 0 101 -34t36 -82q0 -45 -34.5 -105.5t-101 -163t-112.5 -194.5h-16q-4 94 -24.5 226t-20.5 167z" />
<glyph unicode="(" horiz-adv-x="727" d="M53 397q0 106 29.5 206.5t76.5 180.5t117 159t137 136.5t151.5 117.5t147.5 98.5t137 83.5t107 67l5 -8q-83 -52 -162.5 -123.5t-164 -180.5t-147 -235t-103 -294t-40.5 -349q0 -234 58.5 -389t140.5 -232l-8 -8q-27 27 -92 85.5t-108.5 99t-101.5 110.5t-93.5 134.5 t-61 154.5t-25.5 186z" />
<glyph unicode=")" horiz-adv-x="727" d="M-223 -365q82 52 162 123.5t164 180.5t147 235t103 294t40 349q0 234 -58 389t-140 232l8 8q27 -27 92 -85.5t108 -99t101 -110.5t93.5 -134.5t61 -154.5t25.5 -186q0 -106 -29.5 -206.5t-76.5 -180.5t-117 -159t-137 -136.5t-151.5 -117.5t-147.5 -98.5t-137 -83.5 t-107 -67z" />
<glyph unicode="*" horiz-adv-x="882" d="M166 737q-13 40 5.5 79t61.5 61q23 12 53 14.5t90 6t124 13.5l2 -8q-51 -48 -95.5 -97.5t-67.5 -73t-46 -36.5q-39 -21 -75.5 -10t-51.5 51zM221 1031.5q-2 36.5 31 78.5q33 41 74 52t73 -11q18 -12 29.5 -35t33 -72.5t50.5 -97.5l-6 -10q-59 11 -117 15t-86.5 7 t-46.5 15q-33 22 -35 58.5zM365 629q0 30 14.5 55.5t58 84t82.5 122.5h10q9 -65 28.5 -132t19.5 -89q0 -50 -38.5 -84.5t-93.5 -34.5q-39 0 -60 21.5t-21 56.5zM492 1180q0 48 36 83t90 35q41 0 64 -21.5t23 -55.5q0 -30 -15.5 -56t-59.5 -84.5t-83 -122.5h-10 q-9 64 -27 131.5t-18 90.5zM557 903l6 8q59 -10 117 -13t86.5 -6t46.5 -15q33 -22 33 -61t-33 -79t-73 -51t-70 10q-19 13 -31 36.5t-33 73t-49 97.5zM567 946q49 47 93.5 97t67 73t46.5 35q41 22 77.5 11t49.5 -52t-5 -79t-60 -58q-23 -12 -53 -15t-90 -6.5t-124 -13.5z " />
<glyph unicode="+" horiz-adv-x="1052" d="M68 494l4 18h446l103 446h18l-102 -446h446l-4 -18h-447l-102 -447h-18l102 447h-446z" />
<glyph unicode="," horiz-adv-x="548" d="M-88 -285q104 36 200.5 118.5t135.5 184.5q-37 -16 -74 -16q-73 0 -117.5 48.5t-44.5 113.5q0 72 53.5 123t133.5 51q82 0 131 -53.5t49 -130.5q0 -83 -58.5 -170.5t-166 -162t-240.5 -114.5z" />
<glyph unicode="-" horiz-adv-x="776" d="M100 442l19 84h540l-18 -84h-541z" />
<glyph unicode="." horiz-adv-x="530" d="M12 160q0 74 52 126t126 52t126.5 -52.5t52.5 -125.5t-52.5 -125.5t-126.5 -52.5t-126 52t-52 126z" />
<glyph unicode="/" horiz-adv-x="901" d="M-145 -326l1189 1760l17 -9l-1192 -1759z" />
<glyph unicode="0" horiz-adv-x="1357" d="M111 487q0 157 53.5 302.5t146 256.5t229 177.5t291.5 66.5q222 0 347 -133t125 -377q0 -157 -53.5 -303.5t-146.5 -257.5t-228.5 -177.5t-290.5 -66.5q-223 0 -348 134t-125 378zM438 240q0 -77 11 -130t40.5 -86.5t77.5 -33.5q71 0 136.5 67.5t113.5 178t84.5 246.5 t55 277.5t18.5 266.5q0 121 -29.5 185.5t-99.5 64.5t-135.5 -67t-114 -176.5t-85 -245t-55 -278t-18.5 -269.5z" />
<glyph unicode="1" horiz-adv-x="888" d="M-45 0l2 12q119 0 186 47.5t97 180.5l174 753q13 59 -1.5 85t-68.5 26h-141l4 10q328 30 604 156l10 -4l-241 -1045q-11 -46 -13 -80.5t6 -57.5t20.5 -37t35.5 -21.5t47 -10t59 -2.5l-2 -12h-778z" />
<glyph unicode="2" horiz-adv-x="1259" d="M16 0q4 119 42 197t128 155q55 47 138.5 101.5t154.5 96t147.5 97.5t130 110.5t88 131t34.5 162.5q0 107 -51 165t-154 58q-94 0 -166.5 -45t-114.5 -115q58 -14 95.5 -62t37.5 -112q0 -75 -50 -126.5t-122 -51.5q-75 0 -122.5 55t-47.5 127q0 62 38.5 122.5t108 111 t178 81.5t236.5 31q94 0 177 -17.5t153 -53t111 -99t41 -147.5q0 -70 -30 -126t-80.5 -93.5t-122 -71.5t-150 -58t-169 -55t-174 -61.5t-170.5 -78.5t-153 -105q-53 -48 -90 -107q113 158 361 158q88 0 224 -26.5t201 -26.5q117 0 184 56.5t70 192.5h15q1 -61 -8.5 -134 t-36 -156t-66.5 -150t-106 -111.5t-148 -44.5q-71 0 -128.5 33.5t-98 81t-79 95t-90 81t-112.5 33.5q-76 0 -131.5 -45.5t-80 -111.5t-23.5 -142h-19z" />
<glyph unicode="3" horiz-adv-x="1265" d="M25 252q0 79 51 134.5t125 55.5q71 0 118.5 -51t47.5 -125q0 -68 -39.5 -117t-100.5 -61q57 -90 195 -90q82 0 148.5 32t108 86t63.5 122.5t22 144.5q0 124 -66 189t-211 65q-58 0 -100.5 -11.5t-44.5 -11.5q-11 0 -21 8t-10 19q0 13 13.5 25t31.5 12q9 0 22.5 -6 t42.5 -12.5t77 -6.5q78 0 142.5 22.5t107 60.5t71.5 89t42 105t13 112q0 226 -206 226q-144 0 -230 -105q52 -18 84.5 -63.5t32.5 -104.5q0 -74 -47.5 -123t-120.5 -49q-74 0 -119 51t-45 119q0 83 68.5 151t191 107t273.5 39q219 0 351 -82.5t132 -222.5q0 -86 -51.5 -152 t-141.5 -105t-202 -58t-242 -19h-20l-2 -10h20q152 0 268 -31.5t187 -102t71 -173.5q0 -88 -51.5 -158t-139 -113t-196 -65.5t-229.5 -22.5q-238 0 -361.5 79.5t-123.5 197.5z" />
<glyph unicode="4" horiz-adv-x="1273" d="M-16 338l211 151q143 103 241.5 249t98.5 294q0 81 -30 148.5t-77 109.5q94 4 183 -8t166 -39.5t124 -79t47 -119.5q0 -58 -35 -113t-90 -97.5t-134 -89.5t-153.5 -84.5t-164 -86.5t-150.5 -90l-203 -137h627l41 178l406 307h10l-113 -485q59 1 97.5 7t55.5 12t25 6 q14 0 22.5 -8t8.5 -19q0 -16 -15 -26.5t-30 -10.5q-7 0 -23 5.5t-52.5 10.5t-92.5 5l-24 -107q-11 -46 -13 -80.5t6 -57.5t20.5 -37t35.5 -21.5t47 -10t59 -2.5l-2 -12h-778l2 12q119 0 185 47.5t98 180.5l20 90h-655z" />
<glyph unicode="5" horiz-adv-x="1234" d="M14 258q0 78 48 131t126 53q76 0 122 -50t46 -124q0 -71 -41 -121t-104 -59q54 -92 178 -92q90 0 162 43t114.5 112.5t64.5 149t22 160.5q0 262 -234 262q-71 0 -146 -22.5t-128 -55.5q-27 -70 -64 -70q-24 0 -24 23q0 35 73 59l195 609q423 -27 599 -8.5t249 92.5 q2 -25 2 -78q0 -77 -24 -138t-62.5 -98t-90 -61t-101.5 -33.5t-103 -9.5q-118 0 -218.5 49t-271.5 170l-157 -487q185 96 383 96q97 0 183 -22t155 -64.5t109 -113t40 -161.5q0 -132 -85.5 -229.5t-226.5 -146t-317 -48.5q-228 0 -350.5 80t-122.5 203z" />
<glyph unicode="6" horiz-adv-x="1333" d="M102 467q0 126 36 247.5t105.5 225t165 182t222 123.5t268.5 45q197 0 300.5 -79t103.5 -199q0 -79 -45.5 -131t-122.5 -52q-75 0 -123.5 49t-48.5 123q0 64 37 112.5t96 60.5q-29 100 -138 100q-111 0 -214 -100t-175.5 -260.5t-107.5 -352.5q50 109 145 178.5t240 69.5 q163 0 269 -90t106 -246q0 -98 -44.5 -187.5t-123.5 -159t-197.5 -110.5t-257.5 -41q-252 0 -374 132t-122 360zM401 229q0 -239 160 -239q68 0 126.5 44t96.5 110.5t65 148t38.5 154.5t11.5 131q0 190 -143 190q-96 0 -178.5 -77.5t-129.5 -201.5t-47 -260z" />
<glyph unicode="7" horiz-adv-x="1083" d="M127 715l127 551h20l-67 -351h4q19 57 34 95.5t37 86.5t45 79t52 59t65 41.5t78 13.5q57 0 108.5 -27t90.5 -66t77 -78t83.5 -66t93.5 -27q53 0 98 27.5t72 68t42.5 78t18.5 66.5h21q-7 -59 -40 -125t-66 -110.5t-97.5 -124.5t-95.5 -122q-262 -349 -383 -784h-350 q46 138 134 267.5t210.5 253.5t328.5 304q12 10 46 39.5t46.5 40.5t39.5 35t40.5 37.5t33.5 33t35.5 37t29.5 35.5l-6 4q-44 -49 -71.5 -75.5t-69.5 -57.5t-87.5 -45t-99.5 -14q-47 0 -187.5 21.5t-216.5 21.5q-103 0 -162 -44.5t-96 -178.5h-16z" />
<glyph unicode="8" horiz-adv-x="1376" d="M45 285q0 48 16.5 94.5t59 95.5t106.5 87.5t167 66t233 35.5q-396 28 -396 264q0 70 35.5 133t106.5 115t191 83t274 31q243 0 379.5 -74.5t136.5 -207.5q0 -138 -141.5 -233.5t-395.5 -110.5q221 -13 323.5 -90.5t102.5 -200.5q0 -53 -17 -104.5t-62.5 -106t-115 -95 t-184.5 -66.5t-262 -26q-119 0 -215 17t-159 46t-105 69t-60 84t-18 94zM406 190q0 -200 155 -200q59 0 111 30t89.5 79t65 111t41 126.5t13.5 124.5q0 196 -154 196q-75 0 -138.5 -46t-102 -117t-59.5 -150.5t-21 -153.5zM590 856q0 -184 143 -184q58 0 105 31t75.5 77.5 t47.5 105t26.5 110t7.5 96.5q0 184 -139 184q-54 0 -100 -29t-76 -75t-51 -103t-30 -111t-9 -102z" />
<glyph unicode="9" horiz-adv-x="1333" d="M82 252q0 80 48.5 132t123.5 52q74 0 121 -49t47 -121q0 -67 -39.5 -116t-99.5 -60q50 -98 174 -98q348 0 477 741q-110 -254 -387 -254q-163 0 -270 84.5t-107 239.5q0 95 42.5 182.5t119 155.5t194 108.5t256.5 40.5q256 0 380 -131t124 -356q0 -121 -34 -240.5 t-102 -225t-161 -186.5t-221 -128.5t-272 -47.5q-195 0 -304.5 80t-109.5 197zM500 745q0 -65 13.5 -111t37 -69t48.5 -33t54 -10q123 0 219.5 140.5t96.5 357.5q0 256 -156 256q-58 0 -110 -35t-88 -91.5t-63 -127t-39.5 -142t-12.5 -135.5z" />
<glyph unicode=":" horiz-adv-x="569" d="M25 160q0 74 52.5 126t125.5 52t125.5 -52t52.5 -126t-52.5 -126t-125.5 -52t-125.5 52t-52.5 126zM141 668q0 74 52.5 126t125.5 52q74 0 126.5 -52.5t52.5 -125.5q0 -74 -53 -126.5t-126 -52.5t-125.5 52.5t-52.5 126.5z" />
<glyph unicode=";" horiz-adv-x="587" d="M-94 -285q104 36 200.5 118.5t135.5 184.5q-37 -16 -74 -16q-73 0 -117.5 48.5t-44.5 113.5q0 72 53.5 123t133.5 51q82 0 131 -53.5t49 -130.5q0 -83 -58.5 -170.5t-166 -162t-240.5 -114.5zM174 668q0 74 52 126t126 52t126 -52t52 -126t-52.5 -126.5t-125.5 -52.5 t-125.5 52.5t-52.5 126.5z" />
<glyph unicode="&#x3c;" horiz-adv-x="956" d="M55 496l2 12l889 407l-4 -22l-858 -393l678 -389l-6 -23z" />
<glyph unicode="=" horiz-adv-x="1179" d="M72 268l4 19h911l-4 -19h-911zM176 719l4 18h912l-5 -18h-911z" />
<glyph unicode="&#x3e;" horiz-adv-x="956" d="M4 88l4 23l858 393l-678 389l7 22l700 -407l-2 -12z" />
<glyph unicode="?" horiz-adv-x="1189" d="M176 985q0 124 145.5 214.5t372.5 90.5q238 0 380.5 -101t142.5 -245q0 -59 -26 -107t-72.5 -79.5t-100 -54.5t-120.5 -38t-122 -24.5t-115.5 -18.5t-89.5 -16l-53 -186h-12l37 196q338 94 338 383q0 55 -13 101.5t-40.5 86.5t-77 62.5t-117.5 22.5q-84 0 -148.5 -32.5 t-103.5 -86.5q54 -14 88.5 -61.5t34.5 -110.5q0 -74 -47.5 -125t-116.5 -51q-73 0 -118.5 55.5t-45.5 124.5zM283 160q0 74 52.5 126t125.5 52t125.5 -52t52.5 -126t-52.5 -126t-125.5 -52t-125.5 52t-52.5 126z" />
<glyph unicode="@" horiz-adv-x="1636" d="M72 373q0 171 75 327t195 264t273.5 172t308.5 64q135 0 251 -49.5t195.5 -134.5t124.5 -200t45 -245q0 -202 -103 -334.5t-288 -132.5q-95 0 -163 37.5t-85 106.5q-146 -146 -293 -146q-109 0 -166 68t-57 178q0 86 36.5 170.5t99 152t156.5 109t200 41.5q118 0 163 -57 l260 51l9 -10l-146 -455q-28 -95 -28 -141q0 -39 16 -59.5t57 -20.5q52 0 105.5 32.5t97.5 89t72 142t28 182.5q0 121 -43 229.5t-118.5 189t-186.5 128t-239 47.5q-150 0 -289.5 -63.5t-243 -171t-165.5 -256.5t-62 -311q0 -169 63.5 -305t189 -218t292.5 -82 q117 0 238 40.5t224 113.5l7 -12q-212 -164 -476 -164q-177 0 -321 80t-226.5 225.5t-82.5 327.5zM657 317q0 -58 22.5 -96.5t70.5 -38.5q64 0 149 82q-4 20 -4 41q0 44 25 127l100 324q-26 39 -82 39q-61 0 -116 -53t-89.5 -130t-55 -156.5t-20.5 -138.5z" />
<glyph unicode="A" d="M-209 0l2 12q49 0 94.5 15t88.5 47t79 66t78 89t72.5 97.5t75.5 109.5q7 10 10 15l557 827h14l258 -1002q14 -54 28.5 -94.5t38.5 -82.5t58.5 -64.5t77.5 -22.5l-2 -12h-729l2 12q73 0 118 40t54 98q4 24 4 49q0 37 -8 77l-31 132h-446l-6 -9q-45 -61 -67 -127 q-19 -55 -19 -105q1 -9 1 -19q4 -58 51.5 -97t135.5 -39l-2 -12h-588zM297 428h428l-111 467z" />
<glyph unicode="B" horiz-adv-x="1458" d="M-61 0l2 12q96 0 140 42t73 167l190 823q15 68 15 111q0 37 -11 57q-24 42 -121 41l4 13h713q498 0 498 -267q0 -55 -21 -104t-68.5 -92t-118 -74t-175 -49t-234.5 -18l-2 -9q272 0 394 -69.5t122 -202.5q0 -77 -38.5 -144t-113.5 -121t-200.5 -85t-286.5 -31h-761z M461 14h147q73 0 134 24t102 63.5t70 92t42 108t13 112.5q0 233 -226 233h-137zM610 662h88q95 0 167.5 29.5t116 81.5t65.5 118t22 143q0 217 -178 217h-146z" />
<glyph unicode="C" horiz-adv-x="1449" d="M94 504q0 165 73 311.5t197 250.5t295 164t361 60q56 0 127.5 -6t120.5 -11q33 -3 71 -3h41q62 2 117 16l-65 -446l-11 -2q-39 235 -135.5 337.5t-245.5 102.5q-101 0 -188 -43t-148.5 -116t-109 -163.5t-75.5 -191t-42 -193t-14 -174.5q0 -65 9 -122.5t30 -111t53 -91.5 t82 -61t113 -23q157 0 318 131.5t296 343.5l6 -2l-166 -424q-230 -62 -463 -62q-323 0 -485 142t-162 387z" />
<glyph unicode="D" horiz-adv-x="1619" d="M-61 0l2 12q96 0 140 42t73 167l190 823q15 68 15 111q0 37 -11 57q-24 42 -121 41l4 13h717q290 0 459.5 -136t169.5 -389q0 -156 -66.5 -292t-185.5 -235.5t-292.5 -156.5t-377.5 -57h-716zM461 14h145q109 0 201 37.5t156 102t112.5 146t77 174t42 180t13.5 171.5 q0 89 -16.5 163t-51.5 134.5t-98 94.5t-149 34h-148z" />
<glyph unicode="E" horiz-adv-x="1335" d="M-61 0l2 12q96 0 140 42t73 167l190 823q15 68 15 111q0 37 -11 57q-24 42 -121 41l4 13h1131l-70 -432l-8 -3q0 91 -22 165.5t-67 132.5t-122 90t-180 32h-148l-141 -612h64q77 0 147 26t123 71.5t93 98.5t69 115h8l-145 -633h-9q-2 61 -17.5 113.5t-48 97.5t-90 71 t-134.5 26h-64l-139 -611h157q360 0 599 451l8 -2l-146 -463h-1140z" />
<glyph unicode="F" horiz-adv-x="1259" d="M-61 0l2 12q96 0 140 42t73 167l190 823q15 68 15 111q0 37 -11 57q-24 42 -121 41l4 13h1121l-70 -432l-8 -3q0 186 -100 303t-291 117h-138l-145 -633h53q77 0 146.5 26t122.5 72t93 99t70 115h9l-148 -633h-8q-1 61 -16.5 113.5t-47.5 97t-90 70.5t-135 26h-53 l-84 -362q-13 -57 -13 -98.5t10.5 -67t33.5 -40t51.5 -19.5t69.5 -5l-2 -12h-723z" />
<glyph unicode="G" horiz-adv-x="1628" d="M92 496q0 142 54 269.5t146.5 222t213.5 163.5t258 104t276 35q52 0 130 -6t136 -11q38 -3 82 -3h46q70 3 125 16l-62 -426l-10 -2q-13 112 -53 195t-97.5 130.5t-123 70t-140.5 22.5q-102 0 -192.5 -41t-156 -110.5t-118 -158.5t-84.5 -188.5t-48.5 -196.5t-16.5 -186 q0 -84 15.5 -153.5t49.5 -128.5t96 -92t148 -33q120 0 248 57l78 334q15 65 15 109q0 42 -13 66q-28 48 -129 48l2 12h682l-2 -12q-96 0 -139 -42t-72 -167l-76 -330q-334 -88 -598 -88q-339 0 -504.5 138t-165.5 383z" />
<glyph unicode="H" horiz-adv-x="1699" d="M-61 0l2 12q96 0 140 42t73 167l190 823q15 68 15 111q0 37 -11 57q-24 42 -121 41l4 13h682l-4 -13q-96 0 -139 -42t-72 -167l-92 -397h549l92 397q15 68 15 111q0 37 -11 57q-24 42 -121 41l5 13h682l-5 -13q-96 0 -138.5 -42t-71.5 -167l-191 -823q-15 -69 -15 -112 q0 -37 10 -55q24 -42 120 -42l-2 -12h-682l2 12q96 0 140 42t73 167l94 408h-549l-94 -408q-15 -69 -15 -112q1 -37 11 -55q24 -42 119 -42l-2 -12h-682z" />
<glyph unicode="I" horiz-adv-x="796" d="M-61 0l2 12q96 0 140 42t73 167l190 823q15 68 15 111q0 37 -11 57q-24 42 -121 41l4 13h682l-4 -13q-96 0 -139 -42t-72 -167l-190 -823q-15 -69 -15 -112q1 -37 11 -55q24 -42 119 -42l-2 -12h-682z" />
<glyph unicode="J" horiz-adv-x="778" d="M-182 -332q54 25 95.5 52.5t70.5 59t48.5 58.5t34 65.5t22 65t17.5 70.5l234 1005q15 68 15 111q0 37 -11 57q-24 41 -121 41l4 13h682l-4 -13q-96 0 -140 -42t-73 -167l-217 -946q-19 -83 -83 -156t-157 -126.5t-196 -92.5t-217 -65z" />
<glyph unicode="K" horiz-adv-x="1515" d="M-61 0l2 12q96 0 140 42t73 167l190 823q15 68 15 111q0 37 -11 57q-24 42 -121 41l4 13h682l-4 -13q-96 0 -139 -42t-72 -167l-120 -518l399 320q278 223 278 332q0 75 -135 75l4 13h584l-4 -13q-79 0 -162 -36t-188 -107q-45 -32 -99.5 -72.5t-129.5 -97.5t-119 -90 l-17 -14l268 -646q39 -93 80 -135.5t95 -42.5l-2 -12h-476l-243 612l-138 -110l-65 -281q-15 -69 -15 -112q1 -37 11 -55q24 -42 119 -42l-2 -12h-682z" />
<glyph unicode="L" horiz-adv-x="1257" d="M-61 0l2 12q96 0 140 42t73 167l190 823q15 68 15 111q0 37 -11 57q-24 42 -121 41l4 13h723l-4 -13q-106 0 -166 -46t-92 -183l-233 -1010h125q101 0 196.5 37t172 100.5t136.5 143t101 170.5l8 -2l-139 -463h-1120z" />
<glyph unicode="M" horiz-adv-x="1933" d="M-135 0l2 12q155 0 244 104t176 382l123 395q28 93 36 155q3 21 3 40q1 38 -9 70q-14 48 -61.5 71.5t-128.5 23.5l4 13h532l211 -842l557 842h459l-4 -13q-100 0 -149 -66t-74 -202l-125 -698q-15 -81 -15 -138v-16q2 -61 35 -91t103 -30l-2 -12h-703l2 12 q98 0 148.5 61.5t73.5 192.5l137 791l-690 -1041h-9l-266 1020l-170 -538q-36 -114 -53 -192.5t-18 -137.5v-5q0 -55 20 -87q21 -33 60.5 -48.5t103.5 -15.5l-2 -12h-551z" />
<glyph unicode="N" horiz-adv-x="1495" d="M-106 0l2 12q86 0 143.5 23t100 81.5t70 138t58.5 212.5l101 436q24 106 24 180v11q-2 78 -48.5 118.5t-141.5 40.5l4 13h403l594 -815l82 348q20 89 30 149q10 62 12 116q0 7 1 13q1 45 -9 74q-10 33 -35 57.5t-64 34.5t-97 10l4 13h553l-4 -13q-69 0 -119.5 -16.5 t-87.5 -47t-66 -88t-51 -126.5t-46 -176l-189 -815l-10 -2l-707 970l-112 -485q-20 -89 -30.5 -149.5t-12.5 -115.5v-17q0 -43 8 -71q10 -33 34.5 -57.5t63.5 -34.5t97 -10l-3 -12h-552z" />
<glyph unicode="O" horiz-adv-x="1624" d="M96 522q0 156 70.5 299t188 245.5t277.5 163t333 60.5q181 0 320.5 -64.5t218.5 -189.5t79 -293q0 -156 -70 -299t-187.5 -245.5t-277.5 -163t-333 -60.5q-181 0 -320.5 64.5t-219 189.5t-79.5 293zM453 352q0 -175 53 -268.5t174 -93.5q111 0 214 81t175.5 211t116 297 t43.5 334q0 176 -54 269.5t-174 93.5q-113 0 -216.5 -82.5t-175 -213.5t-114 -297t-42.5 -331z" />
<glyph unicode="P" horiz-adv-x="1368" d="M-61 0l2 12q96 0 140 42t73 167l190 823q15 68 15 111q0 37 -11 57q-24 42 -121 41l4 13h713q239 0 359 -87.5t120 -232.5q0 -63 -21 -121.5t-70.5 -114.5t-123 -97t-185.5 -66t-251 -25h-123l2 13h39q79 0 143 30.5t104 78t67 110t38 123t11 120.5q0 254 -197 254h-111 l-237 -1030q-15 -69 -15 -112q1 -37 11 -55q24 -42 119 -42l-2 -12h-682z" />
<glyph unicode="Q" horiz-adv-x="1624" d="M96 522q0 156 70.5 299t188 245.5t277.5 163t333 60.5q181 0 320.5 -64.5t218.5 -189.5t79 -293q0 -148 -62.5 -284t-169 -236t-252 -165t-306.5 -78l-213 -132q12 2 41 2q71 0 172.5 -31t188.5 -68t198 -68t200 -31q133 0 224 86l6 -6q-31 -49 -52 -79.5t-61 -77 t-77 -73t-90 -47t-109 -20.5q-73 0 -188.5 34.5t-218.5 76t-225 76t-206 34.5q-104 0 -203 -59l-47 -27l-8 12l629 395q-12 -2 -39 -2q-181 0 -320.5 64.5t-219 189.5t-79.5 293zM453 352q0 -175 53 -268.5t174 -93.5q111 0 214 81t175.5 211t116 297t43.5 334 q0 176 -54 269.5t-174 93.5q-113 0 -216.5 -82.5t-175 -213.5t-114 -297t-42.5 -331z" />
<glyph unicode="R" horiz-adv-x="1517" d="M-61 0l2 12q96 0 140 42t73 167l190 823q15 68 15 111q0 37 -11 57q-24 42 -121 41l4 13h723q502 0 502 -301q0 -334 -629 -361l-2 -6h49q46 0 84 -1q56 -2 100.5 -9t73 -16t49.5 -27t32 -36.5t18 -50t10 -62.5t6 -78q5 -80 10 -128q5 -53 12 -83.5t24 -54t45.5 -32 t74.5 -8.5l-2 -12h-487q-14 41 -18.5 108t-4.5 220q0 59 -1.5 93.5t-7.5 68.5t-16 50.5t-29.5 30.5t-45.5 19t-66 6h-141l-86 -375q-15 -69 -15 -112q1 -37 11 -55q24 -42 119 -42l-2 -12h-682zM598 608h147q75 0 136.5 25.5t100.5 66t65.5 94.5t37.5 107t11 107 q0 110 -51 176.5t-168 66.5h-132z" />
<glyph unicode="S" horiz-adv-x="1226" d="M16 29l72 389l10 2q14 -83 33.5 -146t50.5 -118.5t73.5 -91t103 -56t137.5 -20.5q85 0 150 23.5t100.5 62.5t53 83t17.5 91q0 64 -33.5 112t-87 78.5t-118 57.5t-129 58.5t-118 71t-87 106t-33.5 153.5q0 187 145 296t414 109q57 0 125 -5.5t113 -10.5q35 -4 77 -4h25 q58 2 111 14l-78 -420l-8 -2q-20 106 -45 177.5t-66 128t-102 83.5t-146 27q-143 0 -221 -67t-78 -162q0 -59 34.5 -104t89.5 -74.5t121 -57t132.5 -62t121.5 -78.5t89.5 -116t34.5 -166q0 -198 -151.5 -307t-448.5 -109q-230 0 -484 54z" />
<glyph unicode="T" horiz-adv-x="1402" d="M123 803l139 463h1227l-74 -463l-8 -2q-7 77 -18.5 138t-36 121.5t-60.5 100.5t-92.5 65t-130.5 25h-18l-234 -1009q-13 -57 -13 -98.5t10.5 -67t33.5 -40t51.5 -19.5t69.5 -5l-4 -12h-764l4 12q52 0 88.5 9t70.5 33t58.5 70.5t40.5 117.5l233 1009h-18 q-92 0 -173.5 -35.5t-149 -102.5t-120 -141t-104.5 -171z" />
<glyph unicode="U" horiz-adv-x="1466" d="M176 228q-9 38 -8 84q0 58 14 126l131 574q18 73 18 123q1 37 -9 61q-24 58 -117 57l4 13h682l-4 -13q-93 0 -141 -55.5t-78 -185.5l-154 -664q-16 -71 -16 -126q0 -210 231 -210q76 0 145.5 23.5t131.5 71t109.5 127.5t72.5 186l86 379q20 89 30 149q10 62 12 116 q0 7 1 13q1 45 -9 74q-10 33 -35 57.5t-64 34.5t-97 10l4 13h553l-4 -13q-69 0 -119.5 -16.5t-87.5 -47t-66 -88.5t-51 -126.5t-47 -175.5l-88 -379q-105 -445 -583 -445q-118 0 -209.5 27t-154.5 82.5t-83 143.5z" />
<glyph unicode="V" horiz-adv-x="1353" d="M119 1253l2 13h733l-2 -13q-72 0 -118 -40q-45 -41 -54 -99q-4 -26 -4 -54q0 -34 6 -71l131 -614l252 397q139 215 139 350q0 131 -143 131l2 13h547l-2 -13q-88 0 -160.5 -43t-142.5 -127q-68 -79 -224 -321l-506 -774h-16l-237 1001q-30 123 -55 169q-50 95 -148 95z " />
<glyph unicode="W" horiz-adv-x="2043" d="M123 1253l2 13h688l-2 -13q-50 0 -83 -20t-45.5 -52.5t-16.5 -72.5q-1 -11 0 -22q0 -28 6 -56l112 -622l326 524l-8 57q-15 80 -36.5 135t-62 92t-96.5 37l2 13h729l-2 -13q-56 0 -95.5 -25t-56.5 -64q-18 -40 -26 -86q-3 -21 -3 -41q0 -24 5 -48l84 -569l217 352 q137 223 137 352t-145 129l2 13h547l-2 -13q-165 0 -309 -174q-18 -22 -38 -48.5t-34.5 -47t-37 -56t-33 -51.5t-36.5 -59t-34 -55l-484 -774h-14l-164 915l-579 -915h-13l-200 1001q-6 33 -10 51.5t-14.5 55t-24.5 59.5t-34.5 48t-50.5 37.5t-67 12.5z" />
<glyph unicode="X" horiz-adv-x="1480" d="M-178 0l2 12q140 0 358 162q139 103 305 262l136 129l-177 420q-25 59 -48 101.5t-55 83.5t-71.5 62t-85.5 21l4 13h756l-4 -13q-54 0 -90 -21q-34 -20 -48 -52q-13 -30 -13 -65v-5q1 -38 16 -74l113 -274l92 92q194 191 194 305q0 45 -33.5 69.5t-93.5 24.5l4 13h609 l-4 -13q-134 0 -334 -135q-155 -108 -336 -280l-92 -88l196 -471q47 -113 115.5 -190t155.5 -77l-2 -12h-754l2 12q87 0 125 59q19 29 19 68t-19 88l-137 324l-127 -127q-176 -176 -176 -295q0 -56 40 -86.5t109 -30.5l-2 -12h-649z" />
<glyph unicode="Y" d="M131 1253l2 13h711l-2 -13q-92 0 -128 -61q-19 -33 -19 -72q0 -36 16 -78l166 -440h6l213 260q151 187 151 289t-151 102l2 13h530l-2 -13q-142 0 -283 -135q-85 -82 -233 -266l-217 -262l-80 -348q-13 -57 -13 -98.5t10.5 -67t33.5 -40t51.5 -19.5t69.5 -5l-2 -12h-764 l2 12q52 0 88.5 9t70.5 33t58.5 70.5t40.5 117.5l71 309l-200 506q-39 98 -87.5 147t-111.5 49z" />
<glyph unicode="Z" horiz-adv-x="1325" d="M-59 4l1042 1247h-209q-93 0 -186 -39.5t-169 -106t-137.5 -143.5t-105.5 -161l-10 2l145 463h1102l4 -4l-1042 -1248h246q93 0 186 40t169 106.5t137.5 143.5t105.5 161l10 -2l-146 -463h-1140z" />
<glyph unicode="[" horiz-adv-x="700" d="M-68 -344l408 1761h578l-5 -12h-192q-96 0 -117 -88l-360 -1563q-21 -88 75 -88h193l-2 -10h-578z" />
<glyph unicode="\" horiz-adv-x="901" d="M260 1425l16 7l381 -1760l-18 -6z" />
<glyph unicode="]" horiz-adv-x="702" d="M-205 -344l4 12h193q96 0 117 88l360 1563q21 88 -76 88h-192l2 10h577l-407 -1761h-578z" />
<glyph unicode="^" horiz-adv-x="948" d="M123 686l532 614h13l250 -614l-11 -6l-309 344l-469 -344z" />
<glyph unicode="_" horiz-adv-x="1056" d="M-145 -119l4 19h1056l-4 -19h-1056z" />
<glyph unicode="`" horiz-adv-x="747" d="M463.5 1278.5q2.5 48.5 40.5 75.5q38 28 85 14t79 -61q14 -22 30 -58.5t27.5 -69.5t33 -96.5t36.5 -105.5l-4 -4q-60 42 -135.5 89t-108.5 71.5t-53 52.5q-33 44 -30.5 92.5z" />
<glyph unicode="a" horiz-adv-x="1202" d="M35 317q0 84 24.5 165t73 151.5t114.5 124.5t154 85t187 31q142 0 227 -75l295 73l6 -2l-164 -735q-9 -40 3 -61t40 -21q29 0 105 35l-2 -12q-173 -101 -314 -101q-150 0 -157 134q-144 -132 -303 -132q-96 0 -162.5 48t-96.5 123t-30 169zM369 268q0 -88 32 -146.5 t93 -58.5q57 0 127 62l143 633q-10 42 -37 70t-70 28q-63 0 -119.5 -65.5t-92 -160t-56 -192.5t-20.5 -170z" />
<glyph unicode="b" horiz-adv-x="1155" d="M76 298q0 57 16 124l168 721q12 52 14 90v6q0 34 -22 54q-24 22 -76 22l4 12l457 41l-145 -633q150 139 311 139q72 0 126.5 -27t85.5 -74.5t46.5 -105t15.5 -124.5q0 -107 -38 -206.5t-109.5 -180.5t-186.5 -130t-256 -49q-26 0 -51.5 1.5t-62 7t-69 15t-67.5 26.5 t-63 39.5t-51 57t-35 76t-12 98.5zM346 102q-3 -13 -3 -24q0 -28 15 -52q21 -34 78 -34q62 0 115.5 48t87.5 119.5t58.5 156.5t35 157.5t10.5 124.5q0 80 -28 135t-88 55q-66 0 -140 -67z" />
<glyph unicode="c" horiz-adv-x="1019" d="M37 346q0 109 49 208t130 168.5t187 110.5t218 41q162 0 256 -79.5t94 -184.5q0 -73 -44.5 -124.5t-119.5 -51.5q-72 0 -116 47t-44 115q0 62 37.5 108t95.5 56q-27 100 -121 100q-59 0 -109 -37.5t-82.5 -96.5t-55.5 -133t-33 -144.5t-10 -133.5q0 -137 52 -208.5 t152 -71.5q154 0 316 153l8 -8q-213 -203 -469 -203q-99 0 -175.5 30t-122.5 82t-69.5 117t-23.5 140z" />
<glyph unicode="d" horiz-adv-x="1204" d="M35 317q0 84 24.5 165t73 151.5t114.5 124.5t154 85t187 31q121 0 194 -49l74 318q9 38 9 66q-1 42 -19 66q-30 40 -115 40l4 12l498 41l-281 -1233q-9 -40 3 -61t40 -21q29 0 105 35l-2 -12q-173 -101 -314 -101q-150 0 -157 134q-144 -132 -303 -132q-96 0 -162.5 48 t-96.5 123t-30 169zM369 268q0 -88 32 -146.5t93 -58.5q57 0 127 62l145 629q-12 44 -39 73t-70 29q-63 0 -119.5 -65.5t-92 -160t-56 -192.5t-20.5 -170z" />
<glyph unicode="e" horiz-adv-x="1048" d="M35 338q0 105 47.5 203.5t127 171.5t189.5 117t230 44q156 0 265.5 -67t109.5 -172q0 -52 -30 -91.5t-83.5 -62t-115.5 -37.5q-63 -14 -137 -18q-66 -4 -122 -4h-14q-62 0 -123 6q-10 -56 -10 -123q0 -123 56 -195.5t165 -72.5q154 0 317 151l8 -8q-43 -40 -84 -70.5 t-100 -63.5t-133 -51t-156 -18q-103 0 -182.5 29t-127.5 79.5t-72.5 114.5t-24.5 138zM381 442q7 0 13 -1q80 -1 142 23q68 24 106 68t56.5 95.5t18.5 109.5q0 127 -84 127q-59 0 -112.5 -67t-87 -159t-52.5 -196z" />
<glyph unicode="f" horiz-adv-x="741" d="M-332 -156q0 64 42.5 104t101.5 40t95 -41t36 -99q0 -52 -29.5 -90t-69.5 -51q13 -26 47 -26q41 0 73 29.5t44 80.5l244 1032h-168l6 29h170l29 123q39 168 170 271.5t317 103.5q91 0 159.5 -26t104 -67.5t52 -82.5t16.5 -80q0 -68 -46 -113t-108 -45q-63 0 -107 46 t-44 112q0 56 32.5 98.5t84.5 54.5q-30 88 -103 88q-63 0 -105 -61t-65 -158l-61 -264h235l-6 -29h-237l-193 -821q-37 -158 -162 -247t-295 -89q-72 0 -125 16t-81 43t-41 57t-13 62z" />
<glyph unicode="g" horiz-adv-x="1011" d="M-135 -205q0 33 24.5 60t63.5 44t73 26t66 14q-84 38 -84 116q0 73 67.5 133.5t182.5 100.5q-87 32 -135.5 91t-48.5 142q0 144 138.5 248t356.5 104q80 0 152 -16q20 51 46.5 98t61 91t78 70t88.5 26q60 0 100 -41t40 -98t-40.5 -98.5t-95.5 -41.5t-94 40t-39 95 q0 13 4 37q-77 -38 -139 -182q105 -28 165 -92t60 -156q0 -101 -69.5 -182.5t-182.5 -124.5t-243 -43q-111 0 -191 29q-63 -28 -63 -66q0 -25 37 -37.5t95.5 -16.5t129.5 -7t142.5 -14t130 -32t95.5 -67t37 -113q0 -47 -17.5 -88t-58.5 -78t-104.5 -64t-161 -42.5 t-221.5 -15.5q-195 0 -320.5 38t-125.5 113zM20 -190q0 -156 322 -156q86 0 149.5 11.5t94.5 26.5t49 35.5t21 32t3 23.5q0 48 -63 72t-145.5 28t-186.5 16t-162 35q-82 -50 -82 -124zM365 432q0 -166 90 -166q60 0 110 69t75.5 167.5t25.5 197.5q0 164 -88 164 q-61 0 -111.5 -70t-76 -168t-25.5 -194z" />
<glyph unicode="h" horiz-adv-x="1204" d="M16 0l267 1143q12 52 14 90v6q1 34 -21 54q-24 22 -77 22l4 12l456 41l-163 -706q108 99 202.5 155.5t190.5 56.5q103 0 158 -69q35 -44 35 -118q0 -42 -11 -93l-102 -459q-9 -40 3 -61t40 -21t104 35l-2 -12q-173 -101 -313 -101q-100 1 -136 61q-22 36 -22 87 q0 34 10 76l109 465q5 21 5 38q0 60 -62 60q-46 0 -96 -32t-120 -91l-147 -639h-326z" />
<glyph unicode="i" horiz-adv-x="641" d="M53 762l2 12q171 100 314 100q99 0 135 -60q21 -36 22 -87q0 -35 -10 -76l-117 -516q-9 -40 3 -61t40 -21q29 0 105 35l-2 -12q-173 -101 -314 -101q-99 1 -135 61q-21 36 -22 87q0 35 10 76l117 516q9 40 -3 61t-40 21q-29 0 -105 -35zM272 1157q0 77 55 127.5t134 50.5 t133.5 -50.5t54.5 -127.5q0 -78 -54.5 -129t-133.5 -51t-134 51t-55 129z" />
<glyph unicode="j" horiz-adv-x="626" d="M-338 -156q0 64 42 104t101 40t95.5 -41t36.5 -99q0 -53 -29 -90.5t-70 -50.5q13 -26 47 -26q41 0 73 29.5t44 80.5l213 924q9 40 -3 61t-40 21t-104 -35l2 12q171 100 313 100q100 0 135 -60q22 -36 22 -87q0 -34 -10 -76l-151 -649q-37 -158 -162 -247t-295 -89 q-72 0 -125 16t-81 43t-41 57t-13 62zM287 1157q0 77 54.5 127.5t133.5 50.5t134 -50.5t55 -127.5q0 -78 -55 -129t-134 -51t-133.5 51t-54.5 129z" />
<glyph unicode="k" horiz-adv-x="1105" d="M18 0l265 1143q12 52 14 90v6q1 34 -21 54q-24 22 -77 22l4 12l456 41l-221 -954q351 31 436 151q-58 11 -103.5 48.5t-45.5 103.5q0 65 45.5 112.5t110.5 47.5q61 0 109 -43.5t48 -114.5q0 -82 -70.5 -145t-193.5 -105l144 -389q10 -27 40 -27q29 0 105 35l-2 -12 q-173 -101 -311 -101q-120 0 -154 93l-123 338q-30 -5 -37 -5l-92 -401h-326z" />
<glyph unicode="l" horiz-adv-x="632" d="M68 199l219 944q12 52 14 90v6q1 34 -21 54q-24 22 -77 22l4 12l457 41l-281 -1233q-9 -40 3 -61t40 -21t104 35l-2 -12q-173 -101 -313 -101q-99 1 -135 61q-21 36 -22 87q0 34 10 76z" />
<glyph unicode="m" horiz-adv-x="1751" d="M49 0l162 715q9 40 -3 61t-40 21q-29 0 -105 -35l3 12q171 100 309 100q150 0 150 -140q0 -30 -7 -66q98 96 184.5 151t180.5 55q89 0 141 -53q46 -47 46 -137q0 -12 -1 -25q104 101 191 158t182 57q48 0 85.5 -15t65.5 -49q28 -32 34 -86q2 -15 2 -33q0 -43 -11 -97 l-102 -457q-9 -40 3 -61t40 -21t104 35l-2 -12q-173 -101 -309 -101q-100 0 -132 60q-18 34 -19 82q0 37 11 82l107 463q5 20 5 37q0 21 -8 35q-14 26 -52 26q-32 0 -70 -21.5t-58 -39t-69 -62.5l-141 -639h-322l156 664q5 20 5 37q0 21 -8 35q-14 26 -52 26q-31 0 -67 -19 t-61 -39.5t-65 -58.5l-145 -645h-318z" />
<glyph unicode="n" horiz-adv-x="1234" d="M49 0l162 715q9 40 -3 61t-40 21q-29 0 -105 -35l3 12q171 100 313 100q97 0 133 -56q24 -36 23 -90q0 -29 -7 -64q107 98 201.5 154t190.5 56q103 0 158 -69q35 -44 35 -118q0 -42 -11 -93l-103 -459q-9 -40 3 -61t40 -21q29 0 105 35l-2 -12q-173 -101 -314 -101 q-99 1 -135 61q-21 36 -22 87q0 35 10 76l109 465q5 19 5 35q0 22 -9 37q-15 26 -54 26q-32 0 -72 -20.5t-65.5 -40.5t-73.5 -60l-145 -641h-330z" />
<glyph unicode="o" horiz-adv-x="1169" d="M37 348q0 142 84 264t224.5 192t301.5 70q85 0 161.5 -21t141.5 -63.5t103.5 -115.5t38.5 -168q0 -144 -84.5 -266.5t-225.5 -192.5t-303 -70q-122 0 -220.5 40t-160 125.5t-61.5 205.5zM344 166q0 -174 117 -174q55 0 104 38.5t83 101.5t61.5 139t43.5 155t24.5 145.5 t8.5 114.5q0 174 -116 174q-65 0 -121.5 -55t-92.5 -137t-62.5 -179.5t-38 -180.5t-11.5 -142z" />
<glyph unicode="p" horiz-adv-x="1200" d="M-156 -334l2 12q76 0 110 44.5t56 134.5l199 858q9 40 -3 61t-40 21q-29 0 -105 -35l3 12q171 100 313 100q146 0 156 -129q140 129 299 129q142 0 216 -96.5t74 -242.5q0 -142 -67 -268.5t-196 -208t-292 -81.5q-118 0 -192 46l-43 -183q-9 -37 -9 -65q0 -34 13 -56 q23 -41 100 -41l-2 -12h-592zM408 150q-7 -28 -7 -52q0 -35 16 -60q26 -42 85 -42q66 0 123 67t92 164t54.5 194.5t19.5 168.5q0 88 -31.5 143t-91.5 55q-56 0 -125 -57z" />
<glyph unicode="q" horiz-adv-x="1175" d="M35 307q0 109 41 210.5t114 181t185 127.5t243 48q47 0 105.5 -7.5t102.5 -14.5q37 -5 93 -5q13 0 27 1q76 1 166 16l6 -2l-231 -1005q-11 -43 -13.5 -72t3.5 -55t29 -39t63 -13l-4 -12h-592l4 12q79 0 120.5 44.5t63.5 134.5l60 260q-147 -140 -312 -140 q-72 0 -126.5 27t-85.5 74.5t-46.5 105t-15.5 123.5zM369 254q0 -80 28 -135.5t88 -55.5q66 0 140 70l145 629q1 7 1 14q0 30 -19 54q-23 30 -76 30q-62 0 -115.5 -48t-87.5 -119.5t-58.5 -156.5t-35 -157.5t-10.5 -124.5z" />
<glyph unicode="r" horiz-adv-x="954" d="M49 0l162 715q9 40 -3 61t-40 21q-29 0 -105 -35l3 12q171 100 311 100q97 0 130 -59q19 -34 19 -83q0 -36 -10 -79l-24 -108q23 63 53 118t69 104t89 78t104 29q73 0 120.5 -50.5t47.5 -121.5q0 -72 -48.5 -122t-117.5 -50t-117.5 49.5t-48.5 120.5q0 15 4 35 q-83 -45 -149 -211l-123 -524h-326z" />
<glyph unicode="s" horiz-adv-x="929" d="M0 186q0 54 37 96t94 42q55 0 90 -37t35 -92q0 -41 -20 -72.5t-54 -46.5q42 -86 158 -86q88 0 150.5 43.5t62.5 109.5q0 39 -24.5 68.5t-63.5 48t-86.5 35.5t-95 38t-86.5 47.5t-63.5 72t-24.5 104.5q0 139 120 228t301 89q149 0 245.5 -59.5t96.5 -144.5 q0 -54 -36.5 -96t-90.5 -42q-52 0 -88 38t-36 92q0 38 19.5 68.5t53.5 43.5q-43 88 -147 88q-79 0 -140 -41t-61 -106q0 -38 25 -66.5t64.5 -47t88 -35t96.5 -37t87.5 -47t64.5 -71.5t25 -104q0 -97 -63.5 -173.5t-165.5 -116.5t-222 -40q-151 0 -248.5 61.5t-97.5 147.5z " />
<glyph unicode="t" horiz-adv-x="755" d="M102 262l129 561h-125l7 29h125l51 221l340 64l-66 -285h250l-6 -29h-252l-141 -616q-9 -38 -9 -65q1 -26 9 -42q18 -32 67 -32q95 0 221 114l9 -8q-92 -86 -190 -141.5t-214 -55.5q-125 1 -181 73q-36 46 -36 118q0 42 12 94z" />
<glyph unicode="u" horiz-adv-x="1232" d="M47 762l2 12q171 100 313 100q100 0 136 -60q21 -36 22 -87q0 -35 -10 -76l-100 -430q-7 -31 -7 -55q1 -32 13 -52q22 -34 71 -34q74 0 172 76l160 696h326l-162 -717q-9 -40 3 -61t40 -21t104 35l-2 -12q-173 -101 -313 -101q-85 -1 -124 43q-35 39 -35 104q0 8 1 17 q-191 -162 -370 -162q-113 -1 -169 69q-36 44 -36 118q0 42 12 94l101 457q9 40 -3 61t-40 21q-29 0 -105 -35z" />
<glyph unicode="v" horiz-adv-x="991" d="M14 762l2 12q171 100 314 100q68 0 106.5 -28t46.5 -78l92 -580q255 212 277 379q-27 -10 -64 -10q-70 0 -113.5 45.5t-43.5 110.5q0 68 46.5 114.5t119.5 46.5q56 0 93.5 -30t51.5 -69t14 -81q0 -76 -51.5 -166.5t-141.5 -182.5t-199.5 -180t-237.5 -173h-7l-155 768 q-6 37 -45 37q-29 0 -105 -35z" />
<glyph unicode="w" horiz-adv-x="1490" d="M14 762l2 12q171 100 314 100q130 0 143 -106l80 -590q129 104 203 195l-88 479h315l90 -670q258 218 279 385q-27 -10 -64 -10q-70 0 -114 45.5t-44 110.5q0 68 46.5 114.5t119.5 46.5q42 0 74.5 -17t50.5 -45t26.5 -57.5t8.5 -60.5q0 -100 -90 -226.5t-226 -243.5 t-309 -232h-6l-65 352q-156 -156 -451 -352h-6l-139 768q-6 37 -45 37q-29 0 -105 -35z" />
<glyph unicode="x" horiz-adv-x="1071" d="M-53 131q0 70 46.5 116t108.5 46q66 0 113 -50q43 -46 43 -125v-14q78 35 145 209l-161 447q-13 37 -56 37q-28 0 -104 -35l2 12q171 100 313 100q64 0 96.5 -26.5t51.5 -79.5l76 -215q111 324 297 324q70 0 117.5 -41.5t47.5 -112.5q0 -70 -46.5 -116t-108.5 -46 q-64 0 -112 51q-44 47 -44 125v13q-79 -39 -145 -209l164 -449q13 -37 55 -37q28 0 104 35l-2 -12q-173 -101 -313 -101q-64 0 -96 27.5t-52 79.5l-79 219q-52 -151 -122.5 -238.5t-172.5 -87.5q-70 0 -118 41.5t-48 112.5z" />
<glyph unicode="y" horiz-adv-x="991" d="M-285 -268q0 54 37.5 84t100.5 41.5t131.5 18.5t144.5 26.5t125 54.5l63 45l-153 758q-6 37 -45 37q-29 0 -105 -35l2 12q171 100 314 100q68 0 106.5 -28t46.5 -78l92 -580q255 212 277 379q-27 -10 -64 -10q-70 0 -113.5 45.5t-43.5 110.5q0 68 46.5 114.5t119.5 46.5 q56 0 93.5 -30t51.5 -69t14 -81q0 -73 -48.5 -161t-134 -177.5t-190 -175t-227.5 -168.5l-53 -37q-29 -20 -72 -64.5t-85 -87.5t-92 -85t-109 -68t-119 -26q-51 0 -81 25t-30 63z" />
<glyph unicode="z" horiz-adv-x="1015" d="M-31 94q0 75 69.5 126.5t194.5 51.5h15l452 306q-36 3 -170 20.5t-208 17.5q-98 0 -150.5 -30t-81.5 -115l-8 2q8 46 21 93t38 105t56 101t79.5 72.5t104.5 29.5q43 0 75.5 -16.5t56.5 -46t46 -62t55 -72.5t72 -69q-3 20 -3 40q-1 78 45 140q56 78 153 78 q62 0 93.5 -30.5t31.5 -79.5q0 -75 -70 -126.5t-193 -51.5h-16l-453 -308q29 -2 153 -18t212 -16q47 0 79.5 4.5t67.5 18.5t59.5 44t39.5 76l8 -2q-8 -46 -21 -93.5t-38 -105t-56 -101t-79.5 -73t-104.5 -29.5q-52 0 -92 27.5t-63.5 64t-64.5 88.5t-87 87q2 -18 2 -35 q0 -81 -43 -145q-52 -78 -152 -78q-62 0 -93.5 30.5t-31.5 79.5z" />
<glyph unicode="{" horiz-adv-x="757" d="M-27 530l2 13q161 0 258.5 72t137.5 245q18 76 22.5 181.5t12.5 142.5q16 73 60.5 122t118 76t161 37.5t208.5 10.5l-2 -9q-78 -2 -129 -18t-89 -55.5t-55 -109t-17 -175.5q0 -23 1 -95t1 -83q0 -78 -23.5 -135.5t-67 -96t-113.5 -62.5t-155.5 -35t-200.5 -13l-2 -15 q228 -16 336.5 -57t108.5 -133q0 -48 -31 -122.5t-68.5 -141.5t-68.5 -148t-31 -141q0 -63 42.5 -96.5t154.5 -36.5l-2 -8q-86 0 -151 5t-122.5 18.5t-94 35.5t-57 57t-20.5 82q0 48 22 104.5t48 103t48 115.5t22 138q0 121 -66 174t-199 53z" />
<glyph unicode="|" horiz-adv-x="280" d="M-68 -344l408 1761h18l-407 -1761h-19z" />
<glyph unicode="}" horiz-adv-x="753" d="M-188 -356l2 8q78 2 129 18t89 55.5t55 109t17 175.5q0 24 -1 95t-1 83q0 78 23.5 135.5t67 96t113.5 62.5t155.5 35t200.5 13l2 15q-228 16 -336.5 57t-108.5 133q0 48 31 122.5t68.5 141.5t68.5 148t31 141q0 63 -42.5 96.5t-154.5 36.5l2 9q86 0 151.5 -5.5t122.5 -19 t93.5 -35.5t57 -57t20.5 -82q0 -48 -22 -104.5t-48 -103t-48 -115.5t-22 -138q0 -121 66 -174t199 -53l-2 -13q-161 0 -258.5 -72t-137.5 -245q-18 -76 -22.5 -181.5t-12.5 -142.5q-16 -73 -60.5 -122t-118 -75.5t-161 -37t-208.5 -10.5z" />
<glyph unicode="~" horiz-adv-x="950" d="M92 365q39 89 65 140t60.5 97.5t72.5 66t87 19.5q57 0 163.5 -42t161.5 -42q103 0 160 103l8 -2q-68 -158 -102 -210q-78 -111 -180 -114q-57 0 -165 42t-163 42q-100 0 -160 -103z" />
<glyph unicode="&#xa1;" horiz-adv-x="548" d="M-109 -305q0 44 20.5 88t57 97t79 116.5t96.5 172.5t98 239h14q-17 -204 -8 -300t28 -194.5t19 -138.5q0 -106 -68 -172t-161 -66q-73 0 -124 41.5t-51 116.5zM131 668q0 74 52.5 126t125.5 52t125.5 -52t52.5 -126t-52.5 -126.5t-125.5 -52.5t-125.5 52.5t-52.5 126.5z " />
<glyph unicode="&#xa2;" horiz-adv-x="1062" d="M111 580q0 150 88.5 276t230 193t295.5 57l41 174h16l-41 -174q142 -13 222.5 -89.5t80.5 -172.5q0 -73 -44 -124.5t-119 -51.5q-72 0 -116 46.5t-44 114.5q0 62 37.5 108t95.5 56q-28 101 -121 101q-73 0 -132 -56.5t-92 -142.5t-50 -176t-17 -170q0 -137 52.5 -209 t152.5 -72q153 0 316 154l8 -8q-201 -192 -441 -203l-45 -197h-16l45 197q-103 0 -182.5 30t-126.5 82t-70.5 117t-23.5 140z" />
<glyph unicode="&#xa3;" horiz-adv-x="1343" d="M35 131q0 87 79 134.5t218 47.5q50 0 112 -6q-4 55 -24.5 111.5t-55.5 127t-51 111.5h-209l5 19h198q-31 88 -31 168q0 137 83.5 240t219.5 154.5t302 51.5q100 0 180.5 -20.5t131 -53t84 -76.5t47 -87t13.5 -88q0 -85 -47 -139t-119 -54t-122 51t-50 125 q0 67 42.5 116.5t105.5 57.5q-49 150 -203 150q-67 0 -118.5 -26t-88 -77t-61.5 -115t-45 -153q-12 -51 -43 -225h319l-4 -19h-317q-24 -142 -45 -239q-17 -77 -29 -117q34 -3 124 -12.5t148 -14t101 -4.5q139 0 212.5 62.5t114.5 218.5h13q-7 -52 -14.5 -93.5t-22.5 -104.5 t-32.5 -111t-45.5 -100.5t-61.5 -87t-81.5 -57t-103 -22.5q-53 0 -95 19.5t-72.5 52t-58 67t-65 73t-79.5 61.5q-89 -262 -289 -262q-84 0 -127 40.5t-43 104.5zM53 131q0 -56 37 -93.5t115 -37.5q61 0 108 25.5t74.5 67t42 86.5t16.5 91q-73 25 -143 25t-124.5 -16t-90 -54 t-35.5 -94z" />
<glyph unicode="&#xa5;" horiz-adv-x="1579" d="M221 1253l2 13h692l-2 -13q-92 0 -128 -61.5t-3 -149.5l160 -428h4l201 248q151 187 151 289t-151 102l2 13h530l-2 -13q-81 0 -151 -36.5t-144 -110.5q-59 -57 -221 -254l-123 -150h250l-4 -18h-262l-66 -80l-41 -180h308l-4 -18h-308l-37 -164q-13 -57 -13 -98.5 t10.5 -67t33.5 -40t51.5 -19.5t69.5 -5l-2 -12h-733l2 12q52 0 88.5 9t70.5 33t58.5 70.5t40.5 117.5l37 164h-299l4 18h299l29 125l-54 135h-213l4 18h203l-141 355q-39 98 -87.5 147t-111.5 49z" />
<glyph unicode="&#xa6;" horiz-adv-x="296" d="M-59 -344l188 819h18l-188 -819h-18zM182 700l166 717h19l-166 -717h-19z" />
<glyph unicode="&#xa7;" horiz-adv-x="1026" d="M2 74q0 53 36 86t87 33q52 0 87.5 -36t35.5 -87q0 -44 -26 -78t-66 -43q50 -84 204 -84q70 0 119 17.5t71.5 45.5t31 53t8.5 50q0 44 -26.5 77.5t-69.5 55t-94.5 40.5t-103 40.5t-94.5 47.5t-69.5 68.5t-26.5 98.5q0 51 21.5 93t67.5 77.5t93.5 61.5t123.5 61 q-75 38 -117.5 92t-42.5 137q0 134 111.5 221.5t312.5 87.5q91 0 160 -19.5t107.5 -51.5t57.5 -68.5t19 -75.5q0 -58 -37 -90.5t-86 -32.5q-52 0 -87.5 36t-35.5 87q0 45 27 79.5t69 43.5q-42 82 -174 82q-109 0 -164 -50t-55 -118q0 -44 26.5 -77t69 -54.5t94 -40.5 t102.5 -41t93.5 -50t69 -73t26.5 -104q0 -88 -64 -149t-228 -136q70 -38 109.5 -90.5t39.5 -132.5q0 -133 -110 -221t-322 -88q-186 0 -283.5 66t-97.5 153zM309 612q0 -44 35.5 -77t80 -50t117 -43.5t115.5 -48.5q4 3 20 13.5t23.5 15.5t20 17t19 22.5t11.5 26t5 32.5 q0 37 -19.5 65.5t-57 49.5t-75 36t-91.5 36t-89 38q-115 -52 -115 -133z" />
<glyph unicode="&#xa8;" horiz-adv-x="1003" d="M436 1153q0 59 41.5 101t102.5 42q60 0 102.5 -42t42.5 -103q0 -60 -42 -102.5t-101 -42.5t-102.5 43t-43.5 104zM829 1153q0 59 41.5 101t102.5 42q60 0 102.5 -42t42.5 -103q0 -60 -42 -102.5t-101 -42.5t-102.5 43t-43.5 104z" />
<glyph unicode="&#xa9;" horiz-adv-x="1505" d="M119 575q0 143 60.5 276t160.5 228.5t234 153t276 57.5q167 0 303 -79.5t212.5 -217t76.5 -303.5q0 -143 -60 -275.5t-159.5 -228.5t-234 -153.5t-277.5 -57.5q-167 0 -303 80t-212.5 217.5t-76.5 302.5zM137 578q0 -160 74.5 -294t207 -212t294.5 -78q186 0 350 93.5 t263 254.5t99 346q0 161 -74.5 295.5t-207 212.5t-295.5 78q-111 0 -217.5 -35.5t-195 -100.5t-156 -150t-105 -191.5t-37.5 -218.5zM340 567q0 123 76 225t203 159t274 57q38 0 105 -5.5t99.5 -6t96.5 9.5l-41 -267l-6 -2q-23 139 -86.5 200.5t-147.5 61.5 q-60 0 -109.5 -29t-82 -77t-56.5 -104t-36.5 -116.5t-18.5 -108.5t-6 -85q0 -95 39.5 -154t120.5 -59q177 0 360 289l4 -4l-104 -258q-138 -35 -262 -35q-201 0 -311.5 81.5t-110.5 227.5z" />
<glyph unicode="&#xaa;" horiz-adv-x="1110" d="M100 434l4 19h883l-4 -19h-883zM190 748q0 108 101 164.5t256 56.5q89 0 164 -23l41 176q19 78 -5.5 126t-103.5 48q-54 0 -99.5 -20.5t-66.5 -50.5q34 -15 54 -48t20 -71q0 -54 -36.5 -88.5t-90.5 -34.5q-58 0 -91.5 38t-33.5 87q0 85 100.5 142t249.5 57 q56 0 109.5 -8.5t105 -29t87 -51t51.5 -77.5t2 -105l-82 -356q-9 -43 30 -43q19 0 43 14t39 28t41 40l8 -8q-55 -61 -113.5 -96t-138.5 -35q-142 0 -163 112q-110 -114 -262 -114q-94 0 -155 43.5t-61 126.5zM469 745q0 -102 78 -102q55 0 106 55l56 236q-40 12 -74 12 q-46 0 -80.5 -20t-52 -52t-25.5 -64t-8 -65z" />
<glyph unicode="&#xab;" horiz-adv-x="1193" d="M35 455l2 8l686 407l4 -8l-508 -403l322 -404l-9 -8zM512 455l2 8l686 407l4 -8l-508 -403l322 -404l-8 -8z" />
<glyph unicode="&#xad;" horiz-adv-x="776" d="M100 442l19 84h540l-18 -84h-541z" />
<glyph unicode="&#xae;" horiz-adv-x="823" d="M201 985q0 141 106.5 244.5t247.5 103.5q125 0 207 -84t82 -207q0 -141 -106.5 -244.5t-245.5 -103.5q-125 0 -208 84t-83 207zM217 987q0 -116 79 -196t198 -80q132 0 232.5 97.5t100.5 231.5q0 117 -78 197t-196 80q-133 0 -234.5 -98t-101.5 -232zM315 856l2 6 q24 0 33.5 9t16.5 40l49 205q7 32 1 40.5t-30 8.5l2 6h186q125 0 125 -75q0 -83 -157 -88v-2q27 0 45.5 -1t30.5 -6t18.5 -8.5t9.5 -14.5t3.5 -18t1 -25t1.5 -30q2 -24 9 -32.5t30 -8.5l-2 -6h-123q-6 21 -6 86q0 40 -10.5 51t-42.5 11h-25l-20 -93q-6 -32 0 -40.5t29 -8.5 l-3 -6h-174zM485 1010h37q42 0 63 32.5t21 67.5q0 55 -53 55h-33z" />
<glyph unicode="&#xaf;" horiz-adv-x="907" d="M385 1024l18 82h615l-19 -82h-614z" />
<glyph unicode="&#xb0;" horiz-adv-x="796" d="M184 1014q0 90 53.5 159.5t136.5 104.5t179 35q42 0 81.5 -7t79 -24t68.5 -42.5t47.5 -67t18.5 -93.5q0 -134 -109.5 -216.5t-257.5 -82.5q-54 0 -104 12.5t-94.5 38t-71.5 73t-27 110.5zM383 893q0 -44 18 -73t58 -29q52 0 92 52t59.5 126t29 134.5t9.5 96.5 q0 42 -18.5 72.5t-57.5 30.5q-50 0 -89.5 -51t-60 -123t-30.5 -134.5t-10 -101.5z" />
<glyph unicode="&#xb1;" horiz-adv-x="1144" d="M12 0l4 18h912l-4 -18h-912zM164 657l4 19h446l105 446h18l-104 -446h446l-4 -19h-446l-103 -446h-18l102 446h-446z" />
<glyph unicode="&#xb2;" horiz-adv-x="829" d="M121 686q5 84 31 135.5t90 98.5q39 29 106.5 67t120 69t105 71.5t81.5 93.5t29 116q0 140 -133 140q-58 0 -105 -27t-75 -70q36 -8 62 -39.5t26 -76.5q0 -51 -33.5 -85t-83.5 -34t-82.5 36.5t-32.5 84.5q0 85 103.5 153t271.5 68q87 0 157 -18.5t118.5 -66t48.5 -118.5 q0 -69 -46 -114t-125 -71.5t-165.5 -48.5t-187.5 -62t-171 -95q-54 -44 -61 -64q75 101 252 101q51 0 141.5 -11.5t130.5 -11.5q79 0 124 34t48 122h8q1 -38 -4.5 -85t-23 -102.5t-44 -100.5t-71.5 -75t-102 -30q-47 0 -85.5 21.5t-65.5 52t-53 60.5t-61 51.5t-77 21.5 q-70 0 -111 -55t-43 -136h-12z" />
<glyph unicode="&#xb3;" horiz-adv-x="833" d="M125 844q0 52 34.5 89.5t86.5 37.5q49 0 80.5 -34.5t31.5 -84.5q0 -43 -25.5 -75.5t-66.5 -43.5q35 -47 121 -47q104 0 162.5 70t58.5 168q0 76 -42 115.5t-138 39.5q-29 0 -49.5 -3.5t-30.5 -7t-14 -3.5q-8 0 -15.5 4.5t-7.5 11.5q0 10 10 16.5t21 6.5q3 0 28 -8.5 t62 -8.5q66 0 116 22t78.5 59t42 78.5t13.5 86.5q0 137 -135 137q-94 0 -144 -57q31 -11 54.5 -43t23.5 -72q0 -47 -32 -79.5t-82 -32.5q-51 0 -81 34.5t-30 77.5q0 82 100 135.5t254 53.5q149 0 236.5 -53t87.5 -142q0 -55 -34.5 -96t-95.5 -64t-135.5 -34t-162.5 -11h-14 l-3 -6h17q158 0 256 -48t98 -142q0 -72 -59.5 -123t-149.5 -73.5t-200 -22.5q-161 0 -243.5 49t-82.5 123z" />
<glyph unicode="&#xb4;" horiz-adv-x="747" d="M381 979q250 289 307 336q50 39 94.5 37.5t73.5 -37.5q24 -29 22 -61t-17.5 -58t-39.5 -45q-28 -22 -91.5 -48t-173.5 -65t-171 -63z" />
<glyph unicode="&#xb5;" horiz-adv-x="1263" d="M-23.5 -243q-2.5 43 6.5 105.5t17.5 106t22.5 105.5l178 770l331 28l-151 -651q-16 -72 6 -106.5t72 -34.5q74 0 172 76l157 686l332 30l-166 -737q-9 -40 3 -61t40 -21q29 0 105 35l-2 -12q-173 -101 -314 -101q-85 0 -123.5 43.5t-33.5 120.5q-191 -162 -371 -162 q-90 0 -145.5 43.5t-59.5 131.5l-14 -68q-12 -51 1.5 -97t42 -82t58 -68t52 -68t22.5 -70q0 -44 -30.5 -76.5t-88.5 -32.5q-42 0 -69.5 21t-37.5 62t-12.5 84z" />
<glyph unicode="&#xb6;" horiz-adv-x="1032" d="M145 838q0 116 73.5 214.5t199.5 156t274 57.5h434l-4 -15h-123l-317 -1372h-16l317 1372h-264l-318 -1372h-18l154 662q-189 0 -290.5 84t-101.5 213z" />
<glyph unicode="&#xb7;" horiz-adv-x="544" d="M94 526q0 74 52.5 126.5t125.5 52.5q74 0 126.5 -52.5t52.5 -126.5q0 -73 -52.5 -125.5t-126.5 -52.5t-126 52t-52 126z" />
<glyph unicode="&#xb8;" horiz-adv-x="700" d="M-25 -410l11 11q23 -19 74.5 -32t101.5 -13q92 0 140 50.5t48 127.5q0 56 -26 93.5t-84 37.5q-38 0 -80 -17l-4 7l188 143l14 -6l-153 -119q59 16 135 16q113 0 177.5 -39t64.5 -118q0 -69 -50 -118t-125 -70t-165 -21q-83 0 -155 18t-112 49z" />
<glyph unicode="&#xb9;" horiz-adv-x="565" d="M61 686v8q80 0 123.5 29.5t65.5 118.5l112 454q9 36 -0.5 52t-44.5 16h-94l4 8q233 25 410 101l6 -3l-156 -643q-8 -31 -9.5 -53.5t4.5 -36.5t14 -23t24 -13.5t30.5 -5.5t37.5 -1l-2 -8h-525z" />
<glyph unicode="&#xba;" horiz-adv-x="1081" d="M121 434l4 19h807l-4 -19h-807zM209 889q0 172 139 295t346 123q165 0 272 -83.5t107 -230.5q0 -171 -139.5 -293t-345.5 -122q-104 0 -188.5 33t-137.5 105t-53 173zM473 758q0 -80 19.5 -124t72.5 -44q72 0 129.5 87t86 208t28.5 241q0 81 -19 124.5t-71 43.5 q-54 0 -102 -51.5t-78.5 -131.5t-48 -173t-17.5 -180z" />
<glyph unicode="&#xbb;" horiz-adv-x="1193" d="M-37 55l508 404l-321 403l8 8l497 -407l-2 -8l-686 -408zM440 55l508 404l-321 403l8 8l498 -407l-3 -8l-686 -408z" />
<glyph unicode="&#xbc;" horiz-adv-x="1910" d="M80 481v8q80 0 123 29.5t65 118.5l113 455q9 36 -0.5 51.5t-44.5 15.5h-94l4 8q232 25 409 101l7 -2l-156 -643q-9 -37 -8.5 -62t7 -39t23.5 -21.5t33.5 -9.5t44.5 -2l-2 -8h-524zM369 -8l1155 1294l12 -8l-1155 -1294zM965 211l131 78q99 60 163 154t64 186 q0 102 -74 172q65 3 125.5 -3.5t115 -24t87.5 -52t33 -82.5t-33.5 -90.5t-93 -78t-119 -63.5t-134.5 -62t-116 -58l-121 -72h410l27 98l280 213h6l-74 -311q39 -1 64 2t37 6.5t16 3.5q10 0 16.5 -5t6.5 -11q0 -10 -10 -15.5t-21 -5.5q-5 0 -15.5 3t-34.5 6t-61 2l-14 -60 q-8 -31 -9.5 -53.5t4 -37t13 -23t23.5 -13t30.5 -5.5t38.5 -1l-2 -8h-524v8q79 0 122.5 29.5t66.5 118.5l12 49h-434z" />
<glyph unicode="&#xbd;" horiz-adv-x="1912" d="M63 481v8q80 0 123.5 29.5t65.5 118.5l113 455q9 36 -1 51.5t-45 15.5h-94l4 8q233 25 410 101l6 -2l-156 -643q-9 -37 -8.5 -62t7 -39t23.5 -21.5t34 -9.5t45 -2l-2 -8h-525zM352 -8l1155 1294l13 -8l-1155 -1294zM1036 0q5 84 31 135t90 98q39 29 106.5 67t120 69 t105 72t81.5 94t29 116q0 140 -133 140q-58 0 -105 -27t-75 -70q36 -8 62 -39.5t26 -76.5q0 -51 -33.5 -85t-83.5 -34t-82 36.5t-32 84.5q0 85 103.5 153t271.5 68q64 0 119.5 -11t102.5 -34t74 -63.5t27 -94.5q0 -69 -46 -114t-125 -71.5t-165 -48.5t-187 -62t-171 -95 q-56 -45 -62 -64q75 101 252 101q51 0 142 -11.5t131 -11.5q79 0 124 34t48 122h8q1 -38 -5 -85t-23 -102.5t-44 -100.5t-72 -75t-102 -30q-47 0 -85.5 21t-65.5 51.5t-53 61t-61 51.5t-77 21q-70 0 -110.5 -54.5t-42.5 -135.5h-13z" />
<glyph unicode="&#xbe;" horiz-adv-x="2039" d="M115 639q0 52 34.5 89.5t86.5 37.5q49 0 80.5 -34.5t31.5 -84.5q0 -43 -25.5 -75.5t-66.5 -43.5q35 -47 121 -47q104 0 162.5 70t58.5 168q0 76 -42 115.5t-138 39.5q-29 0 -49.5 -3.5t-31 -7t-13.5 -3.5q-8 0 -15.5 5t-7.5 12q0 10 9.5 16t21.5 6q3 0 28 -8t62 -8 q66 0 116 22t78.5 58.5t42 78t13.5 86.5q0 138 -135 138q-93 0 -144 -58q32 -11 55 -42.5t23 -71.5q0 -47 -32.5 -80t-82.5 -33q-51 0 -80.5 34.5t-29.5 78.5q0 82 100 135t254 53q149 0 236.5 -53t87.5 -142q0 -55 -34.5 -95.5t-95.5 -63.5t-135.5 -34t-162.5 -11h-15 l-2 -6h17q158 0 256 -48.5t98 -142.5q0 -72 -59.5 -123t-150 -73.5t-200.5 -22.5q-161 0 -243 49t-82 123zM498 -8l1155 1294l12 -8l-1155 -1294zM1094 211l131 78q99 60 163 154t64 186q0 102 -74 172q65 3 125.5 -3.5t115 -24t87.5 -52t33 -82.5t-33.5 -90.5t-93 -78 t-119 -63.5t-134.5 -62t-116 -58l-121 -72h410l27 98l280 213h6l-73 -311q39 -1 64 2t36.5 6.5t15.5 3.5q10 0 16.5 -5t6.5 -11q0 -10 -10 -15.5t-21 -5.5q-5 0 -15.5 3t-34.5 6t-61 2l-14 -60q-8 -31 -9.5 -53.5t4 -37t13 -23t23.5 -13t30.5 -5.5t38.5 -1l-2 -8h-524v8 q79 0 122.5 29.5t66.5 118.5l12 49h-434z" />
<glyph unicode="&#xbf;" horiz-adv-x="1175" d="M-82 -117q0 52 21 95t55 73t82.5 54t98 39t108 27.5t105 19t97 14.5t76.5 14l55 189h13l-37 -197q-338 -94 -338 -383q0 -55 13 -101.5t40.5 -86t77 -62t117.5 -22.5q83 0 148 32.5t102 85.5q-54 13 -87.5 61t-33.5 111q0 74 47.5 125.5t116.5 51.5q72 0 117.5 -56 t45.5 -125q0 -124 -145.5 -214.5t-372.5 -90.5q-237 0 -379.5 101t-142.5 245zM496 668q0 74 52 126t126 52t126 -52t52 -126t-52.5 -126.5t-125.5 -52.5t-125.5 52.5t-52.5 126.5z" />
<glyph unicode="&#xc0;" d="M-209 0l2 12q49 0 94.5 15t88.5 47t79 66t78 89t72.5 97.5t75.5 109.5q7 10 10 15l557 827h14l258 -1002q14 -54 28.5 -94.5t38.5 -82.5t58.5 -64.5t77.5 -22.5l-2 -12h-729l2 12q73 0 118 39.5t54 98t-4 126.5l-31 132h-446l-6 -9q-45 -60 -67.5 -126.5t-18 -125t52 -97 t135.5 -38.5l-2 -12h-588zM297 428h428l-111 467zM686.5 1687.5q2.5 48.5 40.5 75.5q38 28 85 14t79 -61q14 -22 30 -58.5t27.5 -69.5t33 -96.5t36.5 -105.5l-4 -4q-60 42 -135.5 89t-108.5 71.5t-53 52.5q-33 44 -30.5 92.5z" />
<glyph unicode="&#xc1;" d="M-209 0l2 12q49 0 94.5 15t88.5 47t79 66t78 89t72.5 97.5t75.5 109.5q7 10 10 15l557 827h14l258 -1002q14 -54 28.5 -94.5t38.5 -82.5t58.5 -64.5t77.5 -22.5l-2 -12h-729l2 12q73 0 118 39.5t54 98t-4 126.5l-31 132h-446l-6 -9q-45 -60 -67.5 -126.5t-18 -125t52 -97 t135.5 -38.5l-2 -12h-588zM297 428h428l-111 467zM676 1389q247 285 307 335q50 39 94.5 37.5t73.5 -37.5q24 -29 22 -60.5t-17.5 -57.5t-39.5 -45q-28 -22 -91.5 -48t-174 -65.5t-170.5 -63.5z" />
<glyph unicode="&#xc2;" d="M-209 0l2 12q49 0 94.5 15t88.5 47t79 66t78 89t72.5 97.5t75.5 109.5q7 10 10 15l557 827h14l258 -1002q14 -54 28.5 -94.5t38.5 -82.5t58.5 -64.5t77.5 -22.5l-2 -12h-729l2 12q73 0 118 39.5t54 98t-4 126.5l-31 132h-446l-6 -9q-45 -60 -67.5 -126.5t-18 -125t52 -97 t135.5 -38.5l-2 -12h-588zM297 428h428l-111 467zM547 1360l305 321q49 52 100 52q53 0 76 -52l158 -321l-4 -4l-277 170l-354 -170z" />
<glyph unicode="&#xc3;" d="M-209 0l2 12q49 0 94.5 15t88.5 47t79 66t78 89t72.5 97.5t75.5 109.5q7 10 10 15l557 827h14l258 -1002q14 -54 28.5 -94.5t38.5 -82.5t58.5 -64.5t77.5 -22.5l-2 -12h-729l2 12q73 0 118 39.5t54 98t-4 126.5l-31 132h-446l-6 -9q-45 -60 -67.5 -126.5t-18 -125t52 -97 t135.5 -38.5l-2 -12h-588zM297 428h428l-111 467zM553 1399q4 13 14.5 49.5t18.5 60t22 59t30 59t37.5 47t49.5 35t61 11.5q52 0 157 -48t161 -48q34 0 60 11t42 31.5t24.5 37.5t16.5 39l10 -2q-3 -9 -13 -41t-14 -45t-14.5 -42.5t-17.5 -43.5l-19.5 -39t-23 -37.5t-26 -29 t-31 -24.5t-35 -14t-41.5 -6q-51 0 -154 48.5t-161 48.5q-34 0 -60 -11t-43 -31.5t-25.5 -37t-17.5 -39.5z" />
<glyph unicode="&#xc4;" d="M-209 0l2 12q49 0 94.5 15t88.5 47t79 66t78 89t72.5 97.5t75.5 109.5q7 10 10 15l557 827h14l258 -1002q14 -54 28.5 -94.5t38.5 -82.5t58.5 -64.5t77.5 -22.5l-2 -12h-729l2 12q73 0 118 39.5t54 98t-4 126.5l-31 132h-446l-6 -9q-45 -60 -67.5 -126.5t-18 -125t52 -97 t135.5 -38.5l-2 -12h-588zM297 428h428l-111 467zM565 1563q0 59 41.5 101t102.5 42q60 0 102.5 -42t42.5 -103q0 -60 -42 -103t-101 -43t-102.5 43.5t-43.5 104.5zM958 1563q0 59 41.5 101t102.5 42q60 0 102.5 -42t42.5 -103q0 -60 -42 -103t-101 -43t-102.5 43.5 t-43.5 104.5z" />
<glyph unicode="&#xc5;" d="M-209 0l2 12q49 0 94.5 15t88.5 47t79 66t78 89t72.5 97.5t75.5 109.5q7 10 10 15l557 827h14l258 -1002q14 -54 28.5 -94.5t38.5 -82.5t58.5 -64.5t77.5 -22.5l-2 -12h-729l2 12q73 0 118 39.5t54 98t-4 126.5l-31 132h-446l-6 -9q-45 -60 -67.5 -126.5t-18 -125t52 -97 t135.5 -38.5l-2 -12h-588zM297 428h428l-111 467zM633 1546q0 101 89 173.5t218 72.5q106 0 176 -50t70 -138q0 -100 -89.5 -172t-219.5 -72q-105 0 -174.5 50t-69.5 136zM819 1454q0 -86 49 -86q31 0 57 39t41 95t23 108.5t8 87.5q0 86 -49 86q-33 0 -59.5 -40t-40.5 -96.5 t-21.5 -108t-7.5 -85.5z" />
<glyph unicode="&#xc6;" horiz-adv-x="2103" d="M-213 0l2 12q121 0 284.5 116t344.5 306l708 744q-6 42 -37 58.5t-94 16.5l4 13h1131l-70 -432l-8 -3q0 91 -22 165.5t-67 132.5t-122 90t-180 32h-148l-141 -612h64q77 0 147 26t123 71.5t93 98.5t69 115h8l-145 -633h-9q-2 61 -17.5 113.5t-48 97.5t-90 71t-134.5 26 h-64l-139 -611h157q360 0 599 451l8 -2l-146 -463h-1140l2 12q96 0 140 42t73 167l53 236h-508l-31 -33q-241 -254 -179 -356q35 -56 161 -56l-2 -12h-629zM485 477h496l131 567q16 75 16 113z" />
<glyph unicode="&#xc7;" horiz-adv-x="1449" d="M94 504q0 165 73 311.5t197 250.5t295 164t361 60q56 0 127.5 -6t120.5 -11t111.5 -2.5t117.5 15.5l-65 -446l-11 -2q-39 235 -135.5 337.5t-245.5 102.5q-101 0 -188 -43t-148.5 -116t-109 -163.5t-75.5 -191t-42 -193t-14 -174.5q0 -65 9 -122.5t30 -111t53 -91.5 t82 -61t113 -23q157 0 318 131.5t296 343.5l6 -2l-166 -424q-230 -62 -463 -62q-61 0 -100 5l-137 -107q59 16 135 16q113 0 177.5 -39t64.5 -118q0 -69 -50 -118t-125 -70t-165 -21q-83 0 -155 18t-112 49l11 11q23 -19 74.5 -32t101.5 -13q92 0 140 50.5t48 127.5 q0 56 -26 93.5t-84 37.5q-37 0 -80 -17l-4 7l166 127q-263 26 -395 163t-132 359z" />
<glyph unicode="&#xc8;" horiz-adv-x="1335" d="M-61 0l2 12q96 0 140 42t73 167l190 823q28 126 4 167.5t-121 41.5l4 13h1131l-70 -432l-8 -3q0 91 -22 165.5t-67 132.5t-122 90t-180 32h-148l-141 -612h64q77 0 147 26t123 71.5t93 98.5t69 115h8l-145 -633h-9q-2 61 -17.5 113.5t-48 97.5t-90 71t-134.5 26h-64 l-139 -611h157q360 0 599 451l8 -2l-146 -463h-1140zM690.5 1687.5q2.5 48.5 40.5 75.5q38 28 85 14t79 -61q14 -22 30 -58.5t27.5 -69.5t33 -96.5t36.5 -105.5l-4 -4q-60 42 -135.5 89t-108.5 71.5t-53 52.5q-33 44 -30.5 92.5z" />
<glyph unicode="&#xc9;" horiz-adv-x="1335" d="M-61 0l2 12q96 0 140 42t73 167l190 823q28 126 4 167.5t-121 41.5l4 13h1131l-70 -432l-8 -3q0 91 -22 165.5t-67 132.5t-122 90t-180 32h-148l-141 -612h64q77 0 147 26t123 71.5t93 98.5t69 115h8l-145 -633h-9q-2 61 -17.5 113.5t-48 97.5t-90 71t-134.5 26h-64 l-139 -611h157q360 0 599 451l8 -2l-146 -463h-1140zM692 1389q247 285 307 335q50 39 94.5 37.5t73.5 -37.5q24 -29 22 -60.5t-17 -57.5t-39 -45q-28 -22 -91.5 -48t-174.5 -65.5t-171 -63.5z" />
<glyph unicode="&#xca;" horiz-adv-x="1335" d="M-61 0l2 12q96 0 140 42t73 167l190 823q28 126 4 167.5t-121 41.5l4 13h1131l-70 -432l-8 -3q0 91 -22 165.5t-67 132.5t-122 90t-180 32h-148l-141 -612h64q77 0 147 26t123 71.5t93 98.5t69 115h8l-145 -633h-9q-2 61 -17.5 113.5t-48 97.5t-90 71t-134.5 26h-64 l-139 -611h157q360 0 599 451l8 -2l-146 -463h-1140zM551 1360l305 321q49 52 100 52q53 0 76 -52l158 -321l-4 -4l-277 170l-354 -170z" />
<glyph unicode="&#xcb;" horiz-adv-x="1335" d="M-61 0l2 12q96 0 140 42t73 167l190 823q28 126 4 167.5t-121 41.5l4 13h1131l-70 -432l-8 -3q0 91 -22 165.5t-67 132.5t-122 90t-180 32h-148l-141 -612h64q77 0 147 26t123 71.5t93 98.5t69 115h8l-145 -633h-9q-2 61 -17.5 113.5t-48 97.5t-90 71t-134.5 26h-64 l-139 -611h157q360 0 599 451l8 -2l-146 -463h-1140zM571 1563q0 59 41.5 101t102.5 42q60 0 102.5 -42t42.5 -103q0 -60 -42 -103t-101 -43t-102.5 43.5t-43.5 104.5zM965 1563q0 59 41 101t102 42q60 0 102.5 -42t42.5 -103q0 -60 -42 -103t-101 -43t-102 43.5t-43 104.5z " />
<glyph unicode="&#xcc;" horiz-adv-x="796" d="M-61 0l2 12q96 0 140 42t73 167l190 823q28 126 4 167.5t-121 41.5l4 13h682l-4 -13q-96 0 -139 -42t-72 -167l-190 -823q-28 -126 -4.5 -167.5t119.5 -41.5l-2 -12h-682zM401.5 1687.5q2.5 48.5 40.5 75.5q38 28 85 14t79 -61q14 -22 30 -58.5t27.5 -69.5t33 -96.5 t36.5 -105.5l-4 -4q-60 42 -135.5 89t-108.5 71.5t-53 52.5q-33 44 -30.5 92.5z" />
<glyph unicode="&#xcd;" horiz-adv-x="796" d="M-61 0l2 12q96 0 140 42t73 167l190 823q28 126 4 167.5t-121 41.5l4 13h682l-4 -13q-96 0 -139 -42t-72 -167l-190 -823q-28 -126 -4.5 -167.5t119.5 -41.5l-2 -12h-682zM430 1389q247 285 307 335q50 39 94.5 37.5t73.5 -37.5q24 -29 22 -60.5t-17.5 -57.5t-39.5 -45 q-28 -22 -91.5 -48t-174 -65.5t-170.5 -63.5z" />
<glyph unicode="&#xce;" horiz-adv-x="796" d="M-61 0l2 12q96 0 140 42t73 167l190 823q28 126 4 167.5t-121 41.5l4 13h682l-4 -13q-96 0 -139 -42t-72 -167l-190 -823q-28 -126 -4.5 -167.5t119.5 -41.5l-2 -12h-682zM274 1360l306 321q49 52 100 52q53 0 76 -52l157 -321l-4 -4l-276 170l-354 -170z" />
<glyph unicode="&#xcf;" horiz-adv-x="796" d="M-61 0l2 12q96 0 140 42t73 167l190 823q28 126 4 167.5t-121 41.5l4 13h682l-4 -13q-96 0 -139 -42t-72 -167l-190 -823q-28 -126 -4.5 -167.5t119.5 -41.5l-2 -12h-682zM303 1563q0 59 41 101t102 42q60 0 103 -42t43 -103q0 -60 -42 -103t-101 -43t-102.5 43.5 t-43.5 104.5zM696 1563q0 59 41.5 101t102.5 42q60 0 102.5 -42t42.5 -103q0 -60 -42 -103t-101 -43t-102.5 43.5t-43.5 104.5z" />
<glyph unicode="&#xd0;" horiz-adv-x="1619" d="M-61 0l2 12q96 0 140 42t73 167l94 406h-162l4 18h162l92 399q28 126 4 167.5t-121 41.5l4 13h717q299 0 464 -134t165 -368q0 -168 -66.5 -310t-186 -242t-292 -156t-377.5 -56h-716zM461 14h145q93 0 175 30t142 81t109 119.5t81 143.5t54 156t31.5 153.5t9.5 138.5 q0 84 -16.5 155.5t-51.5 131.5t-98 94t-149 34h-148l-139 -606h312l-5 -18h-311z" />
<glyph unicode="&#xd1;" horiz-adv-x="1495" d="M-106 0l2 12q86 0 143.5 23t100 81.5t70 138t58.5 212.5l101 436q26 114 24 191.5t-48.5 118t-141.5 40.5l4 13h403l594 -815l82 348q20 89 30.5 149.5t12 115t-9 87.5t-35 57.5t-63.5 34.5t-97 10l4 13h553l-4 -13q-69 0 -119.5 -16.5t-87.5 -47t-66 -88t-51 -126.5 t-46 -176l-189 -815l-10 -2l-707 970l-112 -485q-20 -89 -30.5 -149.5t-12.5 -115.5t8.5 -88t34.5 -57.5t63 -34.5t97 -10l-3 -12h-552zM655 1399q4 12 14.5 49t18.5 60t22 59t30.5 59.5t37.5 47t49.5 35t61.5 11.5q52 0 156.5 -48t160.5 -48q34 0 60 11t42.5 31.5t25 37.5 t16.5 39l10 -2q-2 -8 -12.5 -41.5t-14.5 -44.5t-15 -42t-17.5 -44t-19.5 -38.5t-23 -37.5t-26 -29.5t-31.5 -25t-35 -13.5t-41.5 -6q-51 0 -154 48.5t-161 48.5q-34 0 -60 -11t-42.5 -32t-25 -37t-17.5 -39z" />
<glyph unicode="&#xd2;" horiz-adv-x="1624" d="M96 522q0 156 70.5 299t188 245.5t277.5 163t333 60.5q181 0 320.5 -64.5t218.5 -189.5t79 -293q0 -156 -70 -299t-187.5 -245.5t-277.5 -163t-333 -60.5q-181 0 -320.5 64.5t-219 189.5t-79.5 293zM453 352q0 -175 53 -268.5t174 -93.5q111 0 214 81t175.5 211t116 297 t43.5 334q0 176 -54 269.5t-174 93.5q-113 0 -216.5 -82.5t-175 -213.5t-114 -297t-42.5 -331zM831.5 1708.5q2.5 48.5 40.5 75.5q38 28 85 14t79 -61q14 -22 30 -58.5t27.5 -69.5t33 -96.5t36.5 -105.5l-4 -4q-60 42 -135.5 89t-108.5 71.5t-53 52.5q-33 44 -30.5 92.5z " />
<glyph unicode="&#xd3;" horiz-adv-x="1624" d="M96 522q0 156 70.5 299t188 245.5t277.5 163t333 60.5q181 0 320.5 -64.5t218.5 -189.5t79 -293q0 -156 -70 -299t-187.5 -245.5t-277.5 -163t-333 -60.5q-181 0 -320.5 64.5t-219 189.5t-79.5 293zM453 352q0 -175 53 -268.5t174 -93.5q111 0 214 81t175.5 211t116 297 t43.5 334q0 176 -54 269.5t-174 93.5q-113 0 -216.5 -82.5t-175 -213.5t-114 -297t-42.5 -331zM834 1409q250 289 307 336q50 39 94.5 37.5t73.5 -37.5q24 -29 22 -61t-17.5 -58t-39.5 -45q-28 -22 -91.5 -48t-173.5 -65t-171 -63z" />
<glyph unicode="&#xd4;" horiz-adv-x="1624" d="M96 522q0 156 70.5 299t188 245.5t277.5 163t333 60.5q181 0 320.5 -64.5t218.5 -189.5t79 -293q0 -156 -70 -299t-187.5 -245.5t-277.5 -163t-333 -60.5q-181 0 -320.5 64.5t-219 189.5t-79.5 293zM453 352q0 -175 53 -268.5t174 -93.5q111 0 214 81t175.5 211t116 297 t43.5 334q0 176 -54 269.5t-174 93.5q-113 0 -216.5 -82.5t-175 -213.5t-114 -297t-42.5 -331zM696 1380l305 322q48 51 101 51t76 -51l157 -322l-4 -4l-276 170l-355 -170z" />
<glyph unicode="&#xd5;" horiz-adv-x="1624" d="M96 522q0 156 70.5 299t188 245.5t277.5 163t333 60.5q181 0 320.5 -64.5t218.5 -189.5t79 -293q0 -156 -70 -299t-187.5 -245.5t-277.5 -163t-333 -60.5q-181 0 -320.5 64.5t-219 189.5t-79.5 293zM453 352q0 -175 53 -268.5t174 -93.5q111 0 214 81t175.5 211t116 297 t43.5 334q0 176 -54 269.5t-174 93.5q-113 0 -216.5 -82.5t-175 -213.5t-114 -297t-42.5 -331zM713 1419q4 13 14.5 49.5t18.5 60t22 59.5t30 59.5t37.5 47t49.5 35t61 11.5q52 0 157 -48t161 -48q34 0 60 11t42 31t24.5 37t16.5 39l10 -2q-3 -9 -13 -41t-14 -44.5 t-14.5 -42.5t-17.5 -44t-19.5 -38.5t-23 -37t-26 -29t-31 -24.5t-35 -14t-41.5 -6q-51 0 -154.5 48t-161.5 48q-34 0 -60 -11t-42.5 -32t-25 -37t-17.5 -39z" />
<glyph unicode="&#xd6;" horiz-adv-x="1624" d="M96 522q0 156 70.5 299t188 245.5t277.5 163t333 60.5q181 0 320.5 -64.5t218.5 -189.5t79 -293q0 -156 -70 -299t-187.5 -245.5t-277.5 -163t-333 -60.5q-181 0 -320.5 64.5t-219 189.5t-79.5 293zM453 352q0 -175 53 -268.5t174 -93.5q111 0 214 81t175.5 211t116 297 t43.5 334q0 176 -54 269.5t-174 93.5q-113 0 -216.5 -82.5t-175 -213.5t-114 -297t-42.5 -331zM723 1583q0 59 41 101t102 42q60 0 103 -42t43 -103q0 -60 -42.5 -102.5t-101.5 -42.5t-102 43t-43 104zM1116 1583q0 59 41.5 101t102.5 42q60 0 102.5 -42t42.5 -103 q0 -60 -42 -102.5t-101 -42.5t-102.5 43t-43.5 104z" />
<glyph unicode="&#xd7;" horiz-adv-x="940" d="M-8 127l465 377l-289 373l14 10l289 -373l459 373l8 -13l-459 -372l287 -375l-12 -10l-287 375l-463 -377z" />
<glyph unicode="&#xd8;" horiz-adv-x="1624" d="M96 522q0 156 70.5 299t188 245.5t277.5 163t333 60.5q258 0 428 -131l159 150l15 -15l-160 -147q176 -149 176 -404q0 -156 -70 -299t-187.5 -245.5t-277.5 -163t-333 -60.5q-259 0 -426 129l-160 -149l-14 14l157 148q-176 149 -176 405zM453 352q0 -45 2 -65l770 717 q-26 272 -224 272q-113 0 -216.5 -82.5t-175 -213.5t-114 -297t-42.5 -331zM457 260q23 -270 223 -270q111 0 214 81t175.5 211t116 297t43.5 334q0 12 -1 33t-1 31z" />
<glyph unicode="&#xd9;" horiz-adv-x="1466" d="M176.5 228.5q-19.5 87.5 5.5 209.5l131 574q32 126 8.5 183.5t-116.5 57.5l4 13h682l-4 -13q-93 0 -141 -55.5t-78 -185.5l-154 -664q-78 -336 215 -336q76 0 145.5 23.5t131.5 71t109.5 127.5t72.5 186l86 379q20 89 30.5 149.5t12 115t-9 87.5t-35 57.5t-63.5 34.5 t-97 10l4 13h553l-4 -13q-69 0 -119.5 -16.5t-87.5 -47t-66 -88.5t-51 -126.5t-47 -175.5l-88 -379q-105 -445 -583 -445q-118 0 -209.5 27t-154.5 83t-82.5 143.5zM788.5 1687.5q2.5 48.5 40.5 75.5q38 28 85 14t79 -61q14 -22 30 -58.5t27.5 -69.5t33 -96.5t36.5 -105.5 l-4 -4q-60 42 -135.5 89t-108.5 71.5t-53 52.5q-33 44 -30.5 92.5z" />
<glyph unicode="&#xda;" horiz-adv-x="1466" d="M176.5 228.5q-19.5 87.5 5.5 209.5l131 574q32 126 8.5 183.5t-116.5 57.5l4 13h682l-4 -13q-93 0 -141 -55.5t-78 -185.5l-154 -664q-78 -336 215 -336q76 0 145.5 23.5t131.5 71t109.5 127.5t72.5 186l86 379q20 89 30.5 149.5t12 115t-9 87.5t-35 57.5t-63.5 34.5 t-97 10l4 13h553l-4 -13q-69 0 -119.5 -16.5t-87.5 -47t-66 -88.5t-51 -126.5t-47 -175.5l-88 -379q-105 -445 -583 -445q-118 0 -209.5 27t-154.5 83t-82.5 143.5zM821 1389q247 285 307 335q50 39 94.5 37.5t73.5 -37.5q24 -29 22 -60.5t-17 -57.5t-39 -45 q-28 -22 -91.5 -48t-174.5 -65.5t-171 -63.5z" />
<glyph unicode="&#xdb;" horiz-adv-x="1466" d="M176.5 228.5q-19.5 87.5 5.5 209.5l131 574q32 126 8.5 183.5t-116.5 57.5l4 13h682l-4 -13q-93 0 -141 -55.5t-78 -185.5l-154 -664q-78 -336 215 -336q76 0 145.5 23.5t131.5 71t109.5 127.5t72.5 186l86 379q20 89 30.5 149.5t12 115t-9 87.5t-35 57.5t-63.5 34.5 t-97 10l4 13h553l-4 -13q-69 0 -119.5 -16.5t-87.5 -47t-66 -88.5t-51 -126.5t-47 -175.5l-88 -379q-105 -445 -583 -445q-118 0 -209.5 27t-154.5 83t-82.5 143.5zM657 1360l306 321q49 52 100 52q53 0 76 -52l157 -321l-4 -4l-276 170l-354 -170z" />
<glyph unicode="&#xdc;" horiz-adv-x="1466" d="M176.5 228.5q-19.5 87.5 5.5 209.5l131 574q32 126 8.5 183.5t-116.5 57.5l4 13h682l-4 -13q-93 0 -141 -55.5t-78 -185.5l-154 -664q-78 -336 215 -336q76 0 145.5 23.5t131.5 71t109.5 127.5t72.5 186l86 379q20 89 30.5 149.5t12 115t-9 87.5t-35 57.5t-63.5 34.5 t-97 10l4 13h553l-4 -13q-69 0 -119.5 -16.5t-87.5 -47t-66 -88.5t-51 -126.5t-47 -175.5l-88 -379q-105 -445 -583 -445q-118 0 -209.5 27t-154.5 83t-82.5 143.5zM674 1563q0 59 41 101t102 42q60 0 103 -42t43 -103q0 -60 -42.5 -103t-101.5 -43t-102 43.5t-43 104.5z M1067 1563q0 59 41 101t102 42q60 0 103 -42t43 -103q0 -60 -42.5 -103t-101.5 -43t-102 43.5t-43 104.5z" />
<glyph unicode="&#xdd;" d="M131 1253l2 13h711l-2 -13q-92 0 -128 -61.5t-3 -149.5l166 -440h6l213 260q151 187 151 289t-151 102l2 13h530l-2 -13q-142 0 -283 -135q-85 -82 -233 -266l-217 -262l-80 -348q-13 -57 -13 -98.5t10.5 -67t33.5 -40t51.5 -19.5t69.5 -5l-2 -12h-764l2 12q52 0 88.5 9 t70.5 33t58.5 70.5t40.5 117.5l71 309l-200 506q-39 98 -87.5 147t-111.5 49zM813 1389q247 285 307 335q50 39 94.5 37.5t73.5 -37.5q24 -29 22 -60.5t-17.5 -57.5t-39.5 -45q-28 -22 -91.5 -48t-174 -65.5t-170.5 -63.5z" />
<glyph unicode="&#xde;" horiz-adv-x="1374" d="M-61 0l2 12q96 0 140 42t73 167l190 823q28 126 4 167.5t-121 41.5l4 13h682l-4 -13q-96 0 -139 -42t-72 -167l-6 -24h195q127 0 222.5 -27t150 -74.5t80.5 -104.5t26 -124q0 -83 -39.5 -156t-116 -131.5t-204.5 -92.5t-291 -34h-123l2 13h39q65 0 119.5 20t91 52 t65 75.5t44 86.5t26 89t13.5 79t3 61q0 45 -9.5 86.5t-30.5 81t-61 63t-95 23.5h-111l-180 -785q-28 -126 -4.5 -167.5t119.5 -41.5l-2 -12h-682z" />
<glyph unicode="&#xdf;" horiz-adv-x="1396" d="M-332 -156q0 64 42.5 104t101.5 40t95 -41t36 -99q0 -52 -29.5 -90t-69.5 -51q13 -26 47 -26q41 0 73 29.5t44 80.5l244 1032h-168l6 29h170l25 102q44 183 204 289.5t385 106.5q429 0 429 -418q-52 -8 -85 -14t-80.5 -15.5t-77.5 -18.5t-64.5 -23t-53.5 -29.5t-32 -35.5 t-13 -44q0 -32 22.5 -59t59 -48t80.5 -42.5t88 -48t80.5 -59t59 -82t22.5 -110.5q0 -138 -108.5 -232t-307.5 -94q-161 0 -264 60.5t-103 148.5q0 54 37 96t94 42q55 0 90 -37t35 -92q0 -44 -23.5 -77.5t-62.5 -45.5q56 -82 176 -82q58 0 100 19t62.5 48t29.5 56t9 51 q0 38 -22.5 70t-58.5 55.5t-80 46.5t-87.5 48t-79.5 54t-58.5 71t-22.5 93q0 201 348 283q8 53 12.5 101.5t4.5 102t-9.5 96t-27.5 78t-50.5 55t-77.5 19.5q-74 0 -132.5 -51.5t-80.5 -148.5l-262 -1137q-36 -157 -163 -245.5t-298 -88.5q-72 0 -125 16t-81 43t-41 57 t-13 62z" />
<glyph unicode="&#xe0;" horiz-adv-x="1202" d="M35 317q0 84 24.5 165t73 151.5t114.5 124.5t154 85t187 31q142 0 227 -75l295 73l6 -2l-164 -735q-9 -40 3 -61t40 -21q29 0 105 35l-2 -12q-173 -101 -314 -101q-150 0 -157 134q-144 -132 -303 -132q-96 0 -162.5 48t-96.5 123t-30 169zM369 268q0 -88 32 -146.5 t93 -58.5q57 0 127 62l143 633q-10 42 -37 70t-70 28q-63 0 -119.5 -65.5t-92 -160t-56 -192.5t-20.5 -170zM491.5 1278.5q2.5 48.5 40.5 75.5q38 28 85 14t79 -61q14 -22 30 -58.5t27.5 -69.5t33 -96.5t36.5 -105.5l-4 -4q-60 42 -135.5 89t-108.5 71.5t-53 52.5 q-33 44 -30.5 92.5z" />
<glyph unicode="&#xe1;" horiz-adv-x="1202" d="M35 317q0 84 24.5 165t73 151.5t114.5 124.5t154 85t187 31q142 0 227 -75l295 73l6 -2l-164 -735q-9 -40 3 -61t40 -21q29 0 105 35l-2 -12q-173 -101 -314 -101q-150 0 -157 134q-144 -132 -303 -132q-96 0 -162.5 48t-96.5 123t-30 169zM369 268q0 -88 32 -146.5 t93 -58.5q57 0 127 62l143 633q-10 42 -37 70t-70 28q-63 0 -119.5 -65.5t-92 -160t-56 -192.5t-20.5 -170zM621 979q250 289 307 336q50 39 94.5 37.5t73.5 -37.5q24 -29 22 -61t-17.5 -58t-39.5 -45q-28 -22 -91.5 -48t-173.5 -65t-171 -63z" />
<glyph unicode="&#xe2;" horiz-adv-x="1202" d="M35 317q0 84 24.5 165t73 151.5t114.5 124.5t154 85t187 31q142 0 227 -75l295 73l6 -2l-164 -735q-9 -40 3 -61t40 -21q29 0 105 35l-2 -12q-173 -101 -314 -101q-150 0 -157 134q-144 -132 -303 -132q-96 0 -162.5 48t-96.5 123t-30 169zM369 268q0 -88 32 -146.5 t93 -58.5q57 0 127 62l143 633q-10 42 -37 70t-70 28q-63 0 -119.5 -65.5t-92 -160t-56 -192.5t-20.5 -170zM377 950l305 322q48 51 100 51q53 0 76 -51l158 -322l-4 -4l-277 170l-354 -170z" />
<glyph unicode="&#xe3;" horiz-adv-x="1202" d="M35 317q0 84 24.5 165t73 151.5t114.5 124.5t154 85t187 31q142 0 227 -75l295 73l6 -2l-164 -735q-9 -40 3 -61t40 -21q29 0 105 35l-2 -12q-173 -101 -314 -101q-150 0 -157 134q-144 -132 -303 -132q-96 0 -162.5 48t-96.5 123t-30 169zM369 268q0 -88 32 -146.5 t93 -58.5q57 0 127 62l143 633q-10 42 -37 70t-70 28q-63 0 -119.5 -65.5t-92 -160t-56 -192.5t-20.5 -170zM393 989q4 12 14.5 49t18.5 60.5t22 59.5t30.5 59.5t37.5 47t49.5 35t61.5 11.5q52 0 156.5 -48.5t160.5 -48.5q34 0 60 11t42 31.5t24.5 37.5t16.5 39l11 -2 q-44 -137 -62 -177q-67 -143 -174 -144q-51 0 -154 48t-161 48q-34 0 -60 -11t-43 -31.5t-25.5 -37t-17.5 -39.5z" />
<glyph unicode="&#xe4;" horiz-adv-x="1202" d="M35 317q0 84 24.5 165t73 151.5t114.5 124.5t154 85t187 31q142 0 227 -75l295 73l6 -2l-164 -735q-9 -40 3 -61t40 -21q29 0 105 35l-2 -12q-173 -101 -314 -101q-150 0 -157 134q-144 -132 -303 -132q-96 0 -162.5 48t-96.5 123t-30 169zM369 268q0 -88 32 -146.5 t93 -58.5q57 0 127 62l143 633q-10 42 -37 70t-70 28q-63 0 -119.5 -65.5t-92 -160t-56 -192.5t-20.5 -170zM401 1153q0 59 41.5 101t102.5 42q60 0 102.5 -42t42.5 -103q0 -60 -42 -102.5t-101 -42.5t-102.5 43t-43.5 104zM795 1153q0 59 41 101t102 42q60 0 102.5 -42 t42.5 -103q0 -60 -42 -102.5t-101 -42.5t-102 43t-43 104z" />
<glyph unicode="&#xe5;" horiz-adv-x="1202" d="M35 317q0 84 24.5 165t73 151.5t114.5 124.5t154 85t187 31q142 0 227 -75l295 73l6 -2l-164 -735q-9 -40 3 -61t40 -21q29 0 105 35l-2 -12q-173 -101 -314 -101q-150 0 -157 134q-144 -132 -303 -132q-96 0 -162.5 48t-96.5 123t-30 169zM369 268q0 -88 32 -146.5 t93 -58.5q57 0 127 62l143 633q-10 42 -37 70t-70 28q-63 0 -119.5 -65.5t-92 -160t-56 -192.5t-20.5 -170zM469 1137q0 101 89 173t218 72q106 0 176 -50t70 -138q0 -100 -89.5 -172t-219.5 -72q-105 0 -174.5 50t-69.5 137zM655 1044q0 -86 50 -86q31 0 57 39t41 95 t23 108.5t8 87.5q0 86 -50 86q-33 0 -59.5 -40t-40.5 -96.5t-21.5 -108t-7.5 -85.5z" />
<glyph unicode="&#xe6;" horiz-adv-x="1622" d="M-6 190q0 170 312 223q87 15 314 30q10 0 19 1q10 88 10 172q0 17 -0.5 30t-3.5 40.5t-8.5 48.5t-17.5 46.5t-28 42.5t-41.5 28.5t-57.5 11.5q-93 0 -156 -90q40 -20 64 -60.5t24 -84.5q0 -63 -45 -106.5t-111 -43.5q-68 0 -107.5 47t-39.5 107q0 101 119.5 171t294.5 70 q212 0 315 -114q152 114 352 114q156 0 265.5 -67t109.5 -172q0 -52 -30 -91.5t-83.5 -62t-115.5 -37t-136.5 -18.5t-136 -3.5t-123.5 5.5q-10 -56 -10 -123q0 -123 56 -195.5t165 -72.5q155 0 318 151l8 -8q-43 -40 -84 -70.5t-100 -63.5t-133 -51t-156 -18 q-193 0 -295 105q-150 -105 -373 -105q-161 0 -257.5 56t-96.5 157zM293 121q0 -64 25 -98.5t71 -34.5q89 0 157 121t91 319q-89 -5 -157.5 -33.5t-108 -72.5t-59 -95t-19.5 -106zM954 442q88 -2 155.5 22.5t105.5 68t56.5 95t18.5 109.5q0 127 -84 127q-59 0 -112.5 -67 t-87 -159t-52.5 -196z" />
<glyph unicode="&#xe7;" horiz-adv-x="1019" d="M4 -410l10 11q23 -19 74.5 -32t101.5 -13q92 0 140.5 50.5t48.5 127.5q0 56 -26.5 93.5t-84.5 37.5q-38 0 -80 -17l-4 7l168 129q-156 21 -235.5 121t-79.5 241q0 109 49 208t130 168.5t187 110.5t218 41q162 0 256 -79.5t94 -184.5q0 -73 -44.5 -124.5t-119.5 -51.5 q-72 0 -116 47t-44 115q0 62 37.5 108t95.5 56q-27 100 -121 100q-59 0 -109 -37.5t-82.5 -96.5t-55.5 -133t-33 -144.5t-10 -133.5q0 -137 52 -208.5t152 -71.5q154 0 316 153l8 -8q-213 -203 -469 -203q-12 0 -57 5l-138 -109q59 16 136 16q113 0 177 -39t64 -118 q0 -69 -50 -118t-125 -70t-165 -21q-83 0 -154.5 18t-111.5 49z" />
<glyph unicode="&#xe8;" horiz-adv-x="1048" d="M35 338q0 105 47.5 203.5t127 171.5t189.5 117t230 44q156 0 265.5 -67t109.5 -172q0 -52 -30 -91.5t-83.5 -62t-115.5 -37t-136.5 -18.5t-136 -3.5t-123.5 5.5q-10 -56 -10 -123q0 -123 56 -195.5t165 -72.5q154 0 317 151l8 -8q-43 -40 -84 -70.5t-100 -63.5t-133 -51 t-156 -18q-103 0 -182.5 29t-127.5 79.5t-72.5 114.5t-24.5 138zM381 442q88 -2 155.5 22.5t105.5 68t56.5 95t18.5 109.5q0 127 -84 127q-59 0 -112.5 -67t-87 -159t-52.5 -196zM420.5 1278.5q2.5 48.5 40.5 75.5q38 28 85 14t79 -61q14 -22 30 -58.5t27.5 -69.5t33 -96.5 t36.5 -105.5l-4 -4q-60 42 -135.5 89t-108.5 71.5t-53 52.5q-33 44 -30.5 92.5z" />
<glyph unicode="&#xe9;" horiz-adv-x="1048" d="M35 338q0 105 47.5 203.5t127 171.5t189.5 117t230 44q156 0 265.5 -67t109.5 -172q0 -52 -30 -91.5t-83.5 -62t-115.5 -37t-136.5 -18.5t-136 -3.5t-123.5 5.5q-10 -56 -10 -123q0 -123 56 -195.5t165 -72.5q154 0 317 151l8 -8q-43 -40 -84 -70.5t-100 -63.5t-133 -51 t-156 -18q-103 0 -182.5 29t-127.5 79.5t-72.5 114.5t-24.5 138zM381 442q88 -2 155.5 22.5t105.5 68t56.5 95t18.5 109.5q0 127 -84 127q-59 0 -112.5 -67t-87 -159t-52.5 -196zM471 979q250 289 307 336q50 39 94.5 37.5t73.5 -37.5q24 -29 22 -61t-17.5 -58t-39.5 -45 q-28 -22 -91.5 -48t-173.5 -65t-171 -63z" />
<glyph unicode="&#xea;" horiz-adv-x="1048" d="M35 338q0 105 47.5 203.5t127 171.5t189.5 117t230 44q156 0 265.5 -67t109.5 -172q0 -52 -30 -91.5t-83.5 -62t-115.5 -37t-136.5 -18.5t-136 -3.5t-123.5 5.5q-10 -56 -10 -123q0 -123 56 -195.5t165 -72.5q154 0 317 151l8 -8q-43 -40 -84 -70.5t-100 -63.5t-133 -51 t-156 -18q-103 0 -182.5 29t-127.5 79.5t-72.5 114.5t-24.5 138zM328 950l305 322q48 51 100 51q53 0 76 -51l158 -322l-4 -4l-277 170l-354 -170zM381 442q88 -2 155.5 22.5t105.5 68t56.5 95t18.5 109.5q0 127 -84 127q-59 0 -112.5 -67t-87 -159t-52.5 -196z" />
<glyph unicode="&#xeb;" horiz-adv-x="1048" d="M35 338q0 105 47.5 203.5t127 171.5t189.5 117t230 44q156 0 265.5 -67t109.5 -172q0 -52 -30 -91.5t-83.5 -62t-115.5 -37t-136.5 -18.5t-136 -3.5t-123.5 5.5q-10 -56 -10 -123q0 -123 56 -195.5t165 -72.5q154 0 317 151l8 -8q-43 -40 -84 -70.5t-100 -63.5t-133 -51 t-156 -18q-103 0 -182.5 29t-127.5 79.5t-72.5 114.5t-24.5 138zM356 1153q0 59 41.5 101t102.5 42q60 0 102.5 -42t42.5 -103q0 -60 -42 -102.5t-101 -42.5t-102.5 43t-43.5 104zM381 442q88 -2 155.5 22.5t105.5 68t56.5 95t18.5 109.5q0 127 -84 127q-59 0 -112.5 -67 t-87 -159t-52.5 -196zM750 1153q0 59 41 101t102 42q60 0 102.5 -42t42.5 -103q0 -60 -42 -102.5t-101 -42.5t-102 43t-43 104z" />
<glyph unicode="&#xec;" horiz-adv-x="641" d="M53 762l2 12q171 100 314 100q100 0 135.5 -60t11.5 -163l-117 -516q-9 -40 3 -61t40 -21q29 0 105 35l-2 -12q-173 -101 -314 -101q-100 0 -135.5 60.5t-11.5 163.5l117 516q9 40 -3 61t-40 21q-29 0 -105 -35zM238 1278q3 48 41 76t84.5 14t78.5 -61q14 -22 30 -58.5 t27.5 -69.5t33 -96.5t36.5 -105.5l-4 -4q-60 42 -135.5 89t-108.5 71.5t-53 52.5q-33 44 -30 92z" />
<glyph unicode="&#xed;" horiz-adv-x="641" d="M53 762l2 12q171 100 314 100q100 0 135.5 -60t11.5 -163l-117 -516q-9 -40 3 -61t40 -21q29 0 105 35l-2 -12q-173 -101 -314 -101q-100 0 -135.5 60.5t-11.5 163.5l117 516q9 40 -3 61t-40 21q-29 0 -105 -35zM205 979q250 289 307 336q50 39 94.5 37.5t73.5 -37.5 q24 -29 22 -61t-17.5 -58t-39.5 -45q-28 -22 -91.5 -48t-173.5 -65t-171 -63z" />
<glyph unicode="&#xee;" horiz-adv-x="641" d="M53 762l2 12q171 100 314 100q100 0 135.5 -60t11.5 -163l-117 -516q-9 -40 3 -61t40 -21q29 0 105 35l-2 -12q-173 -101 -314 -101q-100 0 -135.5 60.5t-11.5 163.5l117 516q9 40 -3 61t-40 21q-29 0 -105 -35zM84 950l305 322q48 51 100 51q53 0 76 -51l158 -322l-4 -4 l-277 170l-354 -170z" />
<glyph unicode="&#xef;" horiz-adv-x="641" d="M53 762l2 12q171 100 314 100q100 0 135.5 -60t11.5 -163l-117 -516q-9 -40 3 -61t40 -21q29 0 105 35l-2 -12q-173 -101 -314 -101q-100 0 -135.5 60.5t-11.5 163.5l117 516q9 40 -3 61t-40 21q-29 0 -105 -35zM111 1153q0 59 41 101t102 42q60 0 102.5 -42t42.5 -103 q0 -60 -42 -102.5t-101 -42.5t-102 43t-43 104zM504 1153q0 59 41 101t102 42q60 0 103 -42t43 -103q0 -60 -42.5 -102.5t-101.5 -42.5t-102 43t-43 104z" />
<glyph unicode="&#xf0;" horiz-adv-x="1177" d="M37 342q0 139 79 249.5t209 170t283 59.5q70 0 162 -18q-18 180 -106 325l-330 -149l-6 14l327 148q-74 118 -202 200l4 9q155 -92 266 -179l301 138l2 -17l-289 -131q367 -293 367 -602q0 -71 -17.5 -145t-61.5 -154t-110 -141.5t-173.5 -101.5t-241.5 -40 q-215 0 -339 96t-124 269zM354 211q0 -219 133 -219q55 0 100.5 33.5t75 88.5t53 126.5t34.5 147.5t19 151t6 137.5t-3 107.5q-58 13 -84 13q-65 0 -119 -31t-89 -83t-61 -113.5t-39.5 -130t-19.5 -124.5t-6 -104z" />
<glyph unicode="&#xf1;" horiz-adv-x="1234" d="M49 0l162 715q9 40 -3 61t-40 21q-29 0 -105 -35l3 12q171 100 313 100q96 0 132.5 -56t16.5 -154q107 98 201.5 154t190.5 56q103 0 158 -69t24 -211l-103 -459q-9 -40 3 -61t40 -21q29 0 105 35l-2 -12q-173 -101 -314 -101q-100 0 -135.5 60.5t-11.5 163.5l109 465 q11 46 -4 72t-54 26q-32 0 -72 -20.5t-65.5 -40.5t-73.5 -60l-145 -641h-330zM420 989q4 13 14.5 49.5t18.5 60t22 59.5t30 59.5t37.5 47t49.5 35t61 11.5q52 0 157 -48.5t161 -48.5q34 0 60 11t42 31.5t24.5 37.5t16.5 39l10 -2q-3 -9 -13 -41t-14 -44.5t-14.5 -42.5 t-17.5 -44t-19.5 -38.5t-23 -37t-26 -29t-31 -24.5t-35 -14t-41.5 -6q-51 0 -154.5 48t-161.5 48q-34 0 -60 -11t-42.5 -32t-25 -37t-17.5 -39z" />
<glyph unicode="&#xf2;" horiz-adv-x="1169" d="M37 348q0 142 84 264t224.5 192t301.5 70q85 0 161.5 -21t141.5 -63.5t103.5 -115.5t38.5 -168q0 -144 -84.5 -266.5t-225.5 -192.5t-303 -70q-122 0 -220.5 40t-160 125.5t-61.5 205.5zM344 166q0 -174 117 -174q55 0 104 38.5t83 101.5t61.5 139t43.5 155t24.5 145.5 t8.5 114.5q0 174 -116 174q-65 0 -121.5 -55t-92.5 -137t-62.5 -179.5t-38 -180.5t-11.5 -142zM502 1278q3 48 41 76t85 14t79 -61q14 -22 30 -58.5t27.5 -69.5t33 -96.5t36.5 -105.5l-5 -4q-60 42 -135.5 89t-108.5 71.5t-53 52.5q-33 44 -30 92z" />
<glyph unicode="&#xf3;" horiz-adv-x="1169" d="M37 348q0 142 84 264t224.5 192t301.5 70q85 0 161.5 -21t141.5 -63.5t103.5 -115.5t38.5 -168q0 -144 -84.5 -266.5t-225.5 -192.5t-303 -70q-122 0 -220.5 40t-160 125.5t-61.5 205.5zM344 166q0 -174 117 -174q55 0 104 38.5t83 101.5t61.5 139t43.5 155t24.5 145.5 t8.5 114.5q0 174 -116 174q-65 0 -121.5 -55t-92.5 -137t-62.5 -179.5t-38 -180.5t-11.5 -142zM528 979q247 286 308 336q50 39 94.5 37.5t73.5 -37.5q24 -29 22 -61t-17.5 -58t-39.5 -45q-28 -22 -92 -48t-173.5 -65t-171.5 -63z" />
<glyph unicode="&#xf4;" horiz-adv-x="1169" d="M37 348q0 142 84 264t224.5 192t301.5 70q85 0 161.5 -21t141.5 -63.5t103.5 -115.5t38.5 -168q0 -144 -84.5 -266.5t-225.5 -192.5t-303 -70q-122 0 -220.5 40t-160 125.5t-61.5 205.5zM344 166q0 -174 117 -174q55 0 104 38.5t83 101.5t61.5 139t43.5 155t24.5 145.5 t8.5 114.5q0 174 -116 174q-65 0 -121.5 -55t-92.5 -137t-62.5 -179.5t-38 -180.5t-11.5 -142zM369 950l305 322q48 51 100 51q53 0 76 -51l158 -322l-4 -4l-277 170l-354 -170z" />
<glyph unicode="&#xf5;" horiz-adv-x="1169" d="M37 348q0 142 84 264t224.5 192t301.5 70q85 0 161.5 -21t141.5 -63.5t103.5 -115.5t38.5 -168q0 -144 -84.5 -266.5t-225.5 -192.5t-303 -70q-122 0 -220.5 40t-160 125.5t-61.5 205.5zM344 166q0 -174 117 -174q55 0 104 38.5t83 101.5t61.5 139t43.5 155t24.5 145.5 t8.5 114.5q0 174 -116 174q-65 0 -121.5 -55t-92.5 -137t-62.5 -179.5t-38 -180.5t-11.5 -142zM387 989q4 12 14.5 49t18.5 60.5t22 59.5t30.5 59.5t37.5 47t49.5 35t61.5 11.5q52 0 156.5 -48.5t160.5 -48.5q34 0 60 11t42 31.5t24.5 37.5t16.5 39l11 -2q-44 -137 -62 -177 q-67 -143 -174 -144q-51 0 -154 48t-161 48q-34 0 -60 -11t-43 -31.5t-25.5 -37t-17.5 -39.5z" />
<glyph unicode="&#xf6;" horiz-adv-x="1169" d="M37 348q0 142 84 264t224.5 192t301.5 70q85 0 161.5 -21t141.5 -63.5t103.5 -115.5t38.5 -168q0 -144 -84.5 -266.5t-225.5 -192.5t-303 -70q-122 0 -220.5 40t-160 125.5t-61.5 205.5zM344 166q0 -174 117 -174q55 0 104 38.5t83 101.5t61.5 139t43.5 155t24.5 145.5 t8.5 114.5q0 174 -116 174q-65 0 -121.5 -55t-92.5 -137t-62.5 -179.5t-38 -180.5t-11.5 -142zM393 1153q0 59 41.5 101t102.5 42q60 0 102.5 -42t42.5 -103q0 -60 -42 -102.5t-101 -42.5t-102.5 43t-43.5 104zM786 1153q0 59 41.5 101t102.5 42q60 0 102.5 -42t42.5 -103 q0 -60 -42 -102.5t-101 -42.5t-102.5 43t-43.5 104z" />
<glyph unicode="&#xf7;" horiz-adv-x="1167" d="M123 494l4 18h911l-4 -18h-911zM401 172q0 43 30 72.5t73 29.5t72.5 -29.5t29.5 -72.5q0 -42 -30 -72t-72 -30t-72.5 30t-30.5 72zM555 834q0 43 29.5 72.5t72.5 29.5t73 -29.5t30 -72.5q0 -42 -30.5 -72.5t-72.5 -30.5t-72 30.5t-30 72.5z" />
<glyph unicode="&#xf8;" horiz-adv-x="1169" d="M20 -6l121 98q-104 93 -104 256q0 142 84 264t224.5 192t301.5 70q202 0 326 -104l125 102l10 -12l-121 -100q105 -95 105 -254q0 -144 -84.5 -266.5t-225.5 -192.5t-303 -70q-202 0 -325 105l-123 -100zM343 165.5q2 -42.5 10 -81t36 -65.5t72 -27q70 0 129.5 61.5 t97 158.5t60 193.5t32.5 188.5l-432 -354q-7 -32 -5 -74.5zM348 262l434 352q3 28 4 51t0 54t-8 54t-19.5 44t-35 32t-53.5 11q-70 0 -129 -61t-97 -157t-62 -192t-34 -188z" />
<glyph unicode="&#xf9;" horiz-adv-x="1232" d="M47 762l2 12q171 100 313 100q101 0 136.5 -60t11.5 -163l-100 -430q-16 -72 5.5 -106.5t71.5 -34.5q74 0 172 76l160 696h326l-162 -717q-9 -40 3 -61t40 -21t104 35l-2 -12q-173 -101 -313 -101q-85 0 -124 43.5t-34 120.5q-191 -162 -370 -162q-113 0 -169 69.5 t-24 211.5l101 457q9 40 -3 61t-40 21q-29 0 -105 -35zM489.5 1278.5q2.5 48.5 40.5 75.5q38 28 85 14t79 -61q14 -22 30 -58.5t27.5 -69.5t33 -96.5t36.5 -105.5l-4 -4q-60 42 -135.5 89t-108.5 71.5t-53 52.5q-33 44 -30.5 92.5z" />
<glyph unicode="&#xfa;" horiz-adv-x="1232" d="M47 762l2 12q171 100 313 100q101 0 136.5 -60t11.5 -163l-100 -430q-16 -72 5.5 -106.5t71.5 -34.5q74 0 172 76l160 696h326l-162 -717q-9 -40 3 -61t40 -21t104 35l-2 -12q-173 -101 -313 -101q-85 0 -124 43.5t-34 120.5q-191 -162 -370 -162q-113 0 -169 69.5 t-24 211.5l101 457q9 40 -3 61t-40 21q-29 0 -105 -35zM520 979q250 289 307 336q50 39 94.5 37.5t73.5 -37.5q24 -29 22 -61t-17 -58t-39 -45q-28 -22 -92 -48t-173.5 -65t-171.5 -63z" />
<glyph unicode="&#xfb;" horiz-adv-x="1232" d="M47 762l2 12q171 100 313 100q101 0 136.5 -60t11.5 -163l-100 -430q-16 -72 5.5 -106.5t71.5 -34.5q74 0 172 76l160 696h326l-162 -717q-9 -40 3 -61t40 -21t104 35l-2 -12q-173 -101 -313 -101q-85 0 -124 43.5t-34 120.5q-191 -162 -370 -162q-113 0 -169 69.5 t-24 211.5l101 457q9 40 -3 61t-40 21q-29 0 -105 -35zM371 950l305 322q48 51 100 51q53 0 76 -51l158 -322l-4 -4l-277 170l-354 -170z" />
<glyph unicode="&#xfc;" horiz-adv-x="1232" d="M47 762l2 12q171 100 313 100q101 0 136.5 -60t11.5 -163l-100 -430q-16 -72 5.5 -106.5t71.5 -34.5q74 0 172 76l160 696h326l-162 -717q-9 -40 3 -61t40 -21t104 35l-2 -12q-173 -101 -313 -101q-85 0 -124 43.5t-34 120.5q-191 -162 -370 -162q-113 0 -169 69.5 t-24 211.5l101 457q9 40 -3 61t-40 21q-29 0 -105 -35zM395 1153q0 59 41.5 101t102.5 42q60 0 102.5 -42t42.5 -103q0 -60 -42 -102.5t-101 -42.5t-102.5 43t-43.5 104zM788 1153q0 59 41.5 101t102.5 42q60 0 102.5 -42t42.5 -103q0 -60 -42 -102.5t-101 -42.5t-102.5 43 t-43.5 104z" />
<glyph unicode="&#xfd;" horiz-adv-x="991" d="M-285 -268q0 54 37.5 84t100.5 41.5t131.5 18.5t144.5 26.5t125 54.5l63 45l-153 758q-6 37 -45 37q-29 0 -105 -35l2 12q171 100 314 100q68 0 106.5 -28t46.5 -78l92 -580q255 212 277 379q-27 -10 -64 -10q-70 0 -113.5 45.5t-43.5 110.5q0 68 46.5 114.5t119.5 46.5 q56 0 93.5 -30t51.5 -69t14 -81q0 -73 -48.5 -161t-134 -177.5t-190 -175t-227.5 -168.5l-53 -37q-29 -20 -72 -64.5t-85 -87.5t-92 -85t-109 -68t-119 -26q-51 0 -81 25t-30 63zM455 979q250 289 307 336q50 39 94.5 37.5t73.5 -37.5q24 -29 22 -61t-17.5 -58t-39.5 -45 q-28 -22 -91.5 -48t-173.5 -65t-171 -63z" />
<glyph unicode="&#xfe;" horiz-adv-x="1171" d="M-184 -334l2 12q76 0 110 44.5t56 134.5l299 1286q12 52 14 90t-21.5 60t-76.5 22l4 12l456 41l-141 -612q139 118 287 118q142 0 216.5 -96.5t74.5 -242.5q0 -142 -67 -268.5t-196 -208t-292 -81.5q-126 0 -193 48l-43 -185q-20 -80 4 -121t101 -41l-2 -12h-592z M377 147q-15 -65 8.5 -108t87.5 -43q66 0 123 67t92 164t54.5 194.5t19.5 168.5q0 88 -31.5 143t-91.5 55q-58 0 -127 -53z" />
<glyph unicode="&#xff;" horiz-adv-x="991" d="M-285 -268q0 54 37.5 84t100.5 41.5t131.5 18.5t144.5 26.5t125 54.5l63 45l-153 758q-6 37 -45 37q-29 0 -105 -35l2 12q171 100 314 100q68 0 106.5 -28t46.5 -78l92 -580q255 212 277 379q-27 -10 -64 -10q-70 0 -113.5 45.5t-43.5 110.5q0 68 46.5 114.5t119.5 46.5 q56 0 93.5 -30t51.5 -69t14 -81q0 -73 -48.5 -161t-134 -177.5t-190 -175t-227.5 -168.5l-53 -37q-29 -20 -72 -64.5t-85 -87.5t-92 -85t-109 -68t-119 -26q-51 0 -81 25t-30 63zM299 1153q0 59 41 101t102 42q60 0 103 -42t43 -103q0 -60 -42.5 -102.5t-101.5 -42.5 t-102 43t-43 104zM692 1153q0 59 41.5 101t102.5 42q60 0 102.5 -42t42.5 -103q0 -60 -42 -102.5t-101 -42.5t-102.5 43t-43.5 104z" />
<glyph unicode="&#x152;" horiz-adv-x="2207" d="M90 498q0 144 65.5 286.5t177 254.5t272.5 181.5t339 69.5q58 0 242.5 -12t257.5 -12h790l-69 -432l-8 -3q1 91 -21 165.5t-67.5 132.5t-123 90t-180.5 32h-147l-141 -612h63q77 0 147 26t123 71.5t93 98.5t69 115h8l-145 -633h-8q-2 61 -17.5 113.5t-47.5 97.5t-89.5 71 t-134.5 26h-63l-142 -611h158q361 0 600 451l8 -2l-147 -463h-801q-72 0 -241 -12.5t-226 -12.5q-168 0 -302 61.5t-213 181.5t-79 280zM446 358q0 -182 61.5 -275t211.5 -93q125 0 203 61.5t104 169.5l191 821q25 104 -44.5 169t-181.5 65q-123 0 -228.5 -85.5t-173 -220.5 t-105.5 -295.5t-38 -316.5z" />
<glyph unicode="&#x153;" horiz-adv-x="1761" d="M37 348q0 142 84 264t224.5 192t301.5 70q218 0 332 -120q159 120 362 120q156 0 265.5 -67t109.5 -172q0 -52 -30 -91.5t-83 -62t-115 -37t-136.5 -18.5t-136 -3.5t-123.5 5.5q-11 -62 -11 -123q0 -123 56.5 -195.5t165.5 -72.5q154 0 317 151l8 -8q-43 -40 -84 -70.5 t-100 -63.5t-133 -51t-156 -18q-207 0 -307 115q-160 -115 -369 -115q-122 0 -220.5 40t-160 125.5t-61.5 205.5zM344 166q0 -174 117 -174q55 0 104 38.5t83 101.5t61.5 139t43.5 155t24.5 145.5t8.5 114.5q0 174 -116 174q-65 0 -121.5 -55t-92.5 -137t-62.5 -179.5 t-38 -180.5t-11.5 -142zM1094 442q88 -2 155.5 22.5t105.5 68t56.5 95t18.5 109.5q0 127 -84 127q-59 0 -112.5 -67t-87 -159t-52.5 -196z" />
<glyph unicode="&#x178;" d="M131 1253l2 13h711l-2 -13q-92 0 -128 -61.5t-3 -149.5l166 -440h6l213 260q151 187 151 289t-151 102l2 13h530l-2 -13q-142 0 -283 -135q-85 -82 -233 -266l-217 -262l-80 -348q-13 -57 -13 -98.5t10.5 -67t33.5 -40t51.5 -19.5t69.5 -5l-2 -12h-764l2 12q52 0 88.5 9 t70.5 33t58.5 70.5t40.5 117.5l71 309l-200 506q-39 98 -87.5 147t-111.5 49zM635 1563q0 59 41 101t102 42q60 0 103 -42t43 -103q0 -60 -42.5 -103t-101.5 -43t-102 43.5t-43 104.5zM1028 1563q0 59 41 101t102 42q60 0 103 -42t43 -103q0 -60 -42 -103t-101 -43 t-102.5 43.5t-43.5 104.5z" />
<glyph unicode="&#x2c6;" horiz-adv-x="952" d="M381 950l305 322q48 51 100 51q53 0 76 -51l158 -322l-4 -4l-277 170l-354 -170z" />
<glyph unicode="&#x2dc;" horiz-adv-x="868" d="M352 989q4 12 14.5 49t18.5 60.5t22 59.5t30.5 59.5t37.5 47t49.5 35t61.5 11.5q52 0 156.5 -48.5t160.5 -48.5q34 0 60 11t42.5 31.5t25 37.5t16.5 39l10 -2q-44 -137 -62 -177q-67 -143 -174 -144q-51 0 -154 48t-161 48q-34 0 -60 -11t-43 -31.5t-25.5 -37 t-17.5 -39.5z" />
<glyph unicode="&#x2000;" horiz-adv-x="984" />
<glyph unicode="&#x2001;" horiz-adv-x="1968" />
<glyph unicode="&#x2002;" horiz-adv-x="984" />
<glyph unicode="&#x2003;" horiz-adv-x="1968" />
<glyph unicode="&#x2004;" horiz-adv-x="656" />
<glyph unicode="&#x2005;" horiz-adv-x="492" />
<glyph unicode="&#x2006;" horiz-adv-x="328" />
<glyph unicode="&#x2007;" horiz-adv-x="328" />
<glyph unicode="&#x2008;" horiz-adv-x="246" />
<glyph unicode="&#x2009;" horiz-adv-x="393" />
<glyph unicode="&#x200a;" horiz-adv-x="109" />
<glyph unicode="&#x2010;" horiz-adv-x="776" d="M100 442l19 84h540l-18 -84h-541z" />
<glyph unicode="&#x2011;" horiz-adv-x="776" d="M100 442l19 84h540l-18 -84h-541z" />
<glyph unicode="&#x2012;" horiz-adv-x="776" d="M100 442l19 84h540l-18 -84h-541z" />
<glyph unicode="&#x2013;" horiz-adv-x="1173" d="M100 442l19 84h938l-19 -84h-938z" />
<glyph unicode="&#x2014;" horiz-adv-x="1779" d="M100 442l19 84h1544l-18 -84h-1545z" />
<glyph unicode="&#x2018;" horiz-adv-x="524" d="M178 993q0 83 58.5 170.5t166 162t240.5 114.5l2 -8q-104 -36 -200.5 -119t-135.5 -185q39 17 74 17q73 0 117.5 -48.5t44.5 -113.5q0 -72 -53.5 -123t-133.5 -51q-82 0 -131 53.5t-49 130.5z" />
<glyph unicode="&#x2019;" horiz-adv-x="530" d="M170 817q104 36 200.5 118.5t135.5 184.5q-37 -16 -74 -16q-73 0 -117.5 48.5t-44.5 113.5q0 72 53.5 123t133.5 51q82 0 131 -54t49 -131q0 -83 -59 -170.5t-166 -161.5t-240 -114z" />
<glyph unicode="&#x201a;" horiz-adv-x="548" d="M-88 -285q104 36 200.5 118.5t135.5 184.5q-37 -16 -74 -16q-73 0 -117.5 48.5t-44.5 113.5q0 72 53.5 123t133.5 51q82 0 131 -53.5t49 -130.5q0 -83 -58.5 -170.5t-166 -162t-240.5 -114.5z" />
<glyph unicode="&#x201c;" horiz-adv-x="1001" d="M178 993q0 83 58.5 170.5t166 162t240.5 114.5l2 -8q-104 -36 -200.5 -119t-135.5 -185q39 17 74 17q73 0 117.5 -48.5t44.5 -113.5q0 -72 -53.5 -123t-133.5 -51q-82 0 -131 53.5t-49 130.5zM655 993q0 83 58.5 170.5t166 162t240.5 114.5l2 -8q-104 -36 -200.5 -119 t-135.5 -185q39 17 74 17q73 0 117.5 -48.5t44.5 -113.5q0 -72 -53 -123t-133 -51q-82 0 -131.5 53.5t-49.5 130.5z" />
<glyph unicode="&#x201d;" horiz-adv-x="1007" d="M170 817q104 36 200.5 118.5t135.5 184.5q-37 -16 -74 -16q-73 0 -117.5 48.5t-44.5 113.5q0 72 53.5 123t133.5 51q82 0 131 -54t49 -131q0 -83 -59 -170.5t-166 -161.5t-240 -114zM647 817q104 36 200.5 118.5t135.5 184.5q-37 -16 -74 -16q-73 0 -117 48.5t-44 113.5 q0 72 53 123t133 51q82 0 131 -54t49 -131q0 -83 -59 -170.5t-166 -161.5t-240 -114z" />
<glyph unicode="&#x201e;" horiz-adv-x="1026" d="M-88 -285q104 36 200.5 118.5t135.5 184.5q-37 -16 -74 -16q-73 0 -117.5 48.5t-44.5 113.5q0 72 53.5 123t133.5 51q82 0 131 -53.5t49 -130.5q0 -83 -58.5 -170.5t-166 -162t-240.5 -114.5zM389 -285q104 36 200.5 118.5t135.5 184.5q-37 -16 -74 -16 q-73 0 -117.5 48.5t-44.5 113.5q0 72 53.5 123t133.5 51q82 0 131 -53.5t49 -130.5q0 -83 -58.5 -170.5t-166 -162t-240.5 -114.5z" />
<glyph unicode="&#x2022;" horiz-adv-x="753" d="M141 498q0 95 67.5 162t162.5 67t162 -67t67 -162t-67 -162.5t-162 -67.5t-162.5 67.5t-67.5 162.5z" />
<glyph unicode="&#x2026;" horiz-adv-x="1677" d="M12 160q0 74 52 126t126 52t126.5 -52.5t52.5 -125.5t-52.5 -125.5t-126.5 -52.5t-126 52t-52 126zM586 160q0 74 52 126t126 52t126 -52t52 -126t-52 -126t-126 -52t-126 52t-52 126zM1159 160q0 74 52.5 126t125.5 52q74 0 126.5 -52.5t52.5 -125.5t-52.5 -125.5 t-126.5 -52.5q-73 0 -125.5 52t-52.5 126z" />
<glyph unicode="&#x202f;" horiz-adv-x="393" />
<glyph unicode="&#x2039;" horiz-adv-x="716" d="M35 455l2 8l686 407l4 -8l-508 -403l322 -404l-9 -8z" />
<glyph unicode="&#x203a;" horiz-adv-x="716" d="M-37 55l508 404l-321 403l8 8l497 -407l-2 -8l-686 -408z" />
<glyph unicode="&#x2044;" horiz-adv-x="327" d="M-393 -8l1155 1294l12 -8l-1155 -1294z" />
<glyph unicode="&#x205f;" horiz-adv-x="492" />
<glyph unicode="&#x2070;" horiz-adv-x="892" d="M180 993q0 134 60 246.5t170 180t247 67.5q150 0 234 -84t84 -238q0 -133 -61 -246t-171.5 -180t-246.5 -67q-149 0 -232.5 83t-83.5 238zM408 831q0 -77 16 -114t59 -37q58 0 109.5 66.5t84.5 166t52 210t19 204.5q0 76 -17 113t-59 37q-57 0 -108 -65t-84.5 -163 t-52.5 -209.5t-19 -208.5z" />
<glyph unicode="&#x2074;" horiz-adv-x="831" d="M90 897l131 78q99 60 163.5 154t64.5 186q0 102 -74 172q89 4 166.5 -8t135.5 -51.5t58 -102.5q0 -48 -33.5 -90.5t-93 -78t-118.5 -63.5t-134 -62t-116 -58l-121 -72h409l27 98l281 213h6l-74 -311q39 -1 64 2t37 6.5t16 3.5q22 0 22 -16q0 -10 -9.5 -15t-20.5 -5 q-5 0 -15.5 3t-34.5 5.5t-61 1.5l-14 -60q-8 -31 -9.5 -53.5t4 -37t13 -23t23.5 -13t30.5 -5.5t38.5 -1l-2 -8h-524v8q79 0 122 29.5t66 118.5l12 49h-434z" />
<glyph unicode="&#x2075;" horiz-adv-x="815" d="M119 848q0 52 33.5 87.5t87.5 35.5q52 0 82 -33.5t30 -83.5q0 -47 -27 -81t-69 -40q33 -47 104 -47q60 0 107.5 26.5t76 70t43.5 93.5t15 101q0 160 -149 160q-49 0 -99 -15.5t-84 -38.5q-19 -37 -35 -42q-4 -1 -8 -1q-16 0 -16 17q0 23 47 35l127 378q242 -14 334 -9 q186 8 237 67q2 -12 2 -31q0 -59 -17 -105t-43.5 -74t-62 -46t-70 -24.5t-71.5 -6.5q-78 0 -139.5 32.5t-181.5 121.5l-103 -299q119 65 260 65q87 0 157.5 -22t118.5 -75t48 -130q0 -125 -118 -193.5t-300 -68.5q-154 0 -235.5 49t-81.5 127z" />
<glyph unicode="&#x2076;" horiz-adv-x="876" d="M174 977q0 135 64.5 250.5t188 187.5t280.5 72q132 0 201 -49t69 -125q0 -54 -31.5 -88.5t-85.5 -34.5q-52 0 -83.5 32.5t-31.5 82.5q0 42 24.5 73.5t61.5 40.5q-18 58 -83 58q-71 0 -139 -62t-115.5 -161.5t-69.5 -215.5q74 152 250 152q108 0 178 -55.5t70 -153.5 q0 -129 -115 -219t-301 -90q-169 0 -250.5 80.5t-81.5 224.5zM381 827q-5 -147 98 -147q57 0 102.5 44.5t69.5 108.5t36.5 123.5t12.5 102.5q0 102 -90 102q-69 0 -122 -53t-79 -127.5t-28 -153.5z" />
<glyph unicode="&#x2077;" horiz-adv-x="712" d="M186 1102l84 368h15l-45 -229h2q17 47 28.5 74.5t31.5 65t39.5 58t48.5 35.5t63 15q45 0 87 -26.5t69.5 -57.5t66 -57.5t78.5 -26.5q34 0 64 17.5t47.5 43.5t28 49t13.5 39h15q-7 -37 -23 -71t-30.5 -54t-43.5 -55q-73 -88 -112.5 -139t-89.5 -128t-85.5 -158t-64.5 -179 h-240q28 95 142.5 229t306.5 283q15 12 51.5 39.5t52 39.5t38 34.5t38.5 44.5q-2 2 -4 2q-40 -52 -99.5 -93.5t-131.5 -41.5q-23 0 -116.5 11t-150.5 11q-31 0 -50.5 -4t-42.5 -17.5t-40 -43.5t-30 -78h-11z" />
<glyph unicode="&#x2078;" horiz-adv-x="909" d="M137 862q0 36 18.5 71.5t60 71.5t122 61.5t190.5 31.5q-268 16 -268 164q0 92 101.5 158.5t304.5 66.5q164 0 256 -46.5t92 -129.5q0 -86 -94.5 -144.5t-264.5 -68.5q150 -9 218.5 -57t68.5 -123q0 -32 -11 -63t-40.5 -65t-75.5 -59.5t-124 -42t-177 -16.5 q-196 0 -286.5 55.5t-90.5 134.5zM391 799q0 -119 86 -119q67 0 117 50t72 116t22 131q0 41 -9.5 67t-26.5 35.5t-28 12t-28 2.5q-63 0 -111.5 -49t-71 -115t-22.5 -131zM508 1210q0 -108 88 -108q47 0 82.5 29.5t52.5 74.5t25 86t8 76q0 109 -84 109q-44 0 -79 -28 t-54.5 -71t-29 -86.5t-9.5 -81.5z" />
<glyph unicode="&#x2079;" horiz-adv-x="876" d="M160 844q0 52 33.5 87.5t85.5 35.5q50 0 81 -33.5t31 -81.5q0 -44 -27 -77t-65 -42q28 -51 109 -51q44 0 83 18.5t67.5 46.5t53 71t40.5 81.5t30.5 89.5t21.5 83.5t15 74.5q-72 -164 -254 -164q-108 0 -178 52t-70 149q0 124 111.5 213.5t296.5 89.5q171 0 254.5 -82.5 t83.5 -224.5q0 -96 -37 -186.5t-103 -162.5t-167 -115.5t-220 -43.5q-132 0 -204 49.5t-72 122.5zM444 1143q0 -131 93 -131q79 0 141.5 87.5t62.5 227.5q0 80 -23.5 115t-70.5 35q-64 0 -112.5 -58.5t-69.5 -132.5t-21 -143z" />
<glyph unicode="&#x2080;" horiz-adv-x="892" d="M-27 102q0 134 60 246.5t170.5 180t247.5 67.5q150 0 233.5 -84t83.5 -238q0 -133 -61 -246t-171.5 -180t-246.5 -67q-149 0 -232.5 83t-83.5 238zM201 -59q0 -77 16 -114.5t59 -37.5q58 0 109.5 66.5t84.5 166t52 210t19 204.5q0 76 -17 113t-59 37q-57 0 -108 -64.5 t-84.5 -163t-52.5 -209.5t-19 -208z" />
<glyph unicode="&#x2081;" horiz-adv-x="565" d="M-139 -197q80 0 123 29.5t65 118.5l113 455q9 36 -0.5 51.5t-44.5 15.5h-94l4 8q232 25 409 101l6 -2l-155 -643q-9 -37 -8.5 -62t7 -39t23.5 -21.5t33.5 -9.5t44.5 -2l-2 -8h-524v8z" />
<glyph unicode="&#x2082;" horiz-adv-x="829" d="M-86 -205q5 84 31 135.5t90 98.5q39 29 106.5 67t120 69t105 71.5t81.5 93.5t29 116q0 140 -133 140q-58 0 -105 -27t-75 -70q36 -8 62 -39.5t26 -76.5q0 -51 -33.5 -85t-83.5 -34t-82.5 36.5t-32.5 84.5q0 85 103.5 153t271.5 68q87 0 157 -18.5t118.5 -66t48.5 -118.5 q0 -69 -46 -114t-125 -71.5t-165 -48.5t-187 -62t-171 -95q-56 -45 -62 -63q75 100 252 100q51 0 141.5 -11.5t130.5 -11.5q79 0 124 34t48 122h9q1 -38 -5 -85t-23 -102.5t-44 -100.5t-72 -75t-102 -30q-47 0 -85.5 21.5t-65.5 51.5t-53 60.5t-61 52t-77 21.5 q-70 0 -111 -55t-43 -136h-12z" />
<glyph unicode="&#x2083;" horiz-adv-x="833" d="M-80 -47q0 52 34.5 89.5t86.5 37.5q49 0 81 -34.5t32 -84.5q0 -43 -26 -75.5t-67 -43.5q35 -47 121 -47q104 0 162.5 70t58.5 168q0 76 -42 115.5t-138 39.5q-29 0 -49.5 -3.5t-30.5 -7t-14 -3.5q-8 0 -15.5 4.5t-7.5 11.5q0 10 10 16.5t21 6.5q3 0 28 -8t62 -8 q66 0 116 22t78.5 58.5t42 78t13.5 86.5q0 138 -135 138q-92 0 -143 -58q31 -11 54 -42t23 -72q0 -47 -32 -80t-82 -33q-51 0 -81 34.5t-30 78.5q0 82 100.5 135t254.5 53q149 0 236 -53t87 -142q0 -55 -34.5 -95.5t-95.5 -63.5t-135.5 -34t-162.5 -11h-14l-2 -7h16 q158 0 256 -48t98 -142q0 -72 -59.5 -123t-149.5 -73.5t-200 -22.5q-161 0 -243.5 49t-82.5 123z" />
<glyph unicode="&#x2084;" horiz-adv-x="831" d="M-115 6l131 78q99 60 163.5 154t64.5 186q0 102 -74 172q89 4 166.5 -8t135.5 -51.5t58 -102.5q0 -48 -33.5 -90.5t-93 -78t-118.5 -63.5t-134 -62t-116 -58l-121 -72h410l26 99l281 213h6l-74 -312q39 -1 64 2.5t37 7t16 3.5q10 0 16 -5t6 -12q0 -10 -9.5 -15t-20.5 -5 q-5 0 -15.5 3t-34.5 5.5t-61 1.5l-14 -59q-9 -37 -9 -62t6.5 -39t23.5 -21.5t34 -9.5t45 -2l-2 -8h-524v8q79 0 122 29.5t66 118.5l13 49h-435z" />
<glyph unicode="&#x2085;" horiz-adv-x="815" d="M-86 -43q0 52 33.5 87.5t87.5 35.5q52 0 82 -34t30 -83q0 -47 -27 -81t-69 -40q33 -47 105 -47q59 0 107 26.5t76 70t43 93.5t15 101q0 160 -149 160q-103 0 -182 -53q-19 -37 -35 -42q-4 -1 -8 -1q-17 0 -17 16q0 23 47 35l127 379q238 -14 325 -10q194 7 247 67 q2 -12 2 -31q0 -73 -25 -126t-66 -79.5t-84 -38.5t-90 -12q-78 0 -139.5 32.5t-181.5 121.5l-102 -299q119 65 260 65q87 0 157.5 -22t118 -75t47.5 -130q0 -125 -118 -193.5t-300 -68.5q-154 0 -235.5 49t-81.5 127z" />
<glyph unicode="&#x2086;" horiz-adv-x="876" d="M-33 86q0 135 64.5 250.5t188 187.5t280.5 72q132 0 201 -49t69 -125q0 -54 -31.5 -88.5t-85.5 -34.5q-52 0 -83 32.5t-31 82.5q0 42 24.5 73.5t61.5 40.5q-18 58 -84 58q-71 0 -139 -62t-115.5 -161.5t-69.5 -215.5q74 152 250 152q108 0 178 -55.5t70 -153.5 q0 -129 -115 -219t-301 -90q-169 0 -250.5 80.5t-81.5 224.5zM174 -63q-5 -148 98 -148q57 0 102.5 44.5t70 108.5t37 123.5t12.5 102.5q0 102 -91 102q-69 0 -122 -53t-79 -127t-28 -153z" />
<glyph unicode="&#x2087;" horiz-adv-x="712" d="M-18 211l84 369h14l-45 -230h2q17 47 28.5 74.5t31.5 65t39.5 58t48.5 35.5t63 15q37 0 71 -17.5t60 -42t51 -49t55.5 -42t63.5 -17.5q45 0 81 31t52 63t20 56h15q-9 -53 -31.5 -91.5t-64.5 -89.5q-73 -89 -112 -139.5t-90 -127.5t-86.5 -158t-64.5 -179h-239 q28 95 142 229t306 283q15 12 51.5 39.5t52 39.5t38 34.5t38.5 44.5q-2 2 -4 2q-40 -52 -99.5 -93.5t-131.5 -41.5q-23 0 -116 11t-150 11q-31 0 -51 -4t-42.5 -17.5t-40 -43.5t-30.5 -78h-10z" />
<glyph unicode="&#x2088;" horiz-adv-x="909" d="M-70 -29q0 28 10.5 56t38.5 59t71 55t113 42.5t159 23.5q-269 16 -269 164q0 92 101.5 158.5t304.5 66.5q164 0 256 -46.5t92 -129.5q0 -86 -94 -144.5t-264 -68.5q150 -9 218 -57t68 -123q0 -32 -11 -63t-40.5 -65t-75.5 -59.5t-124 -42t-177 -16.5q-196 0 -286.5 55.5 t-90.5 134.5zM184 -92q0 -119 86 -119q67 0 117 50t72 116t22 131q0 41 -9.5 67t-26.5 35.5t-28 12t-28 2.5q-63 0 -111.5 -49t-71 -115t-22.5 -131zM301 319q0 -108 88 -108q47 0 82.5 29.5t52.5 74.5t25 86t8 76q0 109 -84 109q-44 0 -79 -28t-54.5 -71t-29 -86.5 t-9.5 -81.5z" />
<glyph unicode="&#x2089;" horiz-adv-x="876" d="M-45 -47q0 52 33.5 87.5t85.5 35.5q50 0 81 -33.5t31 -81.5q0 -44 -27 -77t-65 -42q28 -51 109 -51q44 0 83 18.5t67.5 46.5t53 71t40.5 81.5t30.5 89.5t21.5 83.5t15 74.5q-72 -164 -254 -164q-108 0 -178 52t-70 149q0 124 111.5 213.5t296.5 89.5q171 0 254.5 -82.5 t83.5 -224.5q0 -96 -37 -186.5t-103 -162.5t-167 -115.5t-220 -43.5q-132 0 -204 49.5t-72 122.5zM240 252q0 -131 92 -131q79 0 142 87.5t63 227.5q0 79 -24 114.5t-71 35.5q-49 0 -89 -34t-64 -86t-36.5 -108t-12.5 -106z" />
<glyph unicode="&#x20ac;" horiz-adv-x="1445" d="M63 496l5 18h131q6 129 57 256h-129l4 18h133q96 221 300 361.5t450 140.5q112 0 198.5 -31t134.5 -82t71.5 -106.5t23.5 -112.5q0 -86 -47 -141t-123 -55q-72 0 -122 51.5t-50 126.5q0 70 43.5 120t109.5 58q-35 156 -194 156q-86 0 -161.5 -40t-132.5 -110 t-99.5 -153.5t-73.5 -182.5h379l-4 -18h-381q-37 -121 -54 -256h375l-4 -18h-373q-4 -74 -4 -101q0 -79 15 -146t47.5 -123t91 -88t137.5 -32q262 0 494 367l12 -6q-62 -95 -117 -159.5t-127 -121t-161.5 -84t-198.5 -27.5q-240 0 -380 131.5t-140 368.5v21h-136z" />
<glyph unicode="&#x2122;" horiz-adv-x="1779" d="M213 1038l70 228h600l-37 -228h-4q-3 38 -9 67.5t-18 59t-29.5 49t-45.5 31.5t-64 12h-8l-115 -493q-16 -67 3 -90t71 -23v-6h-375v6q51 0 81 23t46 90l115 493h-11q-150 0 -266 -219h-4zM774 645l2 6q76 0 120 51t85 187l59 194q31 85 15.5 131t-92.5 46l2 6h260 l104 -416l275 416h223l-2 -6q-48 0 -73 -33t-36 -99l-61 -342q-14 -69 -1.5 -102t62.5 -33l-2 -6h-344l2 6q48 0 73 30.5t36 94.5l67 387l-340 -510h-4l-131 500l-84 -264q-43 -135 -30.5 -186.5t88.5 -51.5l-3 -6h-270z" />
<glyph unicode="&#x25fc;" horiz-adv-x="880" d="M0 0v881h881v-881h-881z" />
<glyph unicode="&#xfb06;" horiz-adv-x="1617" d="M0 186q0 54 37 96t94 42q55 0 90 -37t35 -92q0 -41 -20 -72.5t-54 -46.5q42 -86 158 -86q88 0 150.5 43.5t62.5 109.5q0 39 -24.5 68.5t-63.5 48t-86.5 35.5t-95 38t-86.5 47.5t-63.5 72t-24.5 104.5q0 139 120 228t301 89q92 0 168 -26q-55 91 -55 215q0 126 71.5 229.5 t185.5 160t241 56.5q163 0 254.5 -92t91.5 -233q0 -65 -10 -103l-54 -229h252l-6 -29h-252l-141 -616q-18 -75 -0.5 -107t67.5 -32q96 0 222 114l8 -8q-92 -86 -190 -141.5t-214 -55.5q-124 0 -180.5 72.5t-23.5 212.5l129 559h-117l4 21q238 0 361.5 86.5t123.5 253.5 q0 78 -26.5 139t-72 97.5t-103 55.5t-123.5 19q-88 0 -174 -32.5t-153 -88t-108.5 -136.5t-41.5 -171q0 -130 65 -227q68 -29 105.5 -73t37.5 -95q0 -54 -36.5 -96t-90.5 -42q-52 0 -88 38t-36 92q0 38 19.5 68.5t53.5 43.5q-43 88 -147 88q-79 0 -140 -41t-61 -106 q0 -38 25 -66.5t64.5 -47t88 -35t96.5 -37t87.5 -47t64.5 -71.5t25 -104q0 -97 -63.5 -173.5t-165.5 -116.5t-222 -40q-151 0 -248.5 61.5t-97.5 147.5z" />
<glyph horiz-adv-x="2105" d="M37 346q0 109 49 208t130 168.5t187 110.5t218 41q90 0 163 -28q-43 67 -43 121q0 24 6.5 45.5t23 41t32 35.5t46.5 33t52 29t64 28t66.5 24.5t74.5 24t75 22t79 22.5q238 67 294 86t105 49l6 -4l-227 -989q351 31 436 151q-58 11 -104 48.5t-46 103.5q0 65 45.5 112.5 t110.5 47.5q61 0 109.5 -43.5t48.5 -114.5q0 -82 -70.5 -145t-193.5 -105l143 -389q10 -27 41 -27q28 0 104 35l-2 -12q-173 -101 -311 -101q-120 0 -154 93l-122 338q-30 -5 -37 -5l-93 -401h-325l291 1268l-45 -13q-52 -15 -76.5 -22t-72.5 -21.5t-72 -23t-64 -23.5 t-61 -26.5t-50.5 -27.5t-44.5 -31t-30.5 -33t-22 -38t-6.5 -42q0 -68 55 -136q72 -38 112 -97.5t40 -123.5q0 -73 -44.5 -124.5t-119.5 -51.5q-72 0 -116 47t-44 115q0 62 37.5 108t95.5 56q-27 100 -121 100q-59 0 -109 -37.5t-82.5 -96.5t-55.5 -133t-33 -144.5 t-10 -133.5q0 -137 52 -208.5t152 -71.5q154 0 316 153l8 -8q-213 -203 -469 -203q-99 0 -175.5 30t-122.5 82t-69.5 117t-23.5 140z" />
<glyph horiz-adv-x="1724" d="M37 346q0 109 49 208t130 168.5t187 110.5t218 41t194 -40q-65 95 -65 229q0 126 71.5 229.5t185 160t240.5 56.5q163 0 254.5 -92t91.5 -233q0 -65 -10 -103l-53 -229h252l-6 -29h-252l-142 -616q-18 -75 0 -107t68 -32q95 0 221 114l8 -8q-42 -39 -80 -69t-90 -61.5 t-111.5 -49t-121.5 -17.5q-125 0 -181.5 72.5t-23.5 212.5l129 559h-117l4 21q238 0 362 86.5t124 253.5q0 78 -26.5 139t-72.5 97.5t-103.5 55.5t-123.5 19q-88 0 -174 -32.5t-153 -88t-108.5 -136.5t-41.5 -171q0 -72 25 -143.5t67 -116.5q53 -37 81 -89t28 -106 q0 -73 -44.5 -124.5t-119.5 -51.5q-72 0 -116 47t-44 115q0 62 37.5 108t95.5 56q-27 100 -121 100q-59 0 -109 -37.5t-82.5 -96.5t-55.5 -133t-33 -144.5t-10 -133.5q0 -137 52 -208.5t152 -71.5q154 0 316 153l8 -8q-213 -203 -469 -203q-99 0 -175.5 30t-122.5 82 t-69.5 117t-23.5 140z" />
<glyph horiz-adv-x="2017" d="M49 0l162 715q9 40 -3 61t-40 21q-29 0 -105 -35l3 12q171 100 311 100q97 0 130 -59t9 -162l-24 -108q83 223 206 297q-45 68 -45 125q0 24 6.5 45.5t23 41t32 35.5t46 33t52 29.5t63.5 27.5t66.5 24t75 24.5t74.5 22.5t79 22q240 67 295.5 86t104.5 49l6 -4l-227 -989 q351 31 436 151q-58 11 -104 48.5t-46 103.5q0 65 45.5 112.5t110.5 47.5q61 0 109.5 -43.5t48.5 -114.5q0 -82 -70.5 -145t-193.5 -105l143 -389q10 -27 41 -27q28 0 104 35l-2 -12q-173 -101 -311 -101q-120 0 -154 93l-123 338q-30 -5 -36 -5l-93 -401h-325l291 1268 l-45 -13q-52 -15 -76.5 -22t-72.5 -21.5t-72 -23t-64 -23.5t-61 -26.5t-50.5 -27.5t-44.5 -31t-30.5 -33t-22 -38t-6.5 -42q0 -58 41 -115q42 22 90 22q73 0 120.5 -50.5t47.5 -121.5q0 -72 -48.5 -122t-117.5 -50t-117.5 49.5t-48.5 120.5q0 15 4 35q-83 -45 -149 -211 l-123 -524h-326z" />
<glyph horiz-adv-x="1472" d="M102 262l129 561h-125l7 29h125l51 221l340 64l-66 -285h391l52 221l340 64l-66 -285h250l-6 -29h-252l-142 -616q-18 -75 0 -107t68 -32q95 0 221 114l8 -8q-42 -39 -80 -69t-90 -61.5t-111.5 -49t-121.5 -17.5q-125 0 -181.5 72.5t-23.5 212.5l129 561h-393l-141 -616 q-18 -75 -0.5 -107t67.5 -32q95 0 221 114l9 -8q-92 -86 -190 -141.5t-214 -55.5q-125 0 -181.5 72.5t-23.5 212.5z" />
<glyph horiz-adv-x="2197" d="M129 977q0 129 143.5 194.5t413.5 65.5q133 0 280.5 -16.5t253 -37t225 -37t204.5 -16.5q91 0 160 18t109 45.5t65 67.5t33.5 77.5t8.5 80.5q0 101 -55 174q44 -6 82.5 -15.5t79 -27.5t69.5 -42t47.5 -60.5t18.5 -81.5q0 -129 -139 -192.5t-391 -63.5q-98 0 -207 11 t-174 21.5t-180 31.5l-129 -556h53q77 0 147 26t123 72t93 99t69 115h8l-145 -633h-9q-2 61 -17.5 113.5t-48 97.5t-90 70.5t-134.5 25.5h-52l-83 -362q-13 -58 -13.5 -99t10 -66.5t34 -40t51.5 -19.5t69 -5l-4 -12h-723l4 12q96 0 139 42t72 167l229 996q-16 2 -49 2 q-122 0 -206 -24t-126.5 -67.5t-59.5 -91.5t-17 -110q0 -109 55 -176q-45 6 -84 15.5t-79.5 28t-69 42.5t-46.5 60.5t-18 80.5zM1610 762l2 12q171 100 313 100q100 0 136 -59t12 -164l-117 -516q-9 -40 3 -61t40 -21t104 35l-2 -12q-173 -101 -313 -101q-100 0 -136 59.5 t-12 164.5l117 516q9 40 -3 61t-40 21t-104 -35z" />
<glyph horiz-adv-x="2545" d="M139 1022q0 128 141.5 194t399.5 66q181 0 479 -43t400 -43q196 0 288 79t92 216q0 97 -55 172q44 -6 82.5 -15.5t79 -27.5t69.5 -42t47.5 -60.5t18.5 -81.5q0 -161 -217 -222l-127 -552q108 99 202.5 155.5t190.5 56.5q103 0 158.5 -69t24.5 -211l-103 -459 q-9 -40 3 -61t40 -21q29 0 105 35l-2 -12q-173 -101 -314 -101q-100 0 -135.5 60.5t-11.5 163.5l108 465q22 98 -57 98q-32 0 -72 -20.5t-68 -42t-75 -60.5l-148 -639h-325l274 1178q-161 0 -446 41l-225 -977q-13 -58 -13.5 -99t10 -66.5t34 -40t51.5 -19.5t69 -5l-4 -12 h-764l4 12q52 0 88.5 9t70.5 33t58.5 70.5t40.5 117.5l236 1022q-27 2 -76 2q-199 0 -292 -80t-93 -217q0 -106 55 -174q-297 40 -297 227z" />
<glyph horiz-adv-x="2369" d="M94 504q0 165 73 311.5t197 250.5t295 164t361 60q56 0 127.5 -6t120.5 -11t111.5 -2.5t117.5 15.5l-65 -446l-11 -2q-39 235 -135.5 337.5t-245.5 102.5q-101 0 -188 -43t-148.5 -116t-109 -163.5t-75.5 -191t-42 -193t-14 -174.5q0 -65 9 -122.5t30 -111t53 -91.5 t82 -61t113 -23q157 0 318 131.5t296 343.5l6 -2l-166 -424q-230 -62 -463 -62q-323 0 -485 142t-162 387zM1386 74l7 18h809l-7 -18h-809zM1421 217l6 19h809l-6 -19h-809zM1532 639q0 167 136.5 288.5t328.5 121.5q66 0 125.5 -16.5t109 -49.5t78.5 -90t29 -131 q0 -169 -136 -290.5t-329 -121.5q-148 0 -245 76t-97 213zM1790 483q0 -123 70 -123q56 0 102 66.5t71 161.5t38.5 182t13.5 145q0 123 -72 123q-55 0 -100.5 -66t-70.5 -160.5t-38.5 -182t-13.5 -146.5z" />
<glyph horiz-adv-x="1300" d="M86 414q0 81 24.5 166t77.5 167.5t126.5 147t180.5 104t232 39.5q120 0 214.5 -36t152 -98t87 -138.5t29.5 -163.5q0 -81 -24.5 -166.5t-77.5 -167.5t-126.5 -147t-180.5 -104.5t-232 -39.5q-120 0 -214.5 36.5t-152 98t-87 138.5t-29.5 164zM410 260q0 -55 5.5 -97.5 t19.5 -84t43.5 -64t72.5 -22.5q76 0 141.5 73.5t106 188t63.5 246.5t23 256q0 56 -5.5 99t-19.5 84t-43 63t-72 22q-76 0 -141.5 -74t-106.5 -189t-64 -246.5t-23 -254.5z" />
<glyph horiz-adv-x="915" d="M-18 0l2 12q119 0 185.5 47.5t96.5 180.5l117 501q13 59 -1 85t-69 26h-141l2 10q331 31 606 156l8 -4l-182 -793q-11 -46 -12.5 -80.5t6 -57.5t20.5 -37t36 -21.5t47 -10t59 -2.5l-2 -12h-778z" />
<glyph horiz-adv-x="1196" d="M29 0q0 158 129 268q44 38 115.5 81t135.5 76.5t133.5 79t119 90.5t82 108t32.5 135q0 87 -46 134.5t-138 47.5q-82 0 -145 -37t-97 -96q52 -14 86.5 -56t34.5 -100q0 -68 -46.5 -114t-113.5 -46q-70 0 -114.5 48.5t-44.5 113.5q0 52 33 105t93.5 98t159.5 73.5t219 28.5 q85 0 163 -14.5t145.5 -44t108 -82.5t40.5 -123q0 -65 -35.5 -114t-98.5 -82t-140.5 -59t-169.5 -51.5t-178.5 -52t-174 -68.5t-149.5 -93q-27 -23 -37 -35q99 83 291 86q84 1 217.5 -19t187.5 -20q103 0 154 45t57 158h13q1 -45 -3.5 -94t-16 -106.5t-35 -107.5 t-55.5 -92.5t-83 -67t-113 -24.5q-64 0 -120 27t-97.5 65.5t-82 77.5t-91.5 66t-108 27q-89 0 -146 -69.5t-55 -170.5h-16z" />
<glyph horiz-adv-x="1269" d="M-31 0q0 79 51 134.5t125 55.5q71 0 118.5 -51t47.5 -125q0 -68 -39 -117t-100 -61q57 -90 195 -90q82 0 148.5 32t108 86t63.5 122.5t22 144.5q0 124 -66 189t-211 65q-58 0 -100.5 -11.5t-44.5 -11.5q-11 0 -21 8t-10 19q0 13 13.5 25t31.5 12q9 0 22 -6t42 -12.5 t77 -6.5q97 0 172 34.5t118.5 91.5t65 124t21.5 140q0 225 -207 225q-143 0 -229 -105q52 -18 84.5 -63.5t32.5 -104.5q0 -74 -47.5 -123t-120.5 -49q-74 0 -119 51t-45 119q0 83 68.5 151t190.5 107t273 39q220 0 352 -82.5t132 -222.5q0 -86 -51.5 -152t-141.5 -105 t-202 -58t-242 -19h-21l-2 -10h21q152 0 268 -31.5t187 -102t71 -173.5q0 -88 -51.5 -157.5t-139 -112.5t-196 -65.5t-229.5 -22.5q-238 0 -362 79t-124 197z" />
<glyph horiz-adv-x="1267" d="M-59 84l211 152q143 103 241.5 248.5t98.5 293.5q0 81 -30 148.5t-77 109.5q94 4 183 -8t166 -39t124 -78.5t47 -119.5q0 -69 -46.5 -131.5t-130.5 -117.5t-170.5 -101t-198 -105.5t-181.5 -106.5l-203 -137h627l41 178l406 308h10l-113 -486q59 1 97.5 7t55.5 12t25 6 q14 0 22.5 -8t8.5 -19q0 -16 -15 -26.5t-30 -10.5q-7 0 -23 5.5t-52.5 10.5t-92.5 5l-24 -107q-11 -46 -13 -80.5t6 -57.5t20.5 -37t35.5 -21.5t47 -10t59 -2.5l-2 -12h-778l2 12q119 0 185 47.5t98 180.5l20 90h-655z" />
<glyph horiz-adv-x="1239" d="M-43 8q0 78 48 131.5t126 53.5q76 0 122 -50.5t46 -124.5q0 -71 -41 -121t-104 -59q54 -92 178 -92q90 0 162 43t114 112.5t64 149t22 160.5q0 262 -233 262q-71 0 -146.5 -22.5t-128.5 -55.5q-8 -20 -14 -32.5t-19.5 -24.5t-29.5 -12q-25 0 -25 22q0 36 74 60l195 608 q423 -27 598.5 -8.5t248.5 92.5q3 -38 3 -78q0 -77 -24 -138t-62.5 -98t-90 -61t-101.5 -33.5t-103 -9.5q-118 0 -218.5 49t-271.5 170l-158 -487q185 96 383 96q97 0 183 -21.5t155 -64t109.5 -113t40.5 -161.5q0 -132 -85.5 -229.5t-226.5 -146t-317 -48.5 q-228 0 -350.5 79.5t-122.5 202.5z" />
<glyph horiz-adv-x="1333" d="M102 467q0 126 36 247.5t105.5 225t165 182t222 123.5t268.5 45q197 0 300.5 -79t103.5 -199q0 -79 -45.5 -131t-122.5 -52q-75 0 -123.5 49t-48.5 123q0 64 37 112.5t96 60.5q-29 100 -138 100q-111 0 -214 -100t-175.5 -260.5t-107.5 -352.5q50 109 145 178.5t240 69.5 q163 0 269 -90t106 -246q0 -98 -44.5 -187.5t-123.5 -159t-197.5 -110.5t-257.5 -41q-252 0 -374 132t-122 360zM401 229q0 -239 160 -239q68 0 126.5 44t96.5 110.5t65 148t38.5 154.5t11.5 131q0 190 -143 190q-96 0 -178.5 -77.5t-129.5 -201.5t-47 -260z" />
<glyph horiz-adv-x="1110" d="M78 461l127 551h20l-67 -350h4q24 69 41.5 114.5t46.5 99.5t58.5 85.5t72 53t92.5 21.5q57 0 108.5 -27t90.5 -66t77 -78t83.5 -66t93.5 -27q53 0 98 27.5t72 68t42.5 78t18.5 66.5h21q-7 -59 -40 -125t-66 -110.5t-97.5 -124.5t-95.5 -122q-262 -349 -383 -784h-351 q67 201 216.5 379t457.5 446q12 10 46 39.5t46.5 40.5t39.5 35t40.5 37.5t33.5 33t35.5 37t29.5 35.5l-7 5q-45 -50 -71.5 -76t-69 -57.5t-87.5 -45.5t-99 -14q-47 0 -187.5 21.5t-216.5 21.5q-103 0 -162 -44.5t-96 -178.5h-16z" />
<glyph horiz-adv-x="1376" d="M45 285q0 48 16.5 94.5t59 95.5t106.5 87.5t167 66t233 35.5q-396 28 -396 264q0 70 35.5 133t106.5 115t191 83t274 31q243 0 379.5 -74.5t136.5 -207.5q0 -138 -141.5 -233.5t-395.5 -110.5q221 -13 323.5 -90.5t102.5 -200.5q0 -53 -17 -104.5t-62.5 -106t-115 -95 t-184.5 -66.5t-262 -26q-119 0 -215 17t-159 46t-105 69t-60 84t-18 94zM406 190q0 -200 155 -200q59 0 111 30t89.5 79t65 111t41 126.5t13.5 124.5q0 196 -154 196q-75 0 -138.5 -46t-102 -117t-59.5 -150.5t-21 -153.5zM590 856q0 -184 143 -184q58 0 105 31t75.5 77.5 t47.5 105t26.5 110t7.5 96.5q0 184 -139 184q-54 0 -100 -29t-76 -75t-51 -103t-30 -111t-9 -102z" />
<glyph horiz-adv-x="1335" d="M25 0q0 80 48.5 132t123.5 52q74 0 121 -49t47 -121q0 -67 -39.5 -116t-100.5 -60q50 -98 174 -98q349 0 478 741q-110 -254 -388 -254q-163 0 -269.5 84.5t-106.5 239.5q0 95 42.5 182.5t119 155.5t194 108.5t256.5 40.5q256 0 380 -131t124 -356q0 -153 -55 -299.5 t-153.5 -264.5t-251 -190.5t-331.5 -72.5q-195 0 -304 79.5t-109 196.5zM442 494q0 -65 14 -111.5t37.5 -69.5t48.5 -33t54 -10q123 0 219 140.5t96 357.5q0 256 -155 256q-72 0 -134 -53t-100 -134t-59 -171.5t-21 -171.5z" />
<glyph horiz-adv-x="2299" d="M-96 18q0 97 59 178t151.5 129.5t204 70.5t218.5 10q-169 -41 -256.5 -147.5t-87.5 -246.5q0 -126 68.5 -205t193.5 -79q61 0 120 19.5t114 59t102 83t99 109t89 117.5t88 128l676 1007h-240q-89 0 -160 -28t-114 -75.5t-65.5 -106t-22.5 -123.5q0 -101 39 -162 q-115 9 -181.5 66.5t-66.5 146.5q0 132 143 214.5t369 82.5h336l256 -990q11 -42 21.5 -75t28 -70.5t38 -61.5t50 -40.5t64.5 -16.5l-2 -12h-729l2 12q73 0 118 39.5t54 98t-4 126.5l-30 132h-445l-112 -170q-136 -203 -206 -286q-167 -197 -356 -251q-82 -23 -174 -23 q-196 0 -323 95t-127 245zM1217 428h423l-112 467z" />
<glyph horiz-adv-x="1857" d="M123 969q0 132 143 214.5t369 82.5h708q498 0 498 -267q0 -70 -34.5 -129t-106 -106.5t-193 -74.5t-282.5 -27l-2 -9q272 0 394 -69.5t122 -202.5q0 -77 -38.5 -144t-113.5 -121t-200.5 -85t-286.5 -31h-762l2 12q96 0 140 42t73 167l238 1030h-97q-89 0 -160 -28 t-114 -75.5t-65.5 -106t-22.5 -123.5q0 -101 39 -162q-115 9 -181.5 66.5t-66.5 146.5zM860 14h148q90 0 161.5 36t113.5 95.5t63.5 128t21.5 140.5q0 233 -225 233h-137zM1010 662h88q94 0 167 29.5t116 81.5t65 118t22 143q0 217 -178 217h-145z" />
<glyph horiz-adv-x="1452" d="M92 510q0 161 74 306.5t197 248.5t288.5 164t343.5 61q104 0 189 -21.5t139 -56t90.5 -79.5t52 -89.5t15.5 -89.5q0 -80 -47 -136t-123 -56q-72 0 -122 51.5t-50 126.5q0 69 41 118t104 58q-61 162 -250 162q-86 0 -162.5 -32.5t-133.5 -87.5t-104 -129t-78.5 -155.5 t-53.5 -168.5t-31.5 -166.5t-9.5 -151.5q0 -399 313 -399q112 0 205 46.5t145 119.5q-56 15 -90.5 62t-34.5 110q0 75 50 126.5t122 51.5q75 0 122.5 -55.5t47.5 -131.5q0 -48 -20 -95t-65 -92t-110.5 -79t-164.5 -55t-219 -21q-322 0 -496 143t-174 392z" />
<glyph horiz-adv-x="2017" d="M123 969q0 132 143 214.5t369 82.5h711q290 0 459 -136t169 -389q0 -156 -66.5 -292t-185 -235.5t-292 -156.5t-377.5 -57h-717l2 12q96 0 140 42t73 167l237 1030h-94q-89 0 -160 -28t-114 -75.5t-65.5 -106t-22.5 -123.5q0 -101 39 -162q-115 9 -181.5 66.5 t-66.5 146.5zM858 14h146q109 0 201 37.5t156 102t112.5 146t77 174t42 180t13.5 171.5q0 89 -16.5 163t-52 134.5t-98.5 94.5t-149 34h-147z" />
<glyph horiz-adv-x="1732" d="M123 969q0 132 143 214.5t369 82.5h1124l-69 -432l-9 -3q0 91 -22 165.5t-67 132.5t-122 90t-180 32h-147l-142 -612h64q77 0 147 26t123 71.5t93 98.5t69 115h8l-145 -633h-8q-2 61 -17.5 113.5t-48 97.5t-90.5 71t-135 26h-64l-139 -611h158q359 0 598 451l8 -2 l-145 -463h-1141l2 12q96 0 140 42t73 167l237 1030h-94q-89 0 -160 -28t-114 -75.5t-65.5 -106t-22.5 -123.5q0 -101 39 -162q-115 9 -181.5 66.5t-66.5 146.5z" />
<glyph horiz-adv-x="1656" d="M123 969q0 132 143 214.5t369 82.5h1114l-70 -432l-8 -3q0 186 -100 303t-291 117h-137l-146 -633h54q77 0 146.5 26t122.5 72t93 99t70 115h8l-148 -633h-8q-1 61 -16.5 113.5t-47.5 97.5t-89.5 70.5t-134.5 25.5h-54l-84 -362q-13 -57 -13 -98.5t10.5 -67t33.5 -40 t51.5 -19.5t69.5 -5l-2 -12h-723l2 12q96 0 140 42t73 167l237 1030h-94q-89 0 -160 -28t-114 -75.5t-65.5 -106t-22.5 -123.5q0 -101 39 -162q-115 9 -181.5 66.5t-66.5 146.5z" />
<glyph horiz-adv-x="1630" d="M92 496q0 142 53.5 269.5t146.5 222t214 163.5t259 104t279 35q127 0 229.5 -29t164.5 -77t94.5 -105.5t32.5 -117.5q0 -75 -44.5 -133t-123.5 -58q-73 0 -123.5 51.5t-50.5 126.5q0 65 39 114t98 60q-72 154 -279 154q-125 0 -231.5 -58.5t-177 -151.5t-120.5 -210.5 t-72.5 -234t-22.5 -224.5q0 -85 15.5 -154.5t49.5 -129t96 -92.5t148 -33q120 0 248 57l78 334q29 126 1.5 174.5t-128.5 48.5l2 12h682l-2 -12q-96 0 -139 -42t-72 -167l-121 -524q-19 -83 -81 -156t-152.5 -126.5t-191.5 -92.5t-214 -65l-2 6q64 30 111 66.5t75 68 t49 77.5t30.5 78t21.5 85l40 182q-129 -17 -239 -17q-339 0 -504.5 138t-165.5 383z" />
<glyph horiz-adv-x="2490" d="M-92 14q0 96 57 176t148 129t202.5 72.5t221.5 14.5q-166 -45 -256.5 -155.5t-90.5 -262.5q0 -134 70 -213.5t207 -79.5q356 0 487 567l228 989h-95q-89 0 -160 -28t-114 -75.5t-65.5 -106t-22.5 -123.5q0 -101 39 -162q-115 9 -181.5 66.5t-66.5 146.5q0 132 143 214.5 t369 82.5h676l-4 -13q-96 0 -139 -42t-72 -167l-92 -397h549l92 397q28 126 4 167.5t-121 41.5l4 13h682l-4 -13q-96 0 -139 -42t-72 -167l-190 -823q-28 -126 -5 -167.5t119 -41.5l-2 -12h-682l2 12q96 0 140 42t73 167l95 408h-549l-84 -367q-44 -191 -164 -323.5 t-292.5 -196.5t-389.5 -64q-262 0 -408.5 90.5t-146.5 245.5z" />
<glyph horiz-adv-x="1193" d="M123 969q0 132 143 214.5t369 82.5h676l-4 -13q-96 0 -139 -42t-72 -167l-191 -823q-28 -126 -4.5 -167.5t119.5 -41.5l-2 -12h-682l2 12q96 0 140 42t73 167l237 1030h-94q-89 0 -160 -28t-114 -75.5t-65.5 -106t-22.5 -123.5q0 -101 39 -162q-115 9 -181.5 66.5 t-66.5 146.5z" />
<glyph horiz-adv-x="1570" d="M-92 14q0 96 57 176t148 129t202.5 72.5t221.5 14.5q-166 -45 -256.5 -155.5t-90.5 -262.5q0 -134 70 -213.5t207 -79.5q356 0 487 567l228 989h-95q-89 0 -160 -28t-114 -75.5t-65.5 -106t-22.5 -123.5q0 -101 39 -162q-115 9 -181.5 66.5t-66.5 146.5q0 132 143 214.5 t369 82.5h676l-4 -13q-96 0 -140 -42t-73 -167l-178 -782q-44 -191 -164 -323.5t-292.5 -196.5t-389.5 -64q-262 0 -408.5 90.5t-146.5 245.5z" />
<glyph horiz-adv-x="1886" d="M123 969q0 132 143 214.5t369 82.5h676l-4 -13q-96 0 -139 -42t-72 -167l-121 -518l399 320q279 224 279 334q0 73 -135 73l4 13h583l-4 -13q-141 0 -350 -143q-148 -99 -348 -260l-19 -16l263 -605q7 -16 26 -61.5t31.5 -74.5t36 -78.5t42.5 -84t47.5 -80t55 -77 t61.5 -65t69.5 -53.5t76.5 -33t86 -13q57 0 137 31l2 -11q-102 -43 -180 -63.5t-182 -20.5q-121 0 -215 30t-166 93.5t-125 148.5t-102 208l-238 589l-139 -112l-66 -281q-28 -126 -4.5 -167.5t119.5 -41.5l-2 -12h-682l2 12q96 0 140 42t73 167l237 1030h-94 q-89 0 -160 -28t-114 -75.5t-65.5 -106t-22.5 -123.5q0 -101 39 -162q-115 9 -181.5 66.5t-66.5 146.5z" />
<glyph horiz-adv-x="1261" d="M119 969q0 132 143 214.5t369 82.5h715l-3 -13q-106 0 -166 -46t-92 -183l-290 -1255q134 -51 319 -185q18 -13 79 -58.5t84.5 -61.5t77.5 -49t90 -46t88.5 -25t104.5 -12q178 0 293 112.5t115 313.5q0 82 -25 152q125 -42 186.5 -124t61.5 -177q0 -71 -33 -137t-92 -118 t-148.5 -83t-193.5 -31q-71 0 -143 16.5t-124.5 37t-122 62t-106 67t-107.5 78t-97 71.5q-79 57 -147.5 98t-158.5 82t-192.5 62.5t-212.5 21.5q-36 0 -98 -4l2 14q98 0 140 38t71 161l278 1206h-94q-89 0 -160 -28t-114 -75.5t-65.5 -106t-22.5 -123.5q0 -101 39 -162 q-115 9 -181.5 66.5t-66.5 146.5z" />
<glyph horiz-adv-x="2772" d="M-92 18q0 99 60 180.5t153 130t204.5 69.5t215.5 8q-171 -43 -256.5 -143.5t-85.5 -244.5q0 -131 68 -210.5t200 -79.5q190 0 357.5 163.5t248.5 432.5l281 927h-242q-89 0 -160 -28t-114 -75.5t-65.5 -106t-22.5 -123.5q0 -103 38 -162q-115 9 -181 66t-66 147 q0 132 143 214.5t369 82.5h573l211 -842l557 842h459l-4 -13q-100 0 -149 -66t-74 -202l-125 -698q-17 -93 -15 -154t34.5 -91t102.5 -30l-2 -12h-702l2 12q98 0 148 61.5t73 192.5l137 791l-690 -1041h-8l-270 1028l-217 -720q-91 -302 -275 -474t-450 -172 q-200 0 -330.5 93.5t-130.5 246.5z" />
<glyph horiz-adv-x="2330" d="M-94 18q0 97 59 178.5t151.5 130.5t204.5 70.5t218 8.5q-342 -76 -342 -375q0 -141 73 -222t211 -81q200 0 364.5 162t223.5 434l201 927h-129q-89 0 -160 -28t-114.5 -75.5t-66 -106t-22.5 -123.5q0 -101 39 -162q-115 9 -181.5 66.5t-66.5 146.5q0 132 143 214.5 t369 82.5h365l594 -815l82 348q25 107 35 178.5t6 127.5t-27.5 87t-66 46t-109.5 15l4 13h553l-4 -13q-58 0 -102 -10t-79.5 -34.5t-61.5 -57.5t-49 -87t-41 -115.5t-38 -149.5l-188 -815l-10 -2l-715 981l-137 -639q-65 -299 -245.5 -472.5t-459.5 -173.5q-209 0 -345 93.5 t-136 246.5z" />
<glyph horiz-adv-x="1624" d="M96 524q0 157 69 298.5t187.5 244t283.5 163t349 60.5q87 0 162 -14t135.5 -42t95.5 -75.5t35 -109.5q0 -65 -37.5 -120t-97.5 -90.5t-132.5 -55t-144.5 -19.5q-50 0 -102 10q132 32 205.5 111.5t73.5 208.5q0 182 -170 182q-116 0 -221 -82.5t-177 -214t-114.5 -297 t-42.5 -330.5q0 -175 53 -268.5t174 -93.5q98 0 191 64t162.5 170t118.5 244.5t67 287.5q51 19 95 48.5t81 71t54 99.5t7 123q127 -139 127 -355q0 -156 -70 -299t-187.5 -245.5t-277.5 -163t-333 -60.5q-181 0 -320 64.5t-219 189.5t-80 295z" />
<glyph horiz-adv-x="1765" d="M123 969q0 132 143 214.5t369 82.5h706q239 0 359.5 -87.5t120.5 -232.5q0 -63 -21.5 -121.5t-71 -114.5t-122.5 -97t-185.5 -66t-251.5 -25h-122l2 13h38q79 0 143 30.5t104 78t67 110t38 123t11 120.5q0 254 -197 254h-110l-238 -1030q-28 -126 -4.5 -167.5 t119.5 -41.5l-2 -12h-682l2 12q96 0 140 42t73 167l237 1030h-94q-89 0 -160 -28t-114 -75.5t-65.5 -106t-22.5 -123.5q0 -101 39 -162q-115 9 -181.5 66.5t-66.5 146.5z" />
<glyph horiz-adv-x="1597" d="M90 596q0 136 64.5 263t174.5 222t266 152t329 57q286 0 466.5 -145t180.5 -381q0 -83 -25.5 -160t-66.5 -139t-105 -119.5t-130 -101t-152 -85t-159.5 -71t-165.5 -58.5t-157.5 -47t-146.5 -38q118 28 260 28q108 0 185 -25.5t134.5 -71t139.5 -136.5 q63 -70 94.5 -103.5t82 -84t83.5 -73.5t77.5 -48.5t88 -35t92.5 -9.5q73 0 137.5 26t142.5 86l9 -6q-49 -44 -94.5 -78t-115.5 -73.5t-156 -61.5t-179 -22q-91 0 -171.5 21.5t-147.5 62t-118.5 84.5t-107.5 104q-37 40 -86.5 98t-79.5 93t-72.5 76.5t-78.5 64t-84 38 t-101 15.5q-60 0 -108 -18t-78.5 -36t-46.5 -18q-11 0 -21 6.5t-10 20.5q0 41 82 41q50 0 121 16q77 17 154 43t164.5 69t165 96.5t150 128.5t124.5 161.5t83 199t31 238.5q0 57 -6 109t-24.5 109.5t-48.5 99t-83 69t-122 27.5q-106 0 -198.5 -61.5t-152.5 -158.5 t-94.5 -213t-34.5 -229q0 -180 84.5 -281.5t221.5 -101.5q46 0 106 17q-135 -92 -313 -92q-202 0 -327.5 121.5t-125.5 318.5z" />
<glyph horiz-adv-x="1933" d="M123 969q0 132 143 214.5t369 82.5h717q501 0 501 -301q0 -334 -628 -361l-2 -6h82q74 0 125 -5t91.5 -19.5t66 -33.5t47.5 -56t36 -77.5t31 -105.5q8 -29 23 -90q17 -65 26 -98.5t27 -94.5t31.5 -95t37 -84.5t45.5 -79.5t53.5 -63t65.5 -52t77.5 -30.5t92.5 -12.5 q39 0 107 14v-8q-163 -62 -342 -62q-80 0 -147 17t-114 41.5t-88 68.5t-65.5 81t-49.5 97.5t-37 99t-30 103.5q-48 175 -98 379q-1 5 -4 14q-21 89 -38 112q-25 35 -97 38h-19h-168l-86 -375q-28 -126 -4.5 -167.5t119.5 -41.5l-2 -12h-682l2 12q96 0 140 42t73 167 l237 1030h-94q-89 0 -160 -28t-114 -75.5t-65.5 -106t-22.5 -123.5q0 -101 39 -162q-115 9 -181.5 66.5t-66.5 146.5zM995 608h148q93 0 164 38t110 99t57.5 128t18.5 135q0 110 -51 176.5t-168 66.5h-131z" />
<glyph horiz-adv-x="1236" d="M29 266q0 75 49.5 129t124.5 54q73 0 122.5 -51.5t49.5 -125.5q0 -68 -41.5 -115.5t-104.5 -58.5q93 -108 279 -108q83 0 146.5 23t99.5 61.5t53.5 82.5t17.5 91q0 64 -33.5 111.5t-87 78.5t-118 58t-129 58.5t-118 71t-87 104.5t-33.5 151q0 186 144.5 297.5 t388.5 111.5q211 0 339 -81.5t128 -204.5q0 -73 -45 -125t-121 -52q-73 0 -120.5 48t-47.5 120q0 65 39 113t100 59q-75 109 -242 109q-140 0 -218.5 -66.5t-78.5 -160.5q0 -59 34.5 -103.5t89.5 -74.5t121 -58t132.5 -62.5t121.5 -78t89.5 -114.5t34.5 -163 q0 -197 -150 -308.5t-415 -111.5q-238 0 -376 84t-138 207z" />
<glyph horiz-adv-x="1677" d="M137 1022q0 84 65.5 144t171 88t238.5 28q139 0 429 -43t380 -43q312 0 312 289q0 111 -56 178q57 -8 105 -23t94 -40.5t72 -67.5t26 -96q0 -84 -64 -144.5t-168 -89t-237 -28.5q-127 0 -325 28l-222 -960q-13 -57 -13 -98.5t10.5 -67t33.5 -40t51.5 -19.5t69.5 -5 l-4 -12h-764l4 12q52 0 88.5 9t70.5 33t58.5 70.5t40.5 117.5l234 1009q-97 11 -142 11q-78 0 -136.5 -18.5t-92 -47t-54.5 -68t-27.5 -75t-6.5 -74.5q0 -119 55 -184q-54 5 -104 20t-94.5 41t-71.5 69t-27 97z" />
<glyph horiz-adv-x="1845" d="M119 969q0 132 143 214.5t369 82.5h639l-4 -13q-93 0 -141 -55.5t-78 -185.5l-154 -664q-78 -336 215 -336q76 0 145.5 23.5t131.5 71t109.5 127.5t72.5 186l86 379q20 89 30.5 149.5t12 115t-9 87.5t-35 57.5t-63.5 34.5t-97 10l4 13h553l-4 -13q-69 0 -119.5 -16.5 t-87.5 -47t-66 -88.5t-51 -126.5t-47 -175.5l-88 -379q-105 -445 -584 -445q-118 0 -209.5 27t-154.5 83t-82 143.5t6 209.5l187 813h-58q-89 0 -160 -28t-114 -75.5t-65.5 -106t-22.5 -123.5q0 -101 39 -162q-115 9 -181.5 66.5t-66.5 146.5z" />
<glyph horiz-adv-x="1347" d="M119 1253l2 13h733l-2 -13q-107 0 -150.5 -79.5t-19.5 -184.5l149 -696q118 139 196.5 239.5t164 228t129 238.5t43.5 205q0 127 -82.5 189.5t-253.5 33.5q143 203 313 203q89 0 139 -57t50 -160q0 -76 -30 -169.5t-77 -183.5t-119.5 -197.5t-141 -195.5t-158.5 -195 t-155 -180t-148.5 -166t-122.5 -138h-19l-237 1001q-30 123 -55 169q-50 95 -148 95z" />
<glyph horiz-adv-x="2043" d="M123 1253l2 13h688l-2 -13q-50 0 -83 -20t-45.5 -52.5t-16 -72t5.5 -78.5l112 -622l326 524l-8 57q-17 114 -65.5 189t-129.5 75l2 13h729l-2 -13q-56 0 -95.5 -25t-57 -64t-25 -85.5t1.5 -89.5l101 -676q104 129 177.5 229.5t148 221t113 230t38.5 204.5q0 135 -83 196 t-253 33q143 203 313 203q90 0 139.5 -56.5t49.5 -160.5q0 -94 -37.5 -207.5t-118 -246t-148.5 -235.5t-189 -250.5t-176 -212.5t-169 -195q-47 -54 -68 -78h-18l-164 915l-579 -915h-13l-200 1001q-6 33 -10 51.5t-14.5 55t-24.5 59.5t-34.5 48t-50.5 37.5t-67 12.5z" />
<glyph horiz-adv-x="2320" d="M-66 102q0 97 58.5 178t150 129.5t203.5 69.5t219 8q-342 -92 -342 -374q0 -142 76 -218.5t205 -76.5q59 0 122.5 17.5t118.5 43.5t115.5 67t104 76t95 83t78.5 76t63.5 66.5t41.5 43.5l234 239l-191 455q-25 59 -48.5 102.5t-55 83.5t-71 61t-85.5 21l4 13h756l-4 -13 q-54 0 -89.5 -20.5t-49 -53t-12.5 -70t16 -73.5l112 -274l92 92q195 195 195 305q0 45 -33.5 69.5t-93.5 24.5l4 13h608l-4 -13q-136 0 -334 -135q-148 -103 -335 -280l-93 -88l197 -471q47 -114 115 -190.5t155 -76.5l-2 -12h-753l2 12q87 0 125.5 60.5t-0.5 154.5 l-121 287l-223 -229q-13 -14 -51.5 -54.5t-61.5 -64.5t-67.5 -67t-77 -71t-82.5 -67t-92.5 -64.5t-98 -54t-107 -44.5t-111.5 -27t-120 -11q-125 0 -228.5 41.5t-166 120t-62.5 180.5z" />
<glyph horiz-adv-x="1292" d="M131 1253l2 13h711l-2 -13q-92 0 -128 -61.5t-3 -149.5l170 -454q238 214 340 356t102 277q0 61 -19.5 105t-51.5 68t-76.5 34.5t-91 9.5t-99.5 -11q143 203 311 203q91 0 141 -58t50 -159q0 -89 -40 -187t-98 -180.5t-144.5 -174.5t-156 -155t-157.5 -136l-78 -338 q-13 -57 -13 -98.5t10.5 -67t33.5 -40t51.5 -19.5t69.5 -5l-2 -12h-764l2 12q52 0 88.5 9t70.5 33t58.5 70.5t40.5 117.5l71 309l-200 506q-39 98 -87.5 147t-111.5 49z" />
<glyph horiz-adv-x="1259" d="M-139 -164l1097 1415h-208q-93 0 -186 -39.5t-169 -106t-137.5 -143.5t-105.5 -161l-11 2l146 463h1102l4 -4l-1131 -1455q191 -58 422 -223q18 -13 79 -58.5t84.5 -61.5t77.5 -49t90 -46t88.5 -25t104.5 -12q178 0 293 112.5t115 313.5q0 82 -25 152q125 -42 186.5 -124 t61.5 -177q0 -71 -33 -137t-92 -118t-148.5 -83t-193.5 -31q-71 0 -143 16.5t-124.5 37t-122 62t-106 67t-107.5 78t-97 71.5q-79 57 -147.5 98t-158.5 82t-192.5 62.5t-212.5 21.5q-36 0 -98 -4z" />
<glyph horiz-adv-x="1202" d="M16 1565q0 80 41 148t113 117.5t162 84t196 53.5q-113 -86 -170 -187t-57 -241q0 -417 535 -487l6 26q26 114 93.5 210t156.5 158t191 96t202 34q146 0 214 -61.5t68 -161.5q0 -150 -152 -238.5t-462 -95.5l-201 -885q-9 -40 3 -61t40 -21q29 0 105 35l-2 -12 q-173 -101 -314 -101q-150 0 -157 134q-144 -132 -303 -132q-96 0 -162.5 48t-96.5 123t-30 169q0 84 24.5 165t73 151.5t114.5 124.5t154 85t187 31q121 0 194 -49l49 209q-241 29 -426.5 105.5t-287 187t-101.5 238.5zM369 268q0 -88 32 -146.5t93 -58.5q57 0 127 62 l145 629q-12 44 -39 73t-70 29q-63 0 -119.5 -65.5t-92 -160t-56 -192.5t-20.5 -170zM1157 1038q162 5 279.5 32t183.5 71t96.5 96.5t30.5 116.5q0 94 -61.5 148t-157.5 54q-62 0 -113.5 -25t-87.5 -64.5t-66 -98t-48.5 -116.5t-34.5 -130z" />
<glyph horiz-adv-x="1202" d="M-834 1440q0 173 157 288t421 115q133 0 268 -34t263 -95.5t232.5 -122t235.5 -140t213 -122.5q90 111 218.5 169t255.5 58q107 0 161 -42t54 -115q0 -91 -78 -148t-211 -57q-84 0 -160 20l-244 -1079q-9 -40 3 -61t40 -21q29 0 105 35l-2 -12q-173 -101 -314 -101 q-150 0 -157 134q-144 -132 -303 -132q-96 0 -162.5 48t-96.5 123t-30 169q0 84 24.5 165t73 151.5t114.5 124.5t154 85t187 31q121 0 194 -49l62 271q25 118 100 219q-79 40 -196 110.5t-210 124.5t-202.5 108t-223 84t-223.5 30q-203 0 -323.5 -100t-120.5 -271 q0 -82 28 -163t81 -142q-167 18 -277.5 113t-110.5 231zM369 268q0 -88 32 -146.5t93 -58.5q57 0 127 62l145 629q-12 44 -39 73t-70 29q-63 0 -119.5 -65.5t-92 -160t-56 -192.5t-20.5 -170zM1200 1231q93 -21 156 -21q124 0 196 54t72 133q0 60 -42 100.5t-118 40.5 q-106 0 -166 -79.5t-98 -227.5z" />
<glyph horiz-adv-x="1206" d="M-1554 1511q0 76 34 146t97.5 125.5t164 89t222.5 33.5q126 0 254 -37t233 -95t222 -137.5t212.5 -154.5t213.5 -157t216 -134q88 181 247 273.5t343 92.5q154 0 226.5 -61.5t72.5 -161.5q0 -133 -118 -209.5t-306 -76.5q-90 0 -188 20l-94 -405q108 99 202.5 155.5 t190.5 56.5q103 0 158 -69t24 -211l-102 -459q-9 -40 3 -61t40 -21t104 35l-2 -12q-173 -101 -313 -101q-100 0 -136 60.5t-12 163.5l109 465q22 98 -57 98q-32 0 -72 -20.5t-68 -42t-75 -60.5l-148 -639h-326l236 1014q18 85 53 160q-95 50 -205.5 125.5t-199 145t-193 142 t-196 125.5t-199.5 87t-211 34q-98 0 -172.5 -28.5t-120 -79.5t-68 -115.5t-22.5 -141.5q0 -85 25.5 -176t78.5 -155q-166 22 -272 127.5t-106 246.5zM596 1083q84 -20 184 -20q181 0 291.5 73.5t110.5 194.5q0 93 -65 149t-171 56q-48 0 -89.5 -13.5t-71.5 -34.5t-56.5 -56 t-44.5 -69t-34.5 -82.5t-27 -87t-22.5 -91.5z" />
<glyph horiz-adv-x="1155" d="M-1479 -682q0 82 42.5 150.5t116.5 116t162.5 79t192.5 49.5q-105 -57 -160 -156.5t-55 -205.5q0 -58 17 -109t51.5 -92.5t93.5 -65.5t137 -24q107 0 242 47t282 126t290.5 163t316 178t309.5 152q0 66 19 153l184 785q22 98 -57 98q-46 0 -96 -32t-120 -91l-147 -639 h-326l267 1143q12 52 14 90t-21.5 60t-76.5 22l4 12l456 41l-163 -706q108 99 202.5 155.5t190.5 56.5q66 0 112.5 -27.5t70.5 -89.5t-1 -163l-180 -764q91 16 170 16q155 0 241.5 -58t86.5 -169q0 -50 -18 -96.5t-57.5 -90t-114 -70t-175.5 -26.5q-194 0 -323.5 95 t-141.5 274q-138 -61 -322.5 -163.5t-340 -192.5t-322.5 -175t-330.5 -135.5t-304.5 -50.5q-105 0 -187.5 28t-131.5 75.5t-74 105.5t-25 121zM856.5 -458.5q5.5 -57.5 27 -95.5t67 -61.5t114.5 -23.5q131 0 216 73t85 183q0 103 -79.5 158t-225.5 55q-85 0 -174 -18l-4 -21 q-17 -74 -24.5 -133t-2 -116.5z" />
<glyph horiz-adv-x="632" d="M-1552 1511q0 76 34 146t97.5 125.5t164 89t222.5 33.5q126 0 254 -37t232.5 -95t221.5 -137.5t212.5 -154.5t213.5 -157t217 -134q88 181 247 273.5t343 92.5q154 0 226.5 -61.5t72.5 -161.5q0 -133 -118 -209.5t-306 -76.5q-86 0 -188 20l-211 -932q-9 -40 3 -61 t40 -21t104 35l-2 -12q-173 -101 -313 -101q-100 0 -135.5 60.5t-11.5 163.5l188 815q18 85 53 160q-95 50 -205.5 125.5t-199 145t-193 142t-196 125.5t-199.5 87t-211 34q-98 0 -172.5 -28.5t-120 -79.5t-68 -115.5t-22.5 -141.5q0 -85 25.5 -176t78.5 -155 q-166 22 -272 127.5t-106 246.5zM598 1083q84 -20 184 -20q181 0 291.5 73.5t110.5 194.5q0 93 -65 149t-171 56q-48 0 -89.5 -13.5t-71.5 -34.5t-56.5 -56t-44.5 -69t-34.5 -82.5t-27 -87t-22.5 -91.5z" />
<glyph horiz-adv-x="632" d="M-219 1292q0 53 20 98t62.5 83.5t118.5 60.5t178 22q96 0 174 -20.5t140 -63t96 -115.5t34 -171q136 60 319 162.5t338.5 192.5t323 176t333 137t308.5 51q192 0 302 -86.5t110 -223.5q0 -144 -127 -256t-387 -159q110 71 163.5 175.5t53.5 203.5q0 75 -29.5 135 t-98.5 99.5t-169 39.5q-109 0 -246 -47.5t-284 -127t-290 -164t-314 -179t-306 -152.5q-3 -61 -18 -135l-203 -893q-9 -40 3 -61t40 -21t104 35l-2 -12q-173 -101 -313 -101q-100 0 -135.5 60.5t-11.5 163.5l198 860q-70 -12 -141 -12q-163 0 -253.5 65.5t-90.5 179.5z M-199 1294q0 -107 85 -169t237 -62q78 0 147 14l11 39q14 53 22.5 96t12.5 87.5t-0.5 77.5t-18.5 63.5t-38.5 50t-63.5 30.5t-91 11q-135 0 -219 -65t-84 -173z" />
<glyph horiz-adv-x="991" d="M-719 -352q0 67 42.5 114.5t100.5 67.5t123 20q92 0 182 -43.5t193 -123.5q287 241 393 325l-151 752q-6 37 -45 37q-29 0 -105 -35l2 12q171 100 314 100q68 0 106.5 -28t46.5 -78l92 -580q255 212 277 379q-27 -10 -64 -10q-70 0 -113.5 45.5t-43.5 110.5 q0 68 46.5 114.5t119.5 46.5q81 0 120 -56t39 -126q0 -144 -170 -326t-454 -370q-58 -44 -119.5 -94t-98.5 -81.5t-97 -82.5l-80 -68q45 -36 125.5 -105t134.5 -114t135.5 -102.5t149.5 -91.5t155.5 -58t173.5 -24q89 0 160.5 24t117 63t75.5 91.5t42.5 105.5t12.5 109 q0 70 -20 136.5t-58 102.5q172 -28 259 -114t87 -205q0 -55 -17.5 -108t-57.5 -103.5t-98.5 -88.5t-148 -61.5t-198.5 -23.5q-87 0 -172 15.5t-155.5 40t-144.5 63.5t-130 76.5t-122.5 89t-112.5 91.5t-108.5 93.5t-101.5 85.5q-127 -106 -214.5 -153.5t-186.5 -47.5 q-107 0 -172.5 52.5t-65.5 138.5zM-698 -352q0 -78 60.5 -126t158.5 -48q89 0 172.5 44.5t212.5 149.5q-101 80 -188 123t-173 43q-95 0 -169 -49t-74 -137z" />
<glyph horiz-adv-x="1288" d="M-186 0l2 10q38 0 75 11.5t67.5 27.5t66 48t60 57t60 70.5t56 73.5t57.5 81l500 706h12l252 -847q14 -47 27.5 -81.5t35.5 -71t52 -56t67 -19.5l-2 -10h-672l2 10q100 0 139 65.5t13 157.5l-33 117h-399l-6 -8q-37 -50 -54 -106.5t-10.5 -107.5t51 -84.5t123.5 -33.5 l-2 -10h-540zM266 367h379l-108 383z" />
<glyph horiz-adv-x="1363" d="M-51 0l2 10q83 0 122 36t62 138l162 707q24 103 2.5 138.5t-104.5 35.5l2 10h657q215 0 337 -65t122 -183q0 -122 -138.5 -193t-429.5 -71v-8q484 -6 484 -250q0 -136 -142.5 -220.5t-435.5 -84.5h-702zM434 12h123q65 0 119 21.5t89.5 56t60 80t35.5 92.5t11 94 q0 195 -198 195h-115zM561 563h68q164 0 245.5 87t81.5 229q0 184 -153 184h-125z" />
<glyph horiz-adv-x="1333" d="M76 434q0 108 41 209t117 182t176.5 142.5t225 95t257.5 33.5q47 0 114 -5t115.5 -8.5t109 -1.5t109.5 13l-53 -375h-8q-41 191 -138.5 278.5t-232.5 87.5q-91 0 -167.5 -37.5t-127 -100t-88.5 -138t-58.5 -158.5t-30 -153.5t-9.5 -130.5q0 -105 28 -187.5t93.5 -136 t159.5 -53.5q255 0 522 395l4 -2l-143 -352q-204 -51 -383 -51q-305 0 -469 119t-164 335z" />
<glyph horiz-adv-x="1503" d="M-51 0l2 10q83 0 122 36t62 138l162 707q24 103 2.5 138.5t-104.5 35.5l2 10h657q269 0 424.5 -117t155.5 -331q0 -176 -106 -319.5t-295.5 -225.5t-426.5 -82h-657zM434 12h123q121 0 216.5 50t151.5 124.5t93 171.5t50 181t13 163q0 77 -14.5 139.5t-45.5 113.5 t-86.5 79.5t-131.5 28.5h-125z" />
<glyph horiz-adv-x="1239" d="M-51 0l2 10q83 0 122 36t62 138l162 707q24 103 2.5 138.5t-104.5 35.5l2 10h1030l-53 -360l-11 -2q0 158 -88.5 254t-263.5 96h-133l-121 -520h59q131 0 228 72.5t155 187.5h7l-123 -529h-6q-5 113 -68.5 184.5t-194.5 71.5h-59l-121 -518h139q93 0 177 32t150 88.5 t115 118.5t91 136l4 -2l-123 -385h-1038z" />
<glyph horiz-adv-x="1173" d="M-51 0l2 10q83 0 122 36t62 138l162 707q24 103 2.5 138.5t-104.5 35.5l2 10h1020l-56 -362h-8q0 154 -94 252t-258 98h-123l-125 -537h51q129 0 226 73t155 187h6l-123 -530h-6q-5 113 -68 185.5t-192 72.5h-51l-72 -313q-26 -111 11.5 -151t127.5 -40l-2 -10h-667z" />
<glyph horiz-adv-x="1507" d="M80 455q0 180 111 328t296 230.5t402 82.5q47 0 125 -5t138.5 -8.5t131.5 -1.5t121 13l-51 -359l-8 -2q-13 89 -53 158t-97 110.5t-122.5 62.5t-135.5 21q-79 0 -148.5 -27t-120 -72t-92 -106t-68.5 -128t-45 -139.5t-26 -138.5t-8 -126q0 -169 65.5 -263.5t204.5 -94.5 q85 0 213 53l64 279q25 104 -0.5 145t-112.5 41l2 10h627l-2 -10q-83 0 -123 -35.5t-63 -136.5l-66 -283q-299 -73 -530 -73q-288 0 -458.5 125.5t-170.5 349.5z" />
<glyph horiz-adv-x="1581" d="M-51 0l2 10q83 0 122 36t62 138l162 707q24 103 2.5 138.5t-104.5 35.5l2 10h626l-2 -10q-83 0 -122 -36t-62 -138l-78 -340h479l78 340q22 103 0.5 138.5t-102.5 35.5l2 10h626l-2 -10q-82 0 -120.5 -36t-63.5 -138l-162 -707q-24 -103 -2 -138.5t105 -35.5l-2 -10h-627 l2 10q81 0 121 36.5t63 137.5l80 351h-479l-80 -351q-23 -103 -1 -138.5t104 -35.5l-3 -10h-626z" />
<glyph horiz-adv-x="761" d="M-51 0l2 10q83 0 122 36t62 138l162 707q24 103 2.5 138.5t-104.5 35.5l2 10h626l-2 -10q-82 0 -120.5 -36t-61.5 -138l-164 -707q-23 -103 -1 -138.5t104 -35.5l-3 -10h-626z" />
<glyph horiz-adv-x="743" d="M-160 -283q37 16 67.5 32.5t53.5 36.5t40 36t30.5 39.5t22 39t17 43.5t12.5 42t11 45l199 860q23 101 0 137.5t-103 36.5l3 10h626l-2 -10q-83 0 -122 -36t-62 -138l-189 -813q-16 -69 -74.5 -130.5t-144.5 -106.5t-181.5 -77.5t-201.5 -54.5z" />
<glyph horiz-adv-x="1404" d="M-51 0l2 10q83 0 122 36t62 138l162 707q24 103 2.5 138.5t-104.5 35.5l2 10h626l-2 -10q-82 0 -120.5 -36t-63.5 -138l-102 -445l358 271q110 85 177 160.5t67 119.5q0 68 -123 68l2 10h528l-2 -10q-135 0 -321 -115q-44 -28 -85.5 -60t-97 -77t-102.5 -80l-12 -10 l239 -561q65 -152 156 -152l-2 -10h-455l-207 520l-125 -94l-55 -242q-23 -103 -1 -138.5t104 -35.5l-3 -10h-626z" />
<glyph horiz-adv-x="1171" d="M-51 0l2 10q83 0 122 36t62 138l162 707q24 103 2.5 138.5t-104.5 35.5l2 10h667l-2 -10q-90 0 -145.5 -39t-81.5 -149l-199 -865h107q170 0 316.5 109t223.5 268h7l-121 -389h-1020z" />
<glyph horiz-adv-x="1779" d="M-121 0l2 10q95 0 158 39.5t116 135t109 274.5l96 305q20 62 28 106.5t5 83.5t-22.5 62t-57.5 36t-98 13l2 10h506l180 -694l477 694h428l-2 -10q-87 0 -129.5 -55t-62.5 -168l-107 -606q-25 -116 -1.5 -171t114.5 -55l-2 -10h-639l2 10q85 0 130 51.5t63 157.5l116 692 l-612 -895h-6l-250 871l-139 -428q-58 -180 -66.5 -275.5t30 -134.5t134.5 -39l-2 -10h-500z" />
<glyph d="M-96 0l2 10q77 0 128 20t90 73.5t65.5 129t56.5 203.5l84 359q32 138 -4 204t-156 66l2 10h397l527 -659l51 223q24 102 34 168.5t7.5 119.5t-24 81.5t-60 42.5t-100.5 14l2 10h503l-2 -10q-78 0 -129 -20t-90 -73.5t-65.5 -129t-55.5 -203.5l-149 -651l-10 -2l-656 827 l-88 -377q-20 -85 -29.5 -144t-11 -109.5t8 -81t32 -52.5t58 -30.5t88.5 -8.5l-2 -10h-504z" />
<glyph horiz-adv-x="1503" d="M82 459q0 127 60 244.5t161.5 203.5t243 137.5t297.5 51.5q166 0 299 -56t212 -166t79 -258q0 -127 -60 -244t-161.5 -203t-243 -137.5t-297.5 -51.5q-166 0 -299 55.5t-212 166t-79 257.5zM424 324q0 -160 55 -246t164 -86q99 0 186 72.5t143 185t88 245t32 257.5 q0 160 -55.5 245.5t-164.5 85.5q-81 0 -154 -47.5t-125.5 -126.5t-91.5 -178t-58 -204t-19 -203z" />
<glyph horiz-adv-x="1288" d="M-51 0l2 10q83 0 122 36t62 138l162 707q24 103 2.5 138.5t-104.5 35.5l2 10h659q219 0 331.5 -81t112.5 -210q0 -52 -18.5 -99.5t-63 -92t-110.5 -76.5t-168 -51t-229 -19h-117l4 13h33q143 0 228 109.5t85 279.5q0 47 -7.5 83t-26 67t-54 48t-86.5 17h-92l-203 -879 q-23 -103 -1 -138.5t104 -35.5l-3 -10h-626z" />
<glyph horiz-adv-x="1503" d="M82 459q0 127 60 244.5t161.5 203.5t243 137.5t297.5 51.5q166 0 299 -56t212 -166t79 -258q0 -154 -85 -290.5t-234 -226t-331 -111.5l-198 -123q10 2 41 2q55 0 125.5 -19t140 -46t140 -54t146 -46t138.5 -19q135 0 217 79l6 -6q-174 -274 -366 -274q-64 0 -169.5 32 t-201.5 70.5t-209.5 70.5t-190.5 32q-110 0 -184 -49l-49 -29l-6 10l579 365q-46 -4 -71 -4q-166 0 -299 55.5t-212 166t-79 257.5zM424 324q0 -160 55 -246t164 -86q99 0 186 72.5t143 185t88 245t32 257.5q0 160 -55.5 245.5t-164.5 85.5q-81 0 -154 -47.5t-125.5 -126.5 t-91.5 -178t-58 -204t-19 -203z" />
<glyph horiz-adv-x="1409" d="M-51 0l2 10q83 0 122 36t62 138l162 707q24 103 2.5 138.5t-104.5 35.5l2 10h669q457 0 457 -252q0 -53 -21 -97.5t-54.5 -75t-82.5 -54t-98 -37.5t-108 -23.5t-104.5 -13.5t-96.5 -6l-2 -6q144 -1 223.5 -12t117 -48.5t44.5 -69t11 -115.5q3 -65 7 -103q8 -88 36 -120 t105 -32l-2 -10h-446q-27 51 -27 199q-1 172 -5 202q-9 70 -50 91q-34 16 -108 16h-113l-74 -324q-23 -103 -1 -138.5t104 -35.5l-3 -10h-626zM551 518h129q71 0 126.5 24t87.5 60t52.5 84t27.5 90t7 84q0 203 -188 203h-115z" />
<glyph horiz-adv-x="1140" d="M14 25l60 329l8 2q44 -182 137.5 -273t247.5 -91q71 0 124.5 18.5t82.5 49.5t43 65.5t14 71.5q0 53 -30.5 93t-79 65.5t-107 48t-117.5 49.5t-107.5 61.5t-79 91.5t-30.5 133q0 159 124.5 258t352.5 99q46 0 112 -5t114 -9t107 -2.5t106 12.5l-64 -355h-6 q-47 174 -123.5 261t-222.5 87q-124 0 -182 -56.5t-58 -129.5q0 -51 31 -88.5t80 -62t109 -47t119.5 -51.5t108.5 -66.5t80 -101.5t31 -148q0 -170 -128.5 -261t-393.5 -91q-105 0 -239 13t-224 30z" />
<glyph horiz-adv-x="1300" d="M100 686l119 389h1122l-61 -389l-8 -2q-7 64 -20 116.5t-36.5 102.5t-56.5 84t-83 55t-113 21h-17l-198 -862q-26 -112 11.5 -151.5t129.5 -39.5l-2 -10h-709l2 10q91 0 146.5 39.5t81.5 151.5l198 862h-16q-78 0 -149.5 -30t-131 -86t-107 -119t-93.5 -144z" />
<glyph horiz-adv-x="1359" d="M151.5 193.5q-18.5 74.5 2.5 177.5l114 495q25 103 3.5 151t-99.5 48l4 10h625l-4 -10q-80 0 -122.5 -47t-66.5 -152l-129 -563q-32 -140 13 -217.5t178 -77.5q90 0 170 35t145.5 115.5t91.5 197.5l72 314q22 95 30.5 156t5.5 110.5t-25 75.5t-61.5 39.5t-103.5 13.5 l4 10h502l-4 -10q-78 0 -129.5 -19t-89 -69.5t-62 -119.5t-51.5 -187l-71 -314q-85 -376 -525 -376q-111 0 -195.5 22.5t-144 69.5t-78 121.5z" />
<glyph horiz-adv-x="1259" d="M98 1065l2 10h684l-2 -10q-95 0 -130 -64.5t-15 -158.5l111 -506l210 319q125 186 125 291q0 119 -131 119l2 10h498l-2 -10q-87 0 -157 -40t-140 -122q-21 -25 -44.5 -57.5t-41 -57.5t-47.5 -70.5t-47 -70.5l-443 -657h-14l-231 852q-10 34 -13.5 45.5t-14 42t-18.5 44 t-23 35t-30.5 31t-38.5 17.5t-49 8z" />
<glyph horiz-adv-x="1888" d="M100 1065l2 10h643l-2 -10q-151 0 -114 -191l94 -507l276 415l-8 58q-14 102 -57.5 163.5t-116.5 61.5l2 10h668l-2 -10q-64 0 -102.5 -33t-49 -81.5t-0.5 -108.5l80 -469l176 280q74 120 97 177q28 71 28 131q-3 104 -135 104l2 10h500l-2 -10q-148 0 -273 -135 q-25 -27 -52.5 -63.5t-44 -60.5t-52.5 -81t-51 -80l-420 -655h-15l-165 772l-514 -772h-13l-192 852q-8 36 -13 55t-20.5 56.5t-33 57.5t-49 37t-71.5 17z" />
<glyph horiz-adv-x="1331" d="M-168 0l2 10q151 0 344 144q85 61 225 188l132 121l-179 366q-27 56 -45.5 88t-48 71.5t-63.5 58t-74 18.5l2 10h704l-2 -10q-61 0 -97 -30.5t-38 -72.5t15 -85l98 -211l94 86q162 149 162 237q0 37 -33.5 56.5t-91.5 19.5l2 10h543l-2 -10q-74 0 -149 -29.5t-171 -97.5 q-89 -62 -243 -197l-105 -90l195 -409q46 -98 108.5 -165t134.5 -67l-2 -10h-700l2 10q73 0 113 56t2 133l-125 252l-123 -119q-139 -133 -139 -226q0 -46 40 -71t109 -25l-2 -10h-594z" />
<glyph horiz-adv-x="1304" d="M106 1065l3 10h657l-2 -10q-79 0 -110.5 -52t-0.5 -128l158 -396h6l195 238q131 158 131 244q0 94 -137 94l2 10h481l-2 -10q-120 0 -250 -115q-25 -22 -52.5 -50.5t-44.5 -48.5t-55 -65t-55 -65l-209 -246l-61 -268q-26 -111 12.5 -154t126.5 -43l-2 -10h-711l2 10 q88 0 147 43t85 154l59 254l-200 430q-40 86 -79.5 130t-93.5 44z" />
<glyph horiz-adv-x="1230" d="M-55 4l903 1059h-150q-87 0 -173 -33t-156 -87.5t-125.5 -119t-93.5 -133.5h-11l127 385h1008l4 -2l-911 -1061h188q87 0 173 33.5t156 89.5t126 120.5t94 133.5h10l-123 -389h-1044z" />
<glyph horiz-adv-x="577" d="M31 139q0 64 50.5 110t121.5 46t121.5 -46t50.5 -110t-50.5 -109.5t-121.5 -45.5t-121.5 45.5t-50.5 109.5zM186 877q0 99 60 159t151 60q79 0 127.5 -45.5t48.5 -112.5q0 -42 -22 -89t-58.5 -99t-77 -107t-85.5 -133t-76 -158h-10q9 110 -5.5 213t-33.5 185t-19 127z " />
<glyph horiz-adv-x="579" d="M16 141q0 42 22 89t58.5 99t77.5 107t86 133t76 158h10q-9 -110 5.5 -213t33 -184.5t18.5 -126.5q0 -99 -59.5 -159t-150.5 -60q-80 0 -128.5 45.5t-48.5 111.5zM215 940q0 64 50.5 110t121.5 46t121.5 -46t50.5 -110t-50.5 -110t-121.5 -46t-121.5 46t-50.5 110z" />
<glyph horiz-adv-x="1095" d="M131 819q0 107 137 192t359 85q217 0 345 -83t128 -202q0 -63 -39.5 -112.5t-97.5 -77.5t-133 -49t-136 -29.5t-117.5 -15t-68.5 -9.5l-47 -158h-10l26 166q33 8 55.5 15t56 21t56.5 29t49.5 40t42.5 54.5t26.5 71.5t10.5 91q0 233 -213 233q-84 0 -151 -33.5t-93 -80.5 q56 -9 94 -51.5t38 -98.5q0 -63 -46.5 -107t-115.5 -44q-70 0 -113 46.5t-43 106.5zM240 139q0 64 50.5 110t121.5 46t121.5 -46t50.5 -110t-50.5 -109.5t-121.5 -45.5t-121.5 45.5t-50.5 109.5z" />
<glyph horiz-adv-x="1095" d="M8 268q0 63 39.5 112.5t97.5 77.5t133 49t136 29.5t117.5 15t68.5 9.5l47 158h10l-26 -166q-33 -8 -55.5 -15t-56 -21t-56.5 -29t-49.5 -40t-42.5 -54.5t-26.5 -71.5t-10.5 -91q0 -233 213 -233q84 0 151 34t93 81q-56 9 -94 51t-38 98q0 63 46.5 107.5t115.5 44.5 q70 0 113 -47t43 -107q0 -107 -136.5 -191.5t-359.5 -84.5q-218 0 -345.5 82.5t-127.5 201.5zM524 940q0 64 50.5 110t121.5 46t121.5 -46t50.5 -110t-50.5 -110t-121.5 -46t-121.5 46t-50.5 110z" />
<glyph horiz-adv-x="724" d="M-49 -293l346 1497h539l-5 -12h-172q-88 0 -104 -74l-305 -1325q-18 -74 69 -74h173l-3 -12h-538z" />
<glyph horiz-adv-x="727" d="M-135 -293l4 12h172q88 0 104 74l306 1325q18 74 -70 74h-172l2 12h539l-347 -1497h-538z" />
<glyph horiz-adv-x="788" d="M0 449l4 14q143 0 230 61t118 199q15 62 18 157.5t11 131.5q9 40 28.5 71t44 52t62.5 36t74.5 23.5t90.5 13t99 5.5t111 1l-2 -8q-67 -1 -111.5 -13.5t-79 -45t-50 -91.5t-15.5 -149q0 -28 1 -89t1 -79q0 -47 -12 -83.5t-32 -63.5t-56 -47t-74 -33t-97.5 -23t-114.5 -15 t-136 -11l-4 -14q88 -6 147.5 -12.5t117 -19t90.5 -30t53 -44.5t20 -64q0 -39 -26.5 -99.5t-58.5 -115t-58.5 -123.5t-26.5 -123q0 -56 40 -84t136 -29l-2 -8q-70 0 -116 1.5t-100 6.5t-87 16t-62.5 28.5t-43 45t-13.5 64.5q0 41 19 92t41.5 93t41.5 101t19 115 q0 99 -60.5 144t-179.5 45z" />
<glyph horiz-adv-x="776" d="M-139 -303l2 8q67 1 111.5 13.5t79 45t50 91.5t15.5 149q0 28 -1 89t-1 79q0 55 14 95.5t47 69.5t72 48t104.5 31.5t127.5 19.5t157 13l4 14q-88 6 -147.5 12.5t-117 19t-90.5 30t-53 44.5t-20 64q0 39 26.5 99.5t58.5 115t58.5 123.5t26.5 123q0 56 -39.5 83.5 t-136.5 28.5l2 8q71 0 116.5 -1.5t99.5 -6.5t87 -15.5t62.5 -28t43 -45t13.5 -64.5q0 -41 -19 -92t-41.5 -93.5t-41.5 -101.5t-19 -115q0 -99 60.5 -143.5t179.5 -44.5l-4 -14q-143 0 -230.5 -61.5t-118.5 -199.5q-15 -62 -17.5 -156.5t-10.5 -131.5q-11 -46 -33.5 -80.5 t-59.5 -56.5t-76.5 -35.5t-100 -20t-111.5 -8.5t-129 -2z" />
<glyph horiz-adv-x="733" d="M53 334q0 104 34 202.5t80.5 173t127.5 151t140 122.5t156 103t138 77.5t121 59.5l12 6l4 -8q-69 -42 -137.5 -101.5t-141.5 -151.5t-127.5 -198t-90 -248.5t-35.5 -296.5q0 -198 52 -335t128 -199l-8 -8q-13 10 -49.5 35t-57.5 40t-58.5 44.5t-61 52t-57 57.5t-55 66.5 t-45.5 73.5t-37.5 84t-22.5 93t-9 105z" />
<glyph horiz-adv-x="733" d="M-160 -309q69 42 137.5 101t141.5 151t128 198t90.5 248.5t35.5 296.5q0 198 -52 335.5t-128 199.5l8 8q13 -9 49.5 -35t57 -40.5t58.5 -44.5t61.5 -52t57 -57t54.5 -66.5t45 -74t37.5 -84t22.5 -92.5t9 -105q0 -104 -34 -202.5t-80.5 -173t-127.5 -151t-140 -122.5 t-156 -103t-138 -77.5t-121 -59.5l-12 -6z" />
<glyph horiz-adv-x="1112" d="M8 227q0 62 42 107t112 45q68 0 109.5 -41.5t41.5 -104.5q0 -49 -28 -90.5t-82 -62.5q71 -81 217 -86l96 418q-155 69 -204 98q-118 73 -141 177q-7 30 -7 65q0 76 31 137.5t82.5 101.5t118 65.5t137.5 34.5t141 3l26 118h19l-29 -118q169 -10 272 -78.5t103 -167.5 q0 -63 -40.5 -106.5t-109.5 -43.5q-68 0 -111.5 42.5t-43.5 107.5q0 45 23 86.5t73 62.5q-57 75 -168 84l-86 -374q18 -8 56 -25t56.5 -25t51.5 -24.5t50 -27.5t43 -29t40 -33.5t31 -37.5t25 -44.5t14 -51t6 -59.5q0 -167 -143 -271.5t-398 -98.5l-37 -162h-18l37 164 q-185 7 -296.5 76t-111.5 169zM406 893q0 -60 45.5 -98.5t134.5 -79.5l84 368q-73 2 -127 -16.5t-82.5 -49t-41.5 -62t-13 -62.5zM438 -6q70 0 124.5 15t85.5 37.5t50.5 53t26 56t6.5 51.5q0 69 -48 110t-151 86z" />
<glyph horiz-adv-x="1341" d="M43 422l4 14h117q6 115 55 219h-123l4 15h125q89 186 278.5 306t409.5 120q100 0 179.5 -27t125.5 -70.5t69.5 -92.5t23.5 -99q0 -69 -43 -118.5t-115 -49.5q-68 0 -115 45t-47 113q0 60 35.5 98t91.5 53q-19 67 -58 101t-114 34t-141 -33.5t-116 -93t-87 -130.5 t-65 -156h331l-4 -15h-332q-32 -102 -45 -219h328l-4 -14h-326q-2 -29 -2 -80q0 -153 63 -244.5t202 -91.5q242 0 454 316l12 -7q-55 -82 -104 -137t-115 -103t-150 -71.5t-188 -23.5q-230 0 -361.5 114t-131.5 314v14h-121z" />
<glyph horiz-adv-x="1449" d="M174 1065l2 10h637l-2 -10q-81 0 -112 -52.5t-1 -123.5l154 -363h8l154 193q149 186 149 266t-137 80l2 10h483l-2 -10q-133 0 -258 -107q-80 -67 -225 -247l-88 -111h225l-4 -16h-235l-54 -66l-34 -158h272l-4 -16h-273l-32 -139q-10 -41 -11 -72.5t7 -52.5t20 -35 t32.5 -21.5t42 -10.5t50.5 -3l-2 -10h-686l2 10q90 0 147 39.5t84 155.5l33 139h-297l4 16h297l25 115l-49 109h-187l4 16h177l-142 303q-76 162 -176 162z" />
<glyph horiz-adv-x="1249" d="M29 111q0 74 76 116.5t206 42.5q41 0 99 -6q-5 50 -27 98.5t-59 106.5t-52 90h-198l4 14h188q-35 79 -35 150q0 114 74.5 200.5t197 129.5t271.5 43q113 0 201.5 -26t140 -68.5t77.5 -91t26 -99.5q0 -67 -42.5 -115.5t-111.5 -48.5q-67 0 -113.5 44t-46.5 106 q0 50 31.5 95t87.5 58q-50 129 -184 129q-38 0 -71 -10.5t-56.5 -26t-44 -42t-33.5 -50.5t-26 -60t-20 -62t-16 -64q-11 -45 -25 -113.5t-16 -77.5h277l-4 -14h-275q-40 -189 -43 -201q-11 -49 -16.5 -63t-9.5 -33q34 -2 156.5 -14t175.5 -12q129 0 206 55t111 188h10 q-6 -48 -12 -82.5t-18.5 -90.5t-27 -96.5t-39.5 -86.5t-55 -75t-73 -48.5t-94 -19.5q-49 0 -89.5 17t-71.5 45t-58.5 58.5t-64 64t-73.5 54.5q-96 -231 -270 -231q-68 0 -106.5 34.5t-38.5 88.5zM43 111q0 -49 34 -80t95 -31q93 0 154.5 67.5t81.5 168.5q-46 18 -119 18 q-106 0 -176 -36t-70 -107z" />
<glyph horiz-adv-x="1517" d="M2 213q0 58 34 106.5t97.5 84.5t139 62.5t173.5 49.5l-36 45q-111 124 -111 236q0 143 134 221t355 78q186 0 290 -54t104 -141q0 -34 -17.5 -64t-42 -51.5t-66 -42t-73.5 -32.5t-82 -25t-74.5 -18.5t-66.5 -13.5q-3 -1 -5 -1t-5 -1t-5 -1l308 -354q61 77 90 152 q26 66 -7 94t-153 28l2 13h453l-2 -13q-45 0 -76 -2t-57 -10.5t-42 -16.5t-35.5 -29t-32 -38t-36.5 -53q-60 -87 -96 -135l145 -166q55 -64 94.5 -86.5t98.5 -22.5l-4 -12h-498l-63 72q-162 -92 -394 -92q-205 0 -321.5 62t-116.5 171zM322 238q0 -115 69 -168.5t189 -53.5 q129 0 243 66l-370 428q-58 -48 -94.5 -118t-36.5 -154zM598 895q0 -45 21.5 -84.5t72.5 -97.5l49 -58q86 54 141.5 131t55.5 156q0 65 -38 104t-107 39q-87 0 -141 -57t-54 -133z" />
<glyph horiz-adv-x="1288" d="M-186 0l2 10q38 0 75 11.5t67.5 27.5t66 48t60 57t60 70.5t56 73.5t57.5 81l500 706h12l252 -847q14 -47 27.5 -81.5t35.5 -71t52 -56t67 -19.5l-2 -10h-672l2 10q100 0 139 65.5t13 157.5l-33 117h-399l-6 -8q-37 -50 -54 -106.5t-10.5 -107.5t51 -84.5t123.5 -33.5 l-2 -10h-540zM266 367h379l-108 383zM586 1483q3 48 41 76q38 27 85 13.5t79 -61.5q14 -22 30 -58t27.5 -69t33 -97t36.5 -105l-5 -4q-60 42 -135.5 89t-108.5 71.5t-53 52.5q-33 44 -30 92z" />
<glyph horiz-adv-x="1288" d="M-186 0l2 10q38 0 75 11.5t67.5 27.5t66 48t60 57t60 70.5t56 73.5t57.5 81l500 706h12l252 -847q14 -47 27.5 -81.5t35.5 -71t52 -56t67 -19.5l-2 -10h-672l2 10q100 0 139 65.5t13 157.5l-33 117h-399l-6 -8q-37 -50 -54 -106.5t-10.5 -107.5t51 -84.5t123.5 -33.5 l-2 -10h-540zM266 367h379l-108 383zM596 1184q250 289 307 336q50 39 94.5 37.5t73.5 -37.5q24 -29 22 -61t-17.5 -58t-39.5 -45q-28 -22 -91.5 -48t-173.5 -65t-171 -63z" />
<glyph horiz-adv-x="1288" d="M-186 0l2 10q38 0 75 11.5t67.5 27.5t66 48t60 57t60 70.5t56 73.5t57.5 81l500 706h12l252 -847q14 -47 27.5 -81.5t35.5 -71t52 -56t67 -19.5l-2 -10h-672l2 10q100 0 139 65.5t13 157.5l-33 117h-399l-6 -8q-37 -50 -54 -106.5t-10.5 -107.5t51 -84.5t123.5 -33.5 l-2 -10h-540zM266 367h379l-108 383zM446 1155l306 322q48 51 100 51q53 0 76 -51l157 -322l-4 -4l-276 170l-354 -170z" />
<glyph horiz-adv-x="1288" d="M-186 0l2 10q38 0 75 11.5t67.5 27.5t66 48t60 57t60 70.5t56 73.5t57.5 81l500 706h12l252 -847q14 -47 27.5 -81.5t35.5 -71t52 -56t67 -19.5l-2 -10h-672l2 10q100 0 139 65.5t13 157.5l-33 117h-399l-6 -8q-37 -50 -54 -106.5t-10.5 -107.5t51 -84.5t123.5 -33.5 l-2 -10h-540zM266 367h379l-108 383zM459 1358q0 59 41 101t102 42q60 0 103 -42t43 -103q0 -60 -42.5 -103t-101.5 -43t-102 43.5t-43 104.5zM852 1358q0 59 41 101t102 42q60 0 103 -42t43 -103q0 -60 -42.5 -103t-101.5 -43t-102 43.5t-43 104.5z" />
<glyph horiz-adv-x="1288" d="M-186 0l2 10q38 0 75 11.5t67.5 27.5t66 48t60 57t60 70.5t56 73.5t57.5 81l500 706h12l252 -847q14 -47 27.5 -81.5t35.5 -71t52 -56t67 -19.5l-2 -10h-672l2 10q100 0 139 65.5t13 157.5l-33 117h-399l-6 -8q-37 -50 -54 -106.5t-10.5 -107.5t51 -84.5t123.5 -33.5 l-2 -10h-540zM266 367h379l-108 383zM463 1194q4 13 14.5 49.5t18.5 60t22 59.5t30 59.5t37.5 47t49.5 35t61 11.5q52 0 157 -48.5t161 -48.5q34 0 60 11t42 31.5t24.5 37.5t16.5 39l10 -2q-3 -9 -13 -41t-14 -45t-14.5 -42.5t-17.5 -43.5l-19.5 -39t-23 -37.5t-26 -29 t-31 -24.5t-35 -14t-41.5 -6q-51 0 -154.5 48.5t-161.5 48.5q-34 0 -60 -11t-42.5 -32t-25 -37t-17.5 -39z" />
<glyph horiz-adv-x="1288" d="M-186 0l2 10q38 0 75 11.5t67.5 27.5t66 48t60 57t60 70.5t56 73.5t57.5 81l500 706h12l252 -847q14 -47 27.5 -81.5t35.5 -71t52 -56t67 -19.5l-2 -10h-672l2 10q100 0 139 65.5t13 157.5l-33 117h-399l-6 -8q-37 -50 -54 -106.5t-10.5 -107.5t51 -84.5t123.5 -33.5 l-2 -10h-540zM266 367h379l-108 383zM543 1341q0 101 89 173.5t218 72.5q106 0 176 -50t70 -138q0 -100 -90 -172t-220 -72q-105 0 -174 49.5t-69 136.5zM729 1249q0 -86 49 -86q31 0 57 39t41 95t23 108.5t8 87.5q0 86 -49 86q-33 0 -59.5 -40t-40.5 -96.5t-21.5 -108 t-7.5 -85.5z" />
<glyph horiz-adv-x="1939" d="M-184 0l2 10q44 0 91 14t98.5 45.5t92 60t98 80t88 81t89.5 86.5l635 620q-4 37 -31.5 52.5t-83.5 15.5l2 10h1030l-53 -360l-10 -2q0 158 -89 254t-264 96h-133l-121 -520h60q131 0 228 72.5t155 187.5h6l-123 -529h-6q-5 113 -68 184.5t-194 71.5h-60l-120 -518h139 q93 0 177 32t149.5 88.5t114.5 118t91 136.5l4 -2l-122 -385h-1039l2 10q83 0 122.5 36.5t62.5 137.5l47 211h-465l-31 -30q-118 -115 -150 -215q-36 -111 66 -134q25 -6 57 -6l-2 -10h-542zM434 412h453l110 479q13 60 13 90z" />
<glyph horiz-adv-x="1333" d="M76 434q0 108 41 209t117 182t176.5 142.5t225 95t257.5 33.5q47 0 114 -5t115.5 -8.5t109 -1.5t109.5 13l-53 -375h-8q-41 191 -138.5 278.5t-232.5 87.5q-91 0 -167.5 -37.5t-127 -100t-88.5 -138t-58.5 -158.5t-30 -153.5t-9.5 -130.5q0 -105 28 -187.5t93.5 -136 t159.5 -53.5q255 0 522 395l4 -2l-143 -352q-204 -51 -383 -51q-41 0 -107 4l-143 -111q59 16 135 16q113 0 177.5 -39t64.5 -118q0 -69 -50 -118t-125 -70t-165 -21q-83 0 -155 18t-112 49l11 11q23 -19 74.5 -32t101.5 -13q92 0 140 50.5t48 127.5q0 56 -26 93.5t-84 37.5 q-37 0 -80 -17l-4 7l172 131q-245 23 -375.5 139t-130.5 309z" />
<glyph horiz-adv-x="1239" d="M-51 0l2 10q83 0 122 36t62 138l162 707q24 103 2.5 138.5t-104.5 35.5l2 10h1030l-53 -360l-11 -2q0 158 -88.5 254t-263.5 96h-133l-121 -520h59q131 0 228 72.5t155 187.5h7l-123 -529h-6q-5 113 -68.5 184.5t-194.5 71.5h-59l-121 -518h139q93 0 177 32t150 88.5 t115 118.5t91 136l4 -2l-123 -385h-1038zM590.5 1483.5q2.5 48.5 40.5 75.5t85 13.5t79 -61.5q14 -22 30 -58t27.5 -69t33 -97t36.5 -105l-4 -4q-60 42 -135.5 89t-108.5 71.5t-53 52.5q-33 44 -30.5 92.5z" />
<glyph horiz-adv-x="1239" d="M-51 0l2 10q83 0 122 36t62 138l162 707q24 103 2.5 138.5t-104.5 35.5l2 10h1030l-53 -360l-11 -2q0 158 -88.5 254t-263.5 96h-133l-121 -520h59q131 0 228 72.5t155 187.5h7l-123 -529h-6q-5 113 -68.5 184.5t-194.5 71.5h-59l-121 -518h139q93 0 177 32t150 88.5 t115 118.5t91 136l4 -2l-123 -385h-1038zM590 1184q250 289 307 336q50 39 94.5 37.5t73.5 -37.5q24 -29 22 -61t-17.5 -58t-39.5 -45q-28 -22 -91.5 -48t-173.5 -65t-171 -63z" />
<glyph horiz-adv-x="1239" d="M-51 0l2 10q83 0 122 36t62 138l162 707q24 103 2.5 138.5t-104.5 35.5l2 10h1030l-53 -360l-11 -2q0 158 -88.5 254t-263.5 96h-133l-121 -520h59q131 0 228 72.5t155 187.5h7l-123 -529h-6q-5 113 -68.5 184.5t-194.5 71.5h-59l-121 -518h139q93 0 177 32t150 88.5 t115 118.5t91 136l4 -2l-123 -385h-1038zM442 1155l306 322q48 51 100 51q53 0 76 -51l157 -322l-4 -4l-276 170l-355 -170z" />
<glyph horiz-adv-x="1239" d="M-51 0l2 10q83 0 122 36t62 138l162 707q24 103 2.5 138.5t-104.5 35.5l2 10h1030l-53 -360l-11 -2q0 158 -88.5 254t-263.5 96h-133l-121 -520h59q131 0 228 72.5t155 187.5h7l-123 -529h-6q-5 113 -68.5 184.5t-194.5 71.5h-59l-121 -518h139q93 0 177 32t150 88.5 t115 118.5t91 136l4 -2l-123 -385h-1038zM459 1358q0 59 41 101t102 42q60 0 103 -42t43 -103q0 -60 -42.5 -103t-101.5 -43t-102 43.5t-43 104.5zM852 1358q0 59 41 101t102 42q60 0 103 -42t43 -103q0 -60 -42.5 -103t-101.5 -43t-102 43.5t-43 104.5z" />
<glyph horiz-adv-x="1505" d="M-49 0l2 10q83 0 122 36t62 138l78 346h-143l4 19h143l80 342q24 103 2.5 138.5t-104.5 35.5l2 10h657q269 0 424.5 -117t155.5 -331q0 -176 -106 -319.5t-295.5 -225.5t-426.5 -82h-657zM436 12h123q121 0 216.5 50t151.5 124.5t93 171.5t50 181t13 163 q0 77 -14.5 139.5t-45.5 113.5t-86.5 79.5t-131.5 28.5h-125l-121 -514h275l-5 -19h-274z" />
<glyph horiz-adv-x="761" d="M-51 0l2 10q83 0 122 36t62 138l162 707q24 103 2.5 138.5t-104.5 35.5l2 10h626l-2 -10q-82 0 -120.5 -36t-61.5 -138l-164 -707q-23 -103 -1 -138.5t104 -35.5l-3 -10h-626zM352.5 1483.5q2.5 48.5 40.5 75.5t85 13.5t79 -61.5q14 -22 30 -58t27.5 -69t33 -97 t36.5 -105l-4 -4q-60 42 -135.5 89t-108.5 71.5t-53 52.5q-33 44 -30.5 92.5z" />
<glyph horiz-adv-x="761" d="M-51 0l2 10q83 0 122 36t62 138l162 707q24 103 2.5 138.5t-104.5 35.5l2 10h626l-2 -10q-82 0 -120.5 -36t-61.5 -138l-164 -707q-23 -103 -1 -138.5t104 -35.5l-3 -10h-626zM369 1184q250 289 307 336q50 39 94.5 37.5t73.5 -37.5q24 -29 22 -61t-17.5 -58t-39.5 -45 q-28 -22 -91.5 -48t-173.5 -65t-171 -63z" />
<glyph horiz-adv-x="761" d="M-51 0l2 10q83 0 122 36t62 138l162 707q24 103 2.5 138.5t-104.5 35.5l2 10h626l-2 -10q-82 0 -120.5 -36t-61.5 -138l-164 -707q-23 -103 -1 -138.5t104 -35.5l-3 -10h-626zM209 1155l305 322q48 51 100 51q53 0 76 -51l158 -322l-4 -4l-277 170l-354 -170z" />
<glyph horiz-adv-x="761" d="M-51 0l2 10q83 0 122 36t62 138l162 707q24 103 2.5 138.5t-104.5 35.5l2 10h626l-2 -10q-82 0 -120.5 -36t-61.5 -138l-164 -707q-23 -103 -1 -138.5t104 -35.5l-3 -10h-626zM236 1358q0 59 41 101t102 42q60 0 102.5 -42t42.5 -103q0 -60 -42 -103t-101 -43t-102 43.5 t-43 104.5zM629 1358q0 59 41 101t102 42q60 0 103 -42t43 -103q0 -60 -42.5 -103t-101.5 -43t-102 43.5t-43 104.5z" />
<glyph d="M-96 0l2 10q77 0 128 20t90 73.5t65.5 129t56.5 203.5l84 359q32 138 -4 204t-156 66l2 10h397l527 -659l51 223q24 102 34 168.5t7.5 119.5t-24 81.5t-60 42.5t-100.5 14l2 10h503l-2 -10q-78 0 -129 -20t-90 -73.5t-65.5 -129t-55.5 -203.5l-149 -651l-10 -2l-656 827 l-88 -377q-20 -85 -29.5 -144t-11 -109.5t8 -81t32 -52.5t58 -30.5t88.5 -8.5l-2 -10h-504zM555 1194q4 13 14.5 49.5t18.5 60t22 59.5t30 59.5t37.5 47t49.5 35t61 11.5q52 0 157 -48.5t161 -48.5q34 0 60 11t42 31.5t24.5 37.5t16.5 39l11 -2q-2 -8 -12.5 -41.5 t-14.5 -44.5t-15 -42t-17.5 -44t-19.5 -38.5t-23 -37.5t-26 -29.5t-31.5 -25t-35 -13.5t-41.5 -6q-51 0 -154 48.5t-161 48.5q-34 0 -60 -11t-43 -31.5t-25.5 -37t-17.5 -39.5z" />
<glyph horiz-adv-x="1503" d="M82 459q0 127 60 244.5t161.5 203.5t243 137.5t297.5 51.5q166 0 299 -56t212 -166t79 -258q0 -127 -60 -244t-161.5 -203t-243 -137.5t-297.5 -51.5q-166 0 -299 55.5t-212 166t-79 257.5zM424 324q0 -160 55 -246t164 -86q99 0 186 72.5t143 185t88 245t32 257.5 q0 160 -55.5 245.5t-164.5 85.5q-81 0 -154 -47.5t-125.5 -126.5t-91.5 -178t-58 -204t-19 -203zM694.5 1483.5q2.5 48.5 40.5 75.5t85 13.5t79 -61.5q14 -22 30 -58t27.5 -69t33 -97t36.5 -105l-4 -4q-60 42 -135.5 89t-108.5 71.5t-53 52.5q-33 44 -30.5 92.5z" />
<glyph horiz-adv-x="1503" d="M82 459q0 127 60 244.5t161.5 203.5t243 137.5t297.5 51.5q166 0 299 -56t212 -166t79 -258q0 -127 -60 -244t-161.5 -203t-243 -137.5t-297.5 -51.5q-166 0 -299 55.5t-212 166t-79 257.5zM424 324q0 -160 55 -246t164 -86q99 0 186 72.5t143 185t88 245t32 257.5 q0 160 -55.5 245.5t-164.5 85.5q-81 0 -154 -47.5t-125.5 -126.5t-91.5 -178t-58 -204t-19 -203zM696 1184q247 286 308 336q50 39 94 37.5t73 -37.5q24 -29 22 -61t-17 -58t-39 -45q-28 -22 -92 -48t-173.5 -65t-171.5 -63z" />
<glyph horiz-adv-x="1503" d="M82 459q0 127 60 244.5t161.5 203.5t243 137.5t297.5 51.5q166 0 299 -56t212 -166t79 -258q0 -127 -60 -244t-161.5 -203t-243 -137.5t-297.5 -51.5q-166 0 -299 55.5t-212 166t-79 257.5zM424 324q0 -160 55 -246t164 -86q99 0 186 72.5t143 185t88 245t32 257.5 q0 160 -55.5 245.5t-164.5 85.5q-81 0 -154 -47.5t-125.5 -126.5t-91.5 -178t-58 -204t-19 -203zM571 1155l306 322q48 51 100 51q53 0 76 -51l157 -322l-4 -4l-276 170l-355 -170z" />
<glyph horiz-adv-x="1503" d="M82 459q0 127 60 244.5t161.5 203.5t243 137.5t297.5 51.5q166 0 299 -56t212 -166t79 -258q0 -127 -60 -244t-161.5 -203t-243 -137.5t-297.5 -51.5q-166 0 -299 55.5t-212 166t-79 257.5zM424 324q0 -160 55 -246t164 -86q99 0 186 72.5t143 185t88 245t32 257.5 q0 160 -55.5 245.5t-164.5 85.5q-81 0 -154 -47.5t-125.5 -126.5t-91.5 -178t-58 -204t-19 -203zM592 1358q0 59 41 101t102 42q60 0 103 -42t43 -103q0 -60 -42.5 -103t-101.5 -43t-102 43.5t-43 104.5zM985 1358q0 59 41 101t102 42q60 0 103 -42t43 -103 q0 -60 -42.5 -103t-101.5 -43t-102 43.5t-43 104.5z" />
<glyph horiz-adv-x="1503" d="M82 459q0 127 60 244.5t161.5 203.5t243 137.5t297.5 51.5q166 0 299 -56t212 -166t79 -258q0 -127 -60 -244t-161.5 -203t-243 -137.5t-297.5 -51.5q-166 0 -299 55.5t-212 166t-79 257.5zM424 324q0 -160 55 -246t164 -86q99 0 186 72.5t143 185t88 245t32 257.5 q0 160 -55.5 245.5t-164.5 85.5q-81 0 -154 -47.5t-125.5 -126.5t-91.5 -178t-58 -204t-19 -203zM588 1194q4 13 14.5 49.5t18.5 60t22 59.5t30 59.5t37.5 47t49.5 35t61 11.5q52 0 157 -48.5t161 -48.5q34 0 60 11t42 31.5t24.5 37.5t16.5 39l10 -2q-3 -9 -13 -41t-14 -45 t-14.5 -42.5t-17.5 -43.5l-19.5 -39t-23 -37.5t-26 -29t-31 -24.5t-35 -14t-41.5 -6q-51 0 -154.5 48.5t-161.5 48.5q-34 0 -60 -11t-42.5 -32t-25 -37t-17.5 -39z" />
<glyph horiz-adv-x="1503" d="M82 459q0 127 60 244.5t161.5 203.5t243 137.5t297.5 51.5q240 0 399 -113l148 133l10 -14l-144 -129q177 -133 177 -357q0 -127 -60 -244t-161.5 -203t-243 -137.5t-297.5 -51.5q-245 0 -402 112l-145 -131l-10 14l141 127q-174 131 -174 357zM424 324q0 -47 2 -70 l659 590q-14 116 -67.5 177.5t-145.5 61.5q-81 0 -154 -47.5t-125.5 -126.5t-91.5 -178t-58 -204t-19 -203zM428 231q14 -117 68 -178t147 -61q99 0 186 72.5t143 185t88 245t32 257.5q0 11 -5 69z" />
<glyph horiz-adv-x="2033" d="M82 459q0 175 110.5 323.5t285.5 231t368 82.5q50 0 212 -10.5t232 -10.5h731l-53 -360l-8 -2q-2 159 -91 254.5t-263 95.5h-133l-121 -520h59q131 0 228 72.5t155 187.5h6l-123 -529h-6q-3 113 -67 184.5t-195 71.5h-59l-119 -518h139q75 0 145 22t125 57t105 85.5 t86.5 101t69.5 109.5l6 -2l-125 -385h-740q-70 0 -217 -10t-192 -10q-148 0 -272 56t-201.5 167t-77.5 256zM424 342q0 -171 57 -260.5t189 -89.5q105 0 173 56.5t91 152.5l156 673q16 68 -13.5 117.5t-81.5 70.5t-114 21q-104 0 -192 -65.5t-145 -172t-88.5 -237.5 t-31.5 -266z" />
<glyph horiz-adv-x="1359" d="M151.5 193.5q-18.5 74.5 2.5 177.5l114 495q25 103 3.5 151t-99.5 48l4 10h625l-4 -10q-80 0 -122.5 -47t-66.5 -152l-129 -563q-32 -140 13 -217.5t178 -77.5q90 0 170 35t145.5 115.5t91.5 197.5l72 314q22 95 30.5 156t5.5 110.5t-25 75.5t-61.5 39.5t-103.5 13.5 l4 10h502l-4 -10q-78 0 -129.5 -19t-89 -69.5t-62 -119.5t-51.5 -187l-71 -314q-85 -376 -525 -376q-111 0 -195.5 22.5t-144 69.5t-78 121.5zM686 1184q250 289 307 336q50 39 94.5 37.5t73.5 -37.5q24 -29 22 -61t-17.5 -58t-39.5 -45q-28 -22 -91.5 -48t-173.5 -65 t-171 -63z" />
<glyph horiz-adv-x="1359" d="M151.5 193.5q-18.5 74.5 2.5 177.5l114 495q25 103 3.5 151t-99.5 48l4 10h625l-4 -10q-80 0 -122.5 -47t-66.5 -152l-129 -563q-32 -140 13 -217.5t178 -77.5q90 0 170 35t145.5 115.5t91.5 197.5l72 314q22 95 30.5 156t5.5 110.5t-25 75.5t-61.5 39.5t-103.5 13.5 l4 10h502l-4 -10q-78 0 -129.5 -19t-89 -69.5t-62 -119.5t-51.5 -187l-71 -314q-85 -376 -525 -376q-111 0 -195.5 22.5t-144 69.5t-78 121.5zM672 1483q3 48 41 76q38 27 85 13.5t79 -61.5q14 -22 30 -58t27.5 -69t33 -97t36.5 -105l-5 -4q-60 42 -135.5 89t-108.5 71.5 t-53 52.5q-33 44 -30 92z" />
<glyph horiz-adv-x="1359" d="M151.5 193.5q-18.5 74.5 2.5 177.5l114 495q25 103 3.5 151t-99.5 48l4 10h625l-4 -10q-80 0 -122.5 -47t-66.5 -152l-129 -563q-32 -140 13 -217.5t178 -77.5q90 0 170 35t145.5 115.5t91.5 197.5l72 314q22 95 30.5 156t5.5 110.5t-25 75.5t-61.5 39.5t-103.5 13.5 l4 10h502l-4 -10q-78 0 -129.5 -19t-89 -69.5t-62 -119.5t-51.5 -187l-71 -314q-85 -376 -525 -376q-111 0 -195.5 22.5t-144 69.5t-78 121.5zM545 1155l305 322q48 51 100 51q53 0 76 -51l158 -322l-4 -4l-277 170l-354 -170z" />
<glyph horiz-adv-x="1359" d="M151.5 193.5q-18.5 74.5 2.5 177.5l114 495q25 103 3.5 151t-99.5 48l4 10h625l-4 -10q-80 0 -122.5 -47t-66.5 -152l-129 -563q-32 -140 13 -217.5t178 -77.5q90 0 170 35t145.5 115.5t91.5 197.5l72 314q22 95 30.5 156t5.5 110.5t-25 75.5t-61.5 39.5t-103.5 13.5 l4 10h502l-4 -10q-78 0 -129.5 -19t-89 -69.5t-62 -119.5t-51.5 -187l-71 -314q-85 -376 -525 -376q-111 0 -195.5 22.5t-144 69.5t-78 121.5zM569 1358q0 59 41.5 101t102.5 42q60 0 102.5 -42t42.5 -103q0 -60 -42 -103t-101 -43t-102.5 43.5t-43.5 104.5zM963 1358 q0 59 41 101t102 42q60 0 102.5 -42t42.5 -103q0 -60 -42 -103t-101 -43t-102 43.5t-43 104.5z" />
<glyph horiz-adv-x="1304" d="M106 1065l3 10h657l-2 -10q-79 0 -110.5 -52t-0.5 -128l158 -396h6l195 238q131 158 131 244q0 94 -137 94l2 10h481l-2 -10q-120 0 -250 -115q-25 -22 -52.5 -50.5t-44.5 -48.5t-55 -65t-55 -65l-209 -246l-61 -268q-26 -111 12.5 -154t126.5 -43l-2 -10h-711l2 10 q88 0 147 43t85 154l59 254l-200 430q-40 86 -79.5 130t-93.5 44zM694 1184q250 289 307 336q50 39 94.5 37.5t73.5 -37.5q24 -29 22 -61t-17 -58t-39 -45q-28 -22 -92 -48t-173.5 -65t-171.5 -63z" />
<glyph horiz-adv-x="1304" d="M106 1065l3 10h657l-2 -10q-79 0 -110.5 -52t-0.5 -128l158 -396h6l195 238q131 158 131 244q0 94 -137 94l2 10h481l-2 -10q-120 0 -250 -115q-25 -22 -52.5 -50.5t-44.5 -48.5t-55 -65t-55 -65l-209 -246l-61 -268q-26 -111 12.5 -154t126.5 -43l-2 -10h-711l2 10 q88 0 147 43t85 154l59 254l-200 430q-40 86 -79.5 130t-93.5 44zM526 1358q0 59 41.5 101t102.5 42q60 0 102.5 -42t42.5 -103q0 -60 -42 -103t-101 -43t-102.5 43.5t-43.5 104.5zM920 1358q0 59 41 101t102 42q60 0 102.5 -42t42.5 -103q0 -60 -42 -103t-101 -43 t-102 43.5t-43 104.5z" />
<glyph horiz-adv-x="1294" d="M-51 0l2 10q83 0 122 36t62 138l162 707q24 103 2.5 138.5t-104.5 35.5l2 10h626l-2 -10q-82 0 -120.5 -36t-61.5 -138l-6 -25h176q219 0 331.5 -81t112.5 -210q0 -66 -31.5 -124t-97.5 -107t-184 -77.5t-276 -28.5h-117l4 12h33q143 0 228 109.5t85 279.5q0 47 -7.5 83 t-26 67t-54 48t-86.5 17h-92l-156 -670q-23 -103 -1 -138.5t104 -35.5l-3 -10h-626z" />
<glyph horiz-adv-x="1255" d="M86 420q0 183 83.5 337t236 246.5t342.5 92.5q206 0 320 -112.5t114 -324.5q0 -138 -49 -262.5t-135 -216.5t-210 -146t-266 -54q-206 0 -321 113.5t-115 326.5zM399 197q0 -105 22 -155t81 -50q80 0 151.5 91.5t116.5 229t71.5 290t26.5 282.5q0 103 -21.5 151.5 t-78.5 48.5q-64 0 -123.5 -59t-103 -154.5t-76.5 -212.5t-49.5 -237t-16.5 -225z" />
<glyph horiz-adv-x="831" d="M-51 0l2 10q108 0 168.5 41t89.5 162l153 621q14 51 1 73.5t-64 22.5h-125l2 8q314 31 567 141l9 -4l-215 -880q-11 -42 -13 -73.5t6 -51t19.5 -32t33.5 -18.5t42.5 -8t52.5 -2l-2 -10h-727z" />
<glyph horiz-adv-x="1171" d="M4 0q6 115 42 184.5t126 134.5q51 37 127.5 82t138.5 78t129.5 80t113 92t75.5 108.5t30 135.5q0 184 -186 184q-84 0 -148.5 -35t-99.5 -94q53 -12 88 -56t35 -103q0 -70 -47.5 -118t-114.5 -48q-70 0 -114.5 51.5t-44.5 116.5q0 54 35.5 107.5t100 97.5t165.5 71 t221 27q87 0 163.5 -15t141 -46t102 -86t37.5 -128q0 -70 -35.5 -122.5t-98 -86t-140.5 -59t-171 -50t-181 -51t-179.5 -69.5t-158.5 -98q-54 -45 -84 -88q108 141 348 141q70 0 195 -15.5t184 -15.5q112 0 173 45t64 168h13q1 -55 -7.5 -120.5t-33.5 -142t-62 -137.5 t-100 -102t-141 -41q-56 0 -103 21t-78 52.5t-64.5 68t-63 68t-72.5 52.5t-93 21q-55 0 -97 -23.5t-66 -63t-35.5 -83t-12.5 -90.5h-16z" />
<glyph horiz-adv-x="1177" d="M12 217q0 72 47.5 124t118.5 52q67 0 111.5 -48t44.5 -118q0 -62 -36.5 -106t-92.5 -55q49 -66 166 -66q147 0 229 95t82 229q0 105 -60 160t-194 55q-52 0 -90 -9.5t-39 -9.5q-11 0 -20 6.5t-9 16.5q0 11 12 20.5t27 9.5q3 0 37.5 -11t87.5 -11q91 0 160.5 30.5 t108.5 81t58 108t19 120.5q0 94 -45.5 139t-140.5 45q-127 0 -201 -78q48 -18 78.5 -60t30.5 -97q0 -68 -44 -112t-112 -44q-72 0 -114 47.5t-42 108.5q0 110 139.5 183t352.5 73q205 0 328 -71.5t123 -193.5q0 -76 -48.5 -132t-134 -88t-188.5 -47t-225 -15h-19l-2 -8h21 q143 0 251.5 -27.5t174 -87.5t65.5 -147q0 -74 -47.5 -132t-127.5 -94t-180 -54.5t-212 -18.5q-222 0 -335.5 67t-113.5 170z" />
<glyph horiz-adv-x="1206" d="M-12 287l182 108q134 80 223.5 207t89.5 256q0 73 -27.5 136t-70.5 102q84 6 167.5 -3t159 -32.5t122.5 -72t47 -114.5q0 -54 -33.5 -104.5t-85.5 -88t-127.5 -78t-145 -70.5t-154 -70t-140.5 -72l-172 -98h573l35 135l389 293h8l-100 -428q54 0 89 5t50.5 10t22.5 5 q26 0 26 -22q0 -14 -13.5 -23.5t-27.5 -9.5q-5 0 -19 4.5t-47.5 9t-84.5 4.5l-21 -81q-11 -42 -13 -73.5t5.5 -51t18.5 -32t33 -18.5t42 -8t51 -2l-2 -10h-727l2 10q54 0 91.5 7.5t72.5 28.5t58.5 62t39.5 105l17 68h-602z" />
<glyph horiz-adv-x="1150" d="M4 223q0 71 46 120.5t120 49.5q71 0 113.5 -47t42.5 -117q0 -65 -37.5 -109.5t-95.5 -53.5q46 -68 147 -68q82 0 147.5 37t104 96.5t58.5 128.5t20 139q0 217 -205 217q-66 0 -135.5 -20t-116.5 -49q-7 -18 -12 -28t-17.5 -21t-27.5 -11q-23 0 -23 21q0 34 68 49l172 518 q16 -1 51 -3q88 -5 137.5 -7.5t139.5 -4.5t149 2.5t127 13t114 28t72 47.5v-41q-17 -350 -356 -350q-61 0 -110.5 11t-107.5 42.5t-103 62.5t-132 97l-141 -412q176 90 362 90q87 0 164.5 -18.5t142 -54.5t102.5 -97.5t38 -140.5q0 -115 -79.5 -198t-208.5 -122.5 t-292 -39.5q-213 0 -325.5 66.5t-112.5 176.5z" />
<glyph horiz-adv-x="1234" d="M78 401q0 138 52.5 263.5t146 221.5t233 153t303.5 57q185 0 279 -67t94 -173q0 -72 -41.5 -119t-114.5 -47q-72 0 -118 45.5t-46 114.5q0 59 34.5 102.5t86.5 55.5q-21 73 -117 73q-100 0 -195 -86t-161.5 -221.5t-95.5 -290.5q46 89 132.5 148t219.5 59q148 0 244 -76 t96 -211q0 -84 -40.5 -161t-113.5 -135t-182 -92.5t-237 -34.5q-235 0 -347 111t-112 310zM362 197q-5 -205 138 -205q63 0 116.5 41t87 102t57.5 134t34 135.5t10 107.5q0 80 -33 111.5t-90 31.5q-73 0 -134.5 -42.5t-100 -110t-61 -147t-24.5 -158.5z" />
<glyph horiz-adv-x="1019" d="M96 571l119 504h21l-64 -323h2q22 64 38.5 105t43.5 91.5t54.5 79.5t67.5 49.5t87 20.5q52 0 99 -23.5t83 -57.5t71.5 -68t78 -57.5t88.5 -23.5q38 0 72.5 16.5t58 41.5t41 54.5t26.5 53.5t11 41h20q-8 -63 -41 -119.5t-92 -128.5q-84 -101 -128.5 -156t-106.5 -142.5 t-99 -157.5t-77.5 -166t-71.5 -205h-336q40 136 202.5 317.5t426.5 384.5q21 16 57 43.5t51 39t39 31.5t37 33.5t28.5 32t28.5 38.5q-2 0 -4 2q-20 -26 -46 -52.5t-67.5 -58.5t-96.5 -52t-113 -20q-27 0 -155 11.5t-202 11.5q-50 0 -81.5 -6t-62.5 -25t-53 -58t-40 -102h-15 z" />
<glyph horiz-adv-x="1280" d="M27 242q0 38 14.5 76t52.5 79.5t96.5 74.5t154.5 58t218 33q-368 25 -368 225q0 59 32 112.5t96.5 98t176 71t256.5 26.5q229 0 355 -64t126 -178q0 -116 -130 -196t-366 -95q106 -4 184 -25t123.5 -55t67 -75.5t21.5 -90.5q0 -43 -14.5 -85t-55.5 -89t-104 -82 t-170.5 -58t-245.5 -23q-140 0 -245 23t-162.5 61.5t-85 83t-27.5 94.5zM373 164q0 -48 10.5 -82.5t24 -51t33 -26t30 -11t23.5 -1.5q62 0 113.5 28t84 71.5t55 98.5t32 107t9.5 100q0 52 -12 87.5t-33.5 50.5t-43 20.5t-46.5 3.5q-70 -4 -125.5 -43.5t-88 -99t-49.5 -124.5 t-17 -128zM541 717q0 -84 31.5 -115t82.5 -31q54 0 97 27.5t68.5 68.5t42 93t22.5 95t6 81q0 147 -115 147q-50 0 -91 -26t-67 -66t-44 -90.5t-25.5 -96.5t-7.5 -87z" />
<glyph horiz-adv-x="1234" d="M61 219q0 71 45.5 118.5t116.5 47.5q69 0 113.5 -45t44.5 -113q0 -61 -36.5 -105.5t-92.5 -55.5q44 -72 151 -72q314 0 431 637q-98 -221 -353 -221q-96 0 -172 28.5t-124 91t-48 152.5q0 80 38.5 154.5t109 132.5t179 92.5t238.5 34.5q238 0 351.5 -112t113.5 -306 q0 -105 -31 -206.5t-93.5 -190.5t-148 -156t-202.5 -106t-250 -39q-182 0 -281.5 67.5t-99.5 171.5zM455 627q0 -178 127 -178q109 0 195.5 118t86.5 310q0 109 -32 156.5t-97 47.5q-67 0 -122.5 -46t-88.5 -117t-51 -147t-18 -144z" />
<glyph horiz-adv-x="761" d="M-51 0l2 10q83 0 122 36t62 138l162 707q24 103 2.5 138.5t-104.5 35.5l2 10h626l-2 -10q-82 0 -120.5 -36t-61.5 -138l-164 -707q-23 -103 -1 -138.5t104 -35.5l-3 -10h-626zM424 1360q0 62 44 105.5t105 43.5q62 0 106 -44t44 -105q0 -62 -44.5 -106t-105.5 -44 t-105 44t-44 106z" />
<glyph horiz-adv-x="1003" d="M436 1358q0 59 41.5 101t102.5 42q60 0 102.5 -42t42.5 -103q0 -60 -42 -103t-101 -43t-102.5 43.5t-43.5 104.5zM829 1358q0 59 41.5 101t102.5 42q60 0 102.5 -42t42.5 -103q0 -60 -42 -103t-101 -43t-102.5 43.5t-43.5 104.5z" />
<glyph horiz-adv-x="747" d="M463.5 1483.5q2.5 48.5 40.5 75.5t85 13.5t79 -61.5q14 -22 30 -58t27.5 -69t33 -97t36.5 -105l-4 -4q-60 42 -135.5 89t-108.5 71.5t-53 52.5q-33 44 -30.5 92.5z" />
<glyph horiz-adv-x="868" d="M352 1194q4 12 14.5 49t18.5 60.5t22 59.5t30.5 59.5t37.5 47t49.5 35t61.5 11.5q52 0 156.5 -48.5t160.5 -48.5q34 0 60 11t42.5 31.5t25 37.5t16.5 39l10 -2q-2 -8 -12.5 -41.5t-14.5 -44.5t-15 -42t-17.5 -44t-19.5 -38.5t-23 -37.5t-26 -29.5t-31.5 -25t-35 -13.5 t-41.5 -6q-51 0 -154 48.5t-161 48.5q-34 0 -60 -11t-43 -31.5t-25.5 -37t-17.5 -39.5z" />
<glyph horiz-adv-x="952" d="M381 1155l305 322q48 51 100 51q53 0 76 -51l158 -322l-4 -4l-277 170l-354 -170z" />
<glyph horiz-adv-x="747" d="M381 1184q250 289 307 336q50 39 94.5 37.5t73.5 -37.5q24 -29 22 -61t-17.5 -58t-39.5 -45q-28 -22 -91.5 -48t-173.5 -65t-171 -63z" />
<glyph horiz-adv-x="700" d="M-25 -410l11 11q23 -19 74.5 -32t101.5 -13q92 0 140 50.5t48 127.5q0 56 -26 93.5t-84 37.5q-38 0 -80 -17l-4 7l188 143l14 -6l-153 -119q59 16 135 16q113 0 177.5 -39t64.5 -118q0 -69 -50 -118t-125 -70t-165 -21q-83 0 -155 18t-112 49z" />
<glyph horiz-adv-x="907" d="M385 1229l18 82h615l-19 -82h-614z" />
<glyph horiz-adv-x="892" d="M20 307q0 134 60 246.5t170.5 180t247.5 67.5q150 0 233.5 -84t83.5 -238q0 -133 -61 -246t-171.5 -180t-246.5 -67q-149 0 -232.5 83t-83.5 238zM248 145q0 -76 16.5 -113.5t59.5 -37.5q58 0 109 66.5t84 166t52 210t19 204.5q0 76 -17 113t-59 37q-57 0 -108 -65 t-84.5 -163t-52.5 -209.5t-19 -208.5z" />
<glyph horiz-adv-x="565" d="M-92 0v8q80 0 123 29.5t65 118.5l113 454q9 36 -0.5 52t-44.5 16h-94l4 8q235 26 409 100l6 -2l-155 -643q-9 -37 -8.5 -62t7 -39t23.5 -21t33.5 -9t44.5 -2l-2 -8h-524z" />
<glyph horiz-adv-x="829" d="M-37 0q5 84 31 135t90 98q39 29 106.5 67t120 69t105 72t81.5 94t29 116q0 140 -133 140q-58 0 -105 -27t-75 -70q36 -8 62 -39.5t26 -76.5q0 -51 -33.5 -85t-83.5 -34t-82 36.5t-32 84.5q0 85 103 153t271 68q87 0 157 -18.5t118.5 -66t48.5 -118.5q0 -69 -46 -114 t-125 -71.5t-165 -48.5t-187 -62t-171 -95q-56 -45 -62 -64q75 101 252 101q51 0 142 -11.5t131 -11.5q79 0 124 34t48 122h8q1 -38 -5 -85t-23 -102.5t-44 -100.5t-72 -75t-102 -30q-47 0 -85.5 21t-65.5 51.5t-53 61t-61 51.5t-77 21q-71 0 -111.5 -54.5t-42.5 -135.5h-12 z" />
<glyph horiz-adv-x="833" d="M-33 158q0 52 34.5 89.5t86.5 37.5q49 0 81 -34.5t32 -84.5q0 -43 -25.5 -75.5t-66.5 -43.5q35 -47 120 -47q105 0 163.5 70t58.5 168q0 76 -42.5 115.5t-138.5 39.5q-29 0 -49.5 -3.5t-30.5 -7t-14 -3.5q-8 0 -15 4.5t-7 11.5q0 10 9.5 16.5t20.5 6.5q3 0 28 -8.5 t62 -8.5q66 0 116 22t78.5 59t42 78.5t13.5 86.5q0 137 -135 137q-93 0 -143 -57q32 -11 55 -43t23 -72q0 -47 -32.5 -79.5t-82.5 -32.5q-51 0 -81 34.5t-30 77.5q0 82 100.5 135.5t254.5 53.5q149 0 236 -53t87 -142q0 -55 -34.5 -96t-95.5 -64t-135.5 -34t-162.5 -11h-14 l-2 -6h16q158 0 256 -48t98 -142q0 -72 -59.5 -123t-149.5 -73.5t-200 -22.5q-161 0 -243.5 49t-82.5 123z" />
<glyph horiz-adv-x="831" d="M-68 211l131 78q99 60 163.5 154t64.5 186q0 102 -74 172q65 3 125.5 -3.5t115 -24t87.5 -52t33 -82.5t-33.5 -90.5t-93 -78t-119 -63.5t-134.5 -62t-116 -58l-121 -72h410l26 98l281 213h6l-74 -311q39 -1 64 2t37 6.5t16 3.5q10 0 16.5 -5t6.5 -11q0 -10 -10 -15.5 t-21 -5.5q-5 0 -15.5 3t-34.5 6t-61 2l-14 -60q-8 -31 -9.5 -53.5t4 -37t13 -23t23.5 -13t30.5 -5.5t38.5 -1l-2 -8h-524v8q79 0 122 29.5t66 118.5l13 49h-435z" />
<glyph horiz-adv-x="815" d="M-39 162q0 52 33.5 87.5t87.5 35.5q52 0 82.5 -34t30.5 -83q0 -47 -27.5 -81t-69.5 -40q33 -47 105 -47q59 0 107 26.5t76 70t43 93.5t15 101q0 160 -149 160q-102 0 -182 -54q-21 -43 -43 -43q-17 0 -17 17q0 23 47 35l127 378q242 -14 335 -9q186 8 237 67q2 -12 2 -31 q0 -59 -17 -105t-43.5 -74t-62 -46t-70 -24.5t-71.5 -6.5q-78 0 -140.5 32.5t-181.5 121.5l-102 -299q119 65 260 65q87 0 157.5 -22t118 -75t47.5 -130q0 -84 -56.5 -144.5t-149.5 -89t-211 -28.5q-154 0 -236 49t-82 127z" />
<glyph horiz-adv-x="876" d="M14 291q0 135 64.5 250.5t188 187.5t280.5 72q132 0 201 -49t69 -125q0 -54 -31.5 -88.5t-85.5 -34.5q-52 0 -83 32t-31 82q0 42 24.5 74t61.5 41q-18 58 -84 58q-71 0 -139 -62t-115.5 -161.5t-69.5 -215.5q74 152 250 152q108 0 178 -55.5t70 -153.5q0 -129 -115 -219 t-301 -90q-169 0 -250.5 80.5t-81.5 224.5zM221 141q-5 -147 98 -147q57 0 102.5 44.5t70 108.5t37 123.5t12.5 102.5q0 102 -90 102q-69 0 -122.5 -53t-79.5 -127.5t-28 -153.5z" />
<glyph horiz-adv-x="712" d="M29 416l84 368h14l-45 -229h2q17 47 28.5 74.5t31.5 65t39.5 58t48.5 35.5t63 15q45 0 87 -26.5t69.5 -57.5t66 -57.5t78.5 -26.5q45 0 81.5 31t52.5 62.5t20 55.5h14q-9 -53 -31.5 -91t-64.5 -89q-73 -89 -112 -139.5t-90 -127.5t-86.5 -158t-64.5 -179h-239 q28 95 142 229t306 283q17 13 52.5 39.5t51.5 39.5t38.5 35t38.5 44q-2 2 -5 2q-40 -52 -99.5 -93.5t-131.5 -41.5q-23 0 -116 11t-150 11q-31 0 -51 -4t-42.5 -17.5t-40 -43.5t-30.5 -78h-10z" />
<glyph horiz-adv-x="909" d="M-23 176q0 28 10.5 56t38.5 59t71 55t113 42.5t159 23.5q-269 16 -269 163q0 92 101.5 159t304.5 67q164 0 256 -46.5t92 -129.5q0 -86 -94 -144.5t-264 -68.5q149 -8 217.5 -57t68.5 -124q0 -32 -11 -63t-40.5 -64.5t-75.5 -59t-124 -42t-177 -16.5q-196 0 -286.5 55.5 t-90.5 134.5zM231 113q0 -119 86 -119q67 0 117 50t72 116t22 131q0 41 -9.5 67t-26.5 35.5t-28 12t-28 2.5q-63 0 -111.5 -49t-71 -115t-22.5 -131zM348 524q0 -108 88 -108q47 0 82.5 29.5t52.5 74.5t25 86t8 76q0 109 -84 109q-44 0 -79 -28t-54.5 -71t-29 -86.5 t-9.5 -81.5z" />
<glyph horiz-adv-x="876" d="M2 158q0 52 33.5 87.5t85.5 35.5q50 0 81 -33.5t31 -81.5q0 -44 -27 -77t-65 -42q28 -51 109 -51q44 0 83 18.5t67.5 46.5t53 71t40.5 81.5t30.5 89.5t21.5 83.5t15 74.5q-72 -164 -254 -164q-108 0 -178 52t-70 149q0 124 111.5 213.5t296.5 89.5q171 0 254.5 -82.5 t83.5 -224.5q0 -96 -36.5 -186.5t-102.5 -162.5t-167 -115.5t-220 -43.5q-132 0 -204.5 49.5t-72.5 122.5zM287 457q0 -131 92 -131q79 0 142 87.5t63 227.5q0 79 -24 114.5t-71 35.5q-49 0 -89 -34t-64 -86t-36.5 -108t-12.5 -106z" />
<glyph horiz-adv-x="892" d="M133 788q0 134 60 246.5t170 180t247 67.5q150 0 234 -83.5t84 -237.5q0 -133 -61 -246t-171.5 -180.5t-246.5 -67.5q-149 0 -232.5 83t-83.5 238zM360 627q0 -76 16.5 -114t59.5 -38q58 0 109 66.5t84 166t52 210t19 204.5q0 77 -16.5 113.5t-58.5 36.5 q-57 0 -108.5 -65t-84.5 -163t-52.5 -209t-19.5 -208z" />
<glyph horiz-adv-x="565" d="M14 481v8q80 0 123.5 29.5t65.5 118.5l112 455q9 36 -0.5 51.5t-44.5 15.5h-94l4 8q233 25 410 101l6 -2l-156 -643q-9 -37 -8.5 -62t7 -39t23.5 -21.5t34 -9.5t45 -2l-2 -8h-525z" />
<glyph horiz-adv-x="829" d="M74 481q5 84 31 135.5t90 98.5q39 29 106.5 67t120 69t105 72t81.5 94t29 116q0 139 -133 139q-58 0 -105 -26.5t-75 -69.5q36 -8 62 -40t26 -77q0 -51 -33.5 -85t-83.5 -34t-82.5 36.5t-32.5 84.5q0 85 103.5 153t271.5 68q87 0 157 -18.5t118.5 -66t48.5 -118.5 q0 -69 -46 -114t-125 -71.5t-165.5 -48.5t-187.5 -62t-171 -95q-55 -44 -61 -63q75 100 252 100q51 0 141.5 -11.5t130.5 -11.5q79 0 124 34t48 122h8q1 -38 -4.5 -85t-23 -102.5t-44 -100.5t-71.5 -75t-102 -30q-47 0 -85.5 21.5t-65.5 51.5t-53 60.5t-61 52t-77 21.5 q-70 0 -111 -55t-43 -136h-12z" />
<glyph horiz-adv-x="833" d="M78 639q0 52 34.5 89.5t86.5 37.5q49 0 80.5 -34.5t31.5 -84.5q0 -43 -25.5 -75.5t-66.5 -43.5q35 -47 121 -47q104 0 162.5 70t58.5 168q0 76 -42 115.5t-138 39.5q-29 0 -49.5 -3.5t-31 -7t-13.5 -3.5q-8 0 -15.5 5t-7.5 12q0 10 9.5 16t21.5 6q3 0 28 -8t62 -8 q66 0 116 22t78.5 58.5t42 78t13.5 86.5q0 138 -135 138q-93 0 -144 -58q32 -11 55 -42.5t23 -71.5q0 -47 -32.5 -80t-82.5 -33q-51 0 -80.5 34.5t-29.5 78.5q0 82 100 135t254 53q149 0 236.5 -53t87.5 -142q0 -55 -34.5 -95.5t-95.5 -63.5t-135.5 -34t-162.5 -11h-15 l-2 -6h17q158 0 256 -48.5t98 -142.5q0 -72 -59.5 -123t-150 -73.5t-200.5 -22.5q-161 0 -243 49t-82 123z" />
<glyph horiz-adv-x="831" d="M43 692l131 78q99 60 163 154t64 186q0 103 -73 172q89 4 166.5 -8t135.5 -51.5t58 -102.5q0 -48 -33.5 -90.5t-93 -78t-118.5 -63.5t-134 -62t-116 -58l-121 -72h409l27 99l280 213h7l-74 -312q39 -1 64 2.5t37 7t16 3.5q10 0 16 -5t6 -12q0 -10 -10 -15t-21 -5 q-5 0 -15.5 3t-34 5.5t-60.5 1.5l-14 -59q-9 -37 -9 -62t6.5 -39t23.5 -21.5t34 -9.5t45 -2l-2 -8h-524v8q79 0 122 29.5t66 118.5l12 49h-434z" />
<glyph horiz-adv-x="815" d="M72 643q0 52 33.5 87.5t87.5 35.5q52 0 82 -34t30 -83q0 -47 -27 -81t-69 -40q33 -47 104 -47q60 0 107.5 26.5t76 70t43.5 93.5t15 101q0 160 -149 160q-104 0 -183 -53q-21 -43 -43 -43q-16 0 -16 16q0 23 47 35l127 379q238 -14 324 -10q194 7 247 67q2 -12 2 -31 q0 -59 -17 -105t-43.5 -74t-62 -46t-70 -24.5t-71.5 -6.5q-78 0 -139.5 32.5t-181.5 121.5l-103 -299q119 65 260 65q87 0 157.5 -22t118.5 -75t48 -130q0 -125 -118 -193.5t-300 -68.5q-154 0 -235.5 49t-81.5 127z" />
<glyph horiz-adv-x="876" d="M127 772q0 100 38 192.5t106 163t169 112.5t219 42q132 0 201.5 -49t69.5 -125q0 -54 -31.5 -88.5t-85.5 -34.5q-52 0 -83.5 32.5t-31.5 82.5q0 42 24.5 73.5t61.5 40.5q-18 58 -84 58q-71 0 -138.5 -61.5t-115 -161t-69.5 -215.5q74 151 250 151q108 0 177.5 -55.5 t69.5 -153.5q0 -129 -114.5 -219t-300.5 -90q-169 0 -250.5 80.5t-81.5 224.5zM334 623q-5 -148 98 -148q57 0 102.5 44.5t69.5 108.5t36.5 123.5t12.5 102.5q0 102 -90 102q-69 0 -122 -53t-79 -127t-28 -153z" />
<glyph horiz-adv-x="712" d="M139 897l84 369h15l-45 -230h2q17 47 28.5 74.5t31.5 65t39.5 58t48.5 35.5t63 15q37 0 71 -17.5t60 -42t51 -49t55.5 -42t63.5 -17.5q45 0 81 31t52 63t20 56h14q-9 -53 -31.5 -91.5t-64.5 -89.5q-73 -88 -112.5 -139t-89.5 -128t-85.5 -158t-64.5 -179h-240 q28 95 142.5 229t306.5 283q15 12 51.5 39.5t52 39.5t38 34.5t38.5 44.5q-2 2 -4 2q-40 -52 -99.5 -93.5t-131.5 -41.5q-23 0 -116.5 11t-150.5 11q-31 0 -50.5 -4t-42.5 -17.5t-40 -43.5t-30 -78h-11z" />
<glyph horiz-adv-x="909" d="M90 657q0 36 18.5 71.5t60 71.5t122 61.5t190.5 31.5q-268 16 -268 164q0 92 101 158.5t304 66.5q164 0 256.5 -46.5t92.5 -129.5q0 -86 -94.5 -144.5t-264.5 -68.5q150 -9 218.5 -57t68.5 -123q0 -32 -11 -63t-40.5 -65t-75.5 -59.5t-124 -42t-177 -16.5 q-196 0 -286.5 55.5t-90.5 134.5zM344 594q0 -119 86 -119q67 0 117 50t72 116t22 131q0 41 -9.5 67t-26.5 35.5t-28 12t-28 2.5q-63 0 -111.5 -49t-71 -115t-22.5 -131zM461 1006q0 -109 88 -109q47 0 82.5 29.5t52.5 74.5t25 86t8 76q0 109 -84 109q-44 0 -79 -28 t-54.5 -70.5t-29 -86t-9.5 -81.5z" />
<glyph horiz-adv-x="876" d="M113 639q0 52 33 87.5t85 35.5q50 0 81.5 -33.5t31.5 -81.5q0 -44 -27 -77t-65 -42q28 -51 108 -51q44 0 83.5 18.5t67.5 46.5t53 71t41 81.5t30.5 89.5t21.5 83.5t15 74.5q-72 -164 -254 -164q-108 0 -178 52t-70 149q0 124 111.5 213.5t296.5 89.5q171 0 254 -82.5 t83 -224.5q0 -96 -36.5 -186.5t-102.5 -162.5t-167 -115.5t-220 -43.5q-132 0 -204 49.5t-72 122.5zM397 938q0 -131 92 -131q79 0 142 87.5t63 227.5q0 80 -23.5 115t-70.5 35q-64 0 -112.5 -58.5t-69.5 -132.5t-21 -143z" />
</font>
</defs>
</svg>
